<svg width="13" height="13" viewBox="0 0 13 13" fill="none" xmlns="http://www.w3.org/2000/svg">
<mask id="mask0_91_46" style="mask-type:alpha" maskUnits="userSpaceOnUse" x="0" y="0" width="13" height="13">
<rect width="13" height="13" fill="#D9D9D9"/>
</mask>
<g mask="url(#mask0_91_46)">
<path d="M9.00629 6.90625H2.84375C2.72847 6.90625 2.63196 6.86734 2.55423 6.78952C2.47641 6.7118 2.4375 6.61529 2.4375 6.5C2.4375 6.38472 2.47641 6.28821 2.55423 6.21048C2.63196 6.13266 2.72847 6.09375 2.84375 6.09375H9.00629L6.20628 3.29374C6.12575 3.21322 6.08599 3.11897 6.08698 3.01099C6.08806 2.90302 6.13058 2.80701 6.21454 2.72296C6.29859 2.64451 6.39374 2.60389 6.5 2.60109C6.60626 2.59829 6.70141 2.63891 6.78546 2.72296L10.2198 6.15726C10.2705 6.208 10.3062 6.26149 10.327 6.31773C10.3479 6.37398 10.3583 6.43473 10.3583 6.5C10.3583 6.56527 10.3479 6.62603 10.327 6.68227C10.3062 6.73852 10.2705 6.79201 10.2198 6.84274L6.78546 10.277C6.71044 10.3521 6.61754 10.3904 6.50677 10.3922C6.396 10.3939 6.29859 10.3555 6.21454 10.277C6.13058 10.193 6.0886 10.0965 6.0886 9.98752C6.0886 9.87847 6.13058 9.78192 6.21454 9.69787L9.00629 6.90625Z" fill="white"/>
</g>
</svg>
