<svg xmlns="http://www.w3.org/2000/svg" width="115" height="38" viewBox="0 0 115 38">
  <g id="blue" transform="translate(-1745 -1045)">
    <g id="패스_10" data-name="패스 10" transform="translate(1745 1045)" fill="#2264dc">
      <path d="M 96 37.5 L 19 37.5 C 16.50229263305664 37.5 14.07956886291504 37.01093673706055 11.79912281036377 36.04638290405273 C 9.59621524810791 35.11463165283203 7.617692470550537 33.78064727783203 5.91852331161499 32.08147811889648 C 4.219353675842285 30.3823070526123 2.885369300842285 28.40378379821777 1.953615427017212 26.20087623596191 C 0.9890615344047546 23.92043113708496 0.5 21.49770736694336 0.5 19 C 0.5 16.50229263305664 0.9890615344047546 14.07956886291504 1.953615427017212 11.79912281036377 C 2.885369300842285 9.59621524810791 4.219353675842285 7.617692470550537 5.91852331161499 5.91852331161499 C 7.617692470550537 4.219353675842285 9.59621524810791 2.885369300842285 11.79912281036377 1.953615427017212 C 14.07956886291504 0.9890615344047546 16.50229263305664 0.5 19 0.5 L 96 0.5 C 98.49771118164062 0.5 100.9204330444336 0.9890615344047546 103.2008743286133 1.953615427017212 C 105.4037857055664 2.885369300842285 107.3823089599609 4.219353675842285 109.0814743041992 5.91852331161499 C 110.780647277832 7.617692470550537 112.114631652832 9.59621524810791 113.04638671875 11.79912281036377 C 114.0109405517578 14.07956886291504 114.5 16.50229263305664 114.5 19 C 114.5 21.49770736694336 114.0109405517578 23.92043113708496 113.04638671875 26.20087623596191 C 112.114631652832 28.40378379821777 110.780647277832 30.3823070526123 109.0814743041992 32.08147811889648 C 107.3823089599609 33.78064727783203 105.4037857055664 35.11463165283203 103.2008743286133 36.04638290405273 C 100.9204330444336 37.01093673706055 98.49771118164062 37.5 96 37.5 Z" stroke="none"/>
      <path d="M 19 1 C 14.19203186035156 1 9.671829223632812 2.872322082519531 6.272079467773438 6.272077560424805 C 2.872322082519531 9.671831130981445 1 14.19202995300293 1 19 C 1 23.80796813964844 2.872322082519531 28.32816886901855 6.272079467773438 31.7279224395752 C 9.671829223632812 35.12767791748047 14.19203186035156 37 19 37 L 96 37 C 100.8079681396484 37 105.3281707763672 35.12767791748047 108.7279205322266 31.7279224395752 C 112.1276779174805 28.32816886901855 114 23.80796813964844 114 19 C 114 14.19202995300293 112.1276779174805 9.671831130981445 108.7279205322266 6.272077560424805 C 105.3281707763672 2.872322082519531 100.8079681396484 1 96 1 L 19 1 M 19 0 L 96 0 C 106.4934005737305 0 115 8.506584167480469 115 19 C 115 29.49341583251953 106.4934005737305 38 96 38 L 19 38 C 8.506584167480469 38 0 29.49341583251953 0 19 C 0 8.506584167480469 8.506584167480469 0 19 0 Z" stroke="none" fill="#2264dc"/>
    </g>
    <text id="더보기" transform="translate(1767 1071)" fill="#fff" font-size="15" font-family="S-CoreDream-4Regular, 'S-Core Dream \34 '"><tspan x="0" y="0">더보기</tspan></text>
    <path id="blue_ico" d="M224.931-733.783h-4.288a.622.622,0,0,1-.458-.185.623.623,0,0,1-.185-.458.621.621,0,0,1,.185-.458.622.622,0,0,1,.458-.185h4.288v-4.288a.622.622,0,0,1,.185-.458.622.622,0,0,1,.458-.185.621.621,0,0,1,.458.185.622.622,0,0,1,.185.458v4.288h4.288a.622.622,0,0,1,.458.185.622.622,0,0,1,.185.458.621.621,0,0,1-.185.458.622.622,0,0,1-.458.185h-4.288v4.288a.622.622,0,0,1-.185.458.623.623,0,0,1-.458.185.621.621,0,0,1-.458-.185.622.622,0,0,1-.185-.458Z" transform="translate(1605.426 1798.926)" fill="#fff"/>
    <g id="사각형_80" data-name="사각형 80" transform="translate(1823 1045)" fill="#fff" stroke="#707070" stroke-width="1">
      <rect width="17" height="14" stroke="none"/>
      <rect x="0.5" y="0.5" width="16" height="13" fill="none"/>
    </g>
  </g>
</svg>
