<svg xmlns="http://www.w3.org/2000/svg" width="114.574" height="38" viewBox="0 0 114.574 38">
  <g id="패스_11" data-name="패스 11" fill="#fff">
    <path d="M 95.64456939697266 37.5 L 18.92965316772461 37.5 C 16.44168090820312 37.5 14.02836608886719 37.01101303100586 11.7567663192749 36.0466423034668 C 9.562280654907227 35.11501312255859 7.591309547424316 33.78115844726562 5.898566722869873 32.08213043212891 C 4.205709457397461 30.38298606872559 2.87666654586792 28.40445709228516 1.948337912559509 26.20149993896484 C 0.9872950911521912 23.92087173461914 0.499995082616806 21.49792861938477 0.499995082616806 19 C 0.499995082616806 16.50207138061523 0.9872950911521912 14.07912826538086 1.948337912559509 11.79850006103516 C 2.87666654586792 9.595542907714844 4.205709457397461 7.617014408111572 5.898566722869873 5.917871475219727 C 7.591309547424316 4.21884298324585 9.562280654907227 2.884985685348511 11.7567663192749 1.953357100486755 C 14.02836608886719 0.9889857172966003 16.44168090820312 0.5 18.92965316772461 0.5 L 95.64456939697266 0.5 C 98.13253784179688 0.5 100.5458526611328 0.9889857172966003 102.8174514770508 1.953357100486755 C 105.0119400024414 2.884985685348511 106.98291015625 4.21884298324585 108.675651550293 5.917871475219727 C 110.3685073852539 7.617014408111572 111.6975555419922 9.595542907714844 112.6258773803711 11.79850006103516 C 113.5869216918945 14.07912826538086 114.0742263793945 16.50207138061523 114.0742263793945 19 C 114.0742263793945 21.49792861938477 113.5869216918945 23.92087173461914 112.6258773803711 26.20149993896484 C 111.6975555419922 28.40445709228516 110.3685073852539 30.38298606872559 108.675651550293 32.08213043212891 C 106.98291015625 33.78115844726562 105.0119400024414 35.11501312255859 102.8174514770508 36.0466423034668 C 100.5458526611328 37.01101303100586 98.13253784179688 37.5 95.64456939697266 37.5 Z" stroke="none"/>
    <path d="M 18.92964935302734 1 C 14.14117431640625 1 9.639106750488281 2.871860504150391 6.252784729003906 6.270769119262695 C 2.865478515625 9.670661926269531 1 14.19132232666016 1 19 C 1 23.80867767333984 2.865478515625 28.32933807373047 6.252784729003906 31.7292308807373 C 9.639106750488281 35.12813949584961 14.14117431640625 37 18.92964935302734 37 L 95.64455413818359 37 C 100.4330444335938 37 104.9351119995117 35.12813949584961 108.3214340209961 31.7292308807373 C 111.708740234375 28.32933807373047 113.57421875 23.80867767333984 113.57421875 19 C 113.57421875 14.19132232666016 111.708740234375 9.670661926269531 108.3214340209961 6.270769119262695 C 104.9351119995117 2.871860504150391 100.4330444335938 1 95.64455413818359 1 L 18.92964935302734 1 M 18.92964935302734 0 L 95.64455413818359 0 C 106.09912109375 0 114.57421875 8.506584167480469 114.57421875 19 C 114.57421875 29.49341583251953 106.09912109375 38 95.64455413818359 38 L 18.92964935302734 38 C 8.47509765625 38 0 29.49341583251953 0 19 C 0 8.506584167480469 8.47509765625 0 18.92964935302734 0 Z" stroke="none" fill="#9f9f9f"/>
  </g>
</svg>
