<svg xmlns="http://www.w3.org/2000/svg" width="74" height="60.055" viewBox="0 0 74 60.055">
  <g id="campain03" transform="translate(-202.97 -351.63)">
    <path id="패스_250" data-name="패스 250" d="M302.22,401.11" transform="translate(-59.293 -29.409)" fill="#fff" stroke="#656565" stroke-linecap="round" stroke-linejoin="round" stroke-width="1"/>
    <rect id="사각형_64" data-name="사각형 64" width="70.211" height="56.087" transform="translate(204.805 355.095)" fill="#fff" stroke="#656565" stroke-linecap="round" stroke-linejoin="round" stroke-width="1"/>
    <rect id="사각형_65" data-name="사각형 65" width="8.079" height="1.662" transform="translate(223.572 358.04)" fill="#fff" stroke="#656565" stroke-linecap="round" stroke-linejoin="round" stroke-width="1"/>
    <rect id="사각형_66" data-name="사각형 66" width="8.251" height="1.662" transform="translate(248.109 358.04)" fill="#fff" stroke="#656565" stroke-linecap="round" stroke-linejoin="round" stroke-width="1"/>
    <rect id="사각형_67" data-name="사각형 67" width="11.659" height="1.662" transform="translate(234.052 358.04)" fill="#fff" stroke="#656565" stroke-linecap="round" stroke-linejoin="round" stroke-width="1"/>
    <rect id="사각형_68" data-name="사각형 68" width="15.899" height="56.087" transform="translate(204.805 355.095)" fill="#fff" stroke="#656565" stroke-linecap="round" stroke-linejoin="round" stroke-width="1"/>
    <rect id="사각형_69" data-name="사각형 69" width="15.903" height="56.087" transform="translate(259.117 355.095)" fill="#fff" stroke="#656565" stroke-linecap="round" stroke-linejoin="round" stroke-width="1"/>
    <rect id="사각형_70" data-name="사각형 70" width="15.899" height="6.649" transform="translate(204.805 404.537)" fill="#fff" stroke="#656565" stroke-linecap="round" stroke-linejoin="round" stroke-width="1"/>
    <rect id="사각형_71" data-name="사각형 71" width="15.903" height="6.649" transform="translate(259.117 404.537)" fill="#fff" stroke="#656565" stroke-linecap="round" stroke-linejoin="round" stroke-width="1"/>
    <g id="그룹_49" data-name="그룹 49" transform="translate(225.39 365.591)">
      <g id="그룹_43" data-name="그룹 43" transform="translate(0)">
        <g id="그룹_41" data-name="그룹 41">
          <rect id="사각형_72" data-name="사각형 72" width="4.763" height="6.381" transform="translate(1.263)" fill="#fff" stroke="#656565" stroke-linecap="round" stroke-linejoin="round" stroke-width="1"/>
          <path id="패스_251" data-name="패스 251" d="M258.33,401.34v.024a1.322,1.322,0,0,0,1.323,1.323H264.4a1.318,1.318,0,0,0,1.319-1.323v-.024h-7.384Z" transform="translate(-258.33 -395.139)" fill="#fff" stroke="#656565" stroke-linecap="round" stroke-linejoin="round" stroke-width="1"/>
        </g>
        <g id="그룹_42" data-name="그룹 42" transform="translate(11.008)">
          <rect id="사각형_73" data-name="사각형 73" width="4.763" height="6.381" transform="translate(1.263)" fill="#fff" stroke="#656565" stroke-linecap="round" stroke-linejoin="round" stroke-width="1"/>
          <path id="패스_252" data-name="패스 252" d="M285.88,401.34v.024a1.322,1.322,0,0,0,1.323,1.323h4.747a1.321,1.321,0,0,0,1.319-1.323v-.024h-7.384Z" transform="translate(-285.88 -395.139)" fill="#fff" stroke="#656565" stroke-linecap="round" stroke-linejoin="round" stroke-width="1"/>
        </g>
      </g>
      <g id="그룹_46" data-name="그룹 46" transform="translate(0 12.566)">
        <g id="그룹_44" data-name="그룹 44">
          <rect id="사각형_74" data-name="사각형 74" width="4.763" height="6.381" transform="translate(1.263)" fill="#fff" stroke="#656565" stroke-linecap="round" stroke-linejoin="round" stroke-width="1"/>
          <path id="패스_253" data-name="패스 253" d="M258.33,432.79v.024a1.322,1.322,0,0,0,1.323,1.323H264.4a1.318,1.318,0,0,0,1.319-1.323v-.024h-7.384Z" transform="translate(-258.33 -426.589)" fill="#fff" stroke="#656565" stroke-linecap="round" stroke-linejoin="round" stroke-width="1"/>
        </g>
        <g id="그룹_45" data-name="그룹 45" transform="translate(11.008)">
          <rect id="사각형_75" data-name="사각형 75" width="4.763" height="6.381" transform="translate(1.263)" fill="#fff" stroke="#656565" stroke-linecap="round" stroke-linejoin="round" stroke-width="1"/>
          <path id="패스_254" data-name="패스 254" d="M285.88,432.79v.024a1.322,1.322,0,0,0,1.323,1.323h4.747a1.321,1.321,0,0,0,1.319-1.323v-.024h-7.384Z" transform="translate(-285.88 -426.589)" fill="#fff" stroke="#656565" stroke-linecap="round" stroke-linejoin="round" stroke-width="1"/>
        </g>
      </g>
      <g id="그룹_47" data-name="그룹 47" transform="translate(21.664)">
        <rect id="사각형_76" data-name="사각형 76" width="4.763" height="6.381" transform="translate(1.263)" fill="#fff" stroke="#656565" stroke-linecap="round" stroke-linejoin="round" stroke-width="1"/>
        <path id="패스_255" data-name="패스 255" d="M312.55,401.34v.024a1.321,1.321,0,0,0,1.319,1.323h4.747a1.324,1.324,0,0,0,1.323-1.323v-.024h-7.384Z" transform="translate(-312.55 -395.139)" fill="#fff" stroke="#656565" stroke-linecap="round" stroke-linejoin="round" stroke-width="1"/>
      </g>
      <g id="그룹_48" data-name="그룹 48" transform="translate(21.664 12.566)">
        <rect id="사각형_77" data-name="사각형 77" width="4.763" height="6.381" transform="translate(1.263)" fill="#fff" stroke="#656565" stroke-linecap="round" stroke-linejoin="round" stroke-width="1"/>
        <path id="패스_256" data-name="패스 256" d="M312.55,432.79v.024a1.321,1.321,0,0,0,1.319,1.323h4.747a1.324,1.324,0,0,0,1.323-1.323v-.024h-7.384Z" transform="translate(-312.55 -426.589)" fill="#fff" stroke="#656565" stroke-linecap="round" stroke-linejoin="round" stroke-width="1"/>
      </g>
    </g>
    <g id="그룹_54" data-name="그룹 54" transform="translate(225.39 378.158)">
      <g id="그룹_52" data-name="그룹 52" transform="translate(0)">
        <g id="그룹_50" data-name="그룹 50">
          <rect id="사각형_78" data-name="사각형 78" width="4.763" height="6.381" transform="translate(1.263)" fill="#fff" stroke="#656565" stroke-linecap="round" stroke-linejoin="round" stroke-width="1"/>
          <path id="패스_257" data-name="패스 257" d="M258.33,432.79v.024a1.322,1.322,0,0,0,1.323,1.323H264.4a1.318,1.318,0,0,0,1.319-1.323v-.024h-7.384Z" transform="translate(-258.33 -426.589)" fill="#fff" stroke="#656565" stroke-linecap="round" stroke-linejoin="round" stroke-width="1"/>
        </g>
        <g id="그룹_51" data-name="그룹 51" transform="translate(11.008)">
          <rect id="사각형_79" data-name="사각형 79" width="4.763" height="6.381" transform="translate(1.263)" fill="#fff" stroke="#656565" stroke-linecap="round" stroke-linejoin="round" stroke-width="1"/>
          <path id="패스_258" data-name="패스 258" d="M285.88,432.79v.024a1.322,1.322,0,0,0,1.323,1.323h4.747a1.321,1.321,0,0,0,1.319-1.323v-.024h-7.384Z" transform="translate(-285.88 -426.589)" fill="#fff" stroke="#656565" stroke-linecap="round" stroke-linejoin="round" stroke-width="1"/>
        </g>
      </g>
      <g id="그룹_53" data-name="그룹 53" transform="translate(21.664)">
        <rect id="사각형_80" data-name="사각형 80" width="4.763" height="6.381" transform="translate(1.263)" fill="#fff" stroke="#656565" stroke-linecap="round" stroke-linejoin="round" stroke-width="1"/>
        <path id="패스_259" data-name="패스 259" d="M312.55,432.79v.024a1.321,1.321,0,0,0,1.319,1.323h4.747a1.324,1.324,0,0,0,1.323-1.323v-.024h-7.384Z" transform="translate(-312.55 -426.589)" fill="#fff" stroke="#656565" stroke-linecap="round" stroke-linejoin="round" stroke-width="1"/>
      </g>
    </g>
    <g id="그룹_58" data-name="그룹 58" transform="translate(263.376 365.591)">
      <g id="그룹_55" data-name="그룹 55">
        <rect id="사각형_81" data-name="사각형 81" width="4.763" height="6.381" transform="translate(1.267)" fill="#fff" stroke="#656565" stroke-linecap="round" stroke-linejoin="round" stroke-width="1"/>
        <path id="패스_260" data-name="패스 260" d="M353.4,401.34v.024a1.322,1.322,0,0,0,1.323,1.323h4.747a1.318,1.318,0,0,0,1.318-1.323v-.024H353.4Z" transform="translate(-353.4 -395.139)" fill="#fff" stroke="#656565" stroke-linecap="round" stroke-linejoin="round" stroke-width="1"/>
      </g>
      <g id="그룹_56" data-name="그룹 56" transform="translate(0 12.566)">
        <rect id="사각형_82" data-name="사각형 82" width="4.763" height="6.381" transform="translate(1.267)" fill="#fff" stroke="#656565" stroke-linecap="round" stroke-linejoin="round" stroke-width="1"/>
        <path id="패스_261" data-name="패스 261" d="M353.4,432.79v.024a1.322,1.322,0,0,0,1.323,1.323h4.747a1.318,1.318,0,0,0,1.318-1.323v-.024H353.4Z" transform="translate(-353.4 -426.589)" fill="#fff" stroke="#656565" stroke-linecap="round" stroke-linejoin="round" stroke-width="1"/>
      </g>
      <g id="그룹_57" data-name="그룹 57" transform="translate(0 25.444)">
        <rect id="사각형_83" data-name="사각형 83" width="4.763" height="6.381" transform="translate(1.267)" fill="#fff" stroke="#656565" stroke-linecap="round" stroke-linejoin="round" stroke-width="1"/>
        <path id="패스_262" data-name="패스 262" d="M353.4,465.02v.024a1.324,1.324,0,0,0,1.323,1.323h4.747a1.318,1.318,0,0,0,1.318-1.323v-.024H353.4Z" transform="translate(-353.4 -458.819)" fill="#fff" stroke="#656565" stroke-linecap="round" stroke-linejoin="round" stroke-width="1"/>
      </g>
    </g>
    <g id="그룹_62" data-name="그룹 62" transform="translate(209.064 365.591)">
      <g id="그룹_59" data-name="그룹 59">
        <rect id="사각형_84" data-name="사각형 84" width="4.763" height="6.381" transform="translate(1.263)" fill="#fff" stroke="#656565" stroke-linecap="round" stroke-linejoin="round" stroke-width="1"/>
        <path id="패스_263" data-name="패스 263" d="M217.47,401.34v.024a1.324,1.324,0,0,0,1.323,1.323h4.747a1.322,1.322,0,0,0,1.323-1.323v-.024h-7.384Z" transform="translate(-217.47 -395.139)" fill="#fff" stroke="#656565" stroke-linecap="round" stroke-linejoin="round" stroke-width="1"/>
      </g>
      <g id="그룹_60" data-name="그룹 60" transform="translate(0 12.566)">
        <rect id="사각형_85" data-name="사각형 85" width="4.763" height="6.381" transform="translate(1.263)" fill="#fff" stroke="#656565" stroke-linecap="round" stroke-linejoin="round" stroke-width="1"/>
        <path id="패스_264" data-name="패스 264" d="M217.47,432.79v.024a1.324,1.324,0,0,0,1.323,1.323h4.747a1.322,1.322,0,0,0,1.323-1.323v-.024h-7.384Z" transform="translate(-217.47 -426.589)" fill="#fff" stroke="#656565" stroke-linecap="round" stroke-linejoin="round" stroke-width="1"/>
      </g>
      <g id="그룹_61" data-name="그룹 61" transform="translate(0 25.444)">
        <rect id="사각형_86" data-name="사각형 86" width="4.763" height="6.381" transform="translate(1.263)" fill="#fff" stroke="#656565" stroke-linecap="round" stroke-linejoin="round" stroke-width="1"/>
        <path id="패스_265" data-name="패스 265" d="M217.47,465.02v.024a1.327,1.327,0,0,0,1.323,1.323h4.747a1.322,1.322,0,0,0,1.323-1.323v-.024h-7.384Z" transform="translate(-217.47 -458.819)" fill="#fff" stroke="#656565" stroke-linecap="round" stroke-linejoin="round" stroke-width="1"/>
      </g>
    </g>
    <rect id="사각형_87" data-name="사각형 87" width="10.724" height="1.662" transform="translate(207.394 358.04)" fill="#fff" stroke="#656565" stroke-linecap="round" stroke-linejoin="round" stroke-width="1"/>
    <rect id="사각형_88" data-name="사각형 88" width="10.724" height="1.662" transform="translate(261.706 358.04)" fill="#fff" stroke="#656565" stroke-linecap="round" stroke-linejoin="round" stroke-width="1"/>
    <rect id="사각형_89" data-name="사각형 89" width="38.326" height="21.604" transform="translate(220.699 389.577)" fill="#fff" stroke="#656565" stroke-linecap="round" stroke-linejoin="round" stroke-width="1"/>
    <path id="패스_266" data-name="패스 266" d="M203.47,352.17l73-.04v1.43a1.637,1.637,0,0,1-1.6,1.642H205.076a1.606,1.606,0,0,1-1.606-1.6v-1.426Z" fill="#fff" stroke="#656565" stroke-linecap="round" stroke-linejoin="round" stroke-width="1"/>
    <rect id="사각형_90" data-name="사각형 90" width="37.851" height="12.882" transform="translate(220.979 391.655)" fill="#fff" stroke="#656565" stroke-linecap="round" stroke-linejoin="round" stroke-width="1"/>
    <rect id="사각형_91" data-name="사각형 91" width="4.763" height="5.754" transform="translate(223.304 395.439)" fill="#fff" stroke="#656565" stroke-linecap="round" stroke-linejoin="round" stroke-width="1"/>
    <rect id="사각형_92" data-name="사각형 92" width="4.763" height="5.754" transform="translate(251.685 395.439)" fill="#fff" stroke="#656565" stroke-linecap="round" stroke-linejoin="round" stroke-width="1"/>
    <rect id="사각형_93" data-name="사각형 93" width="17.553" height="2.182" transform="translate(231.084 404.537)" fill="#fff" stroke="#656565" stroke-linecap="round" stroke-linejoin="round" stroke-width="1"/>
    <rect id="사각형_94" data-name="사각형 94" width="17.553" height="2.182" transform="translate(231.084 406.714)" fill="#fff" stroke="#656565" stroke-linecap="round" stroke-linejoin="round" stroke-width="1"/>
    <rect id="사각형_95" data-name="사각형 95" width="17.553" height="2.182" transform="translate(231.084 408.896)" fill="#fff" stroke="#656565" stroke-linecap="round" stroke-linejoin="round" stroke-width="1"/>
    <g id="그룹_63" data-name="그룹 63" transform="translate(236.442 394.623)">
      <path id="패스_267" data-name="패스 267" d="M292.727,460.026a2.4,2.4,0,0,0-2.238-1.546h-2.258a2.4,2.4,0,0,0-2.242,1.546h6.737Z" transform="translate(-285.99 -458.48)" fill="#fff" stroke="#656565" stroke-linecap="round" stroke-linejoin="round" stroke-width="1"/>
      <rect id="사각형_96" data-name="사각형 96" width="6.673" height="6.605" transform="translate(0.032 3.288)" fill="#fff" stroke="#656565" stroke-linecap="round" stroke-linejoin="round" stroke-width="1"/>
    </g>
    <rect id="사각형_97" data-name="사각형 97" width="0.787" height="13.897" transform="translate(230.297 390.616)" fill="#fff" stroke="#656565" stroke-linecap="round" stroke-linejoin="round" stroke-width="1"/>
    <rect id="사각형_98" data-name="사각형 98" width="0.791" height="13.897" transform="translate(248.676 390.616)" fill="#fff" stroke="#656565" stroke-linecap="round" stroke-linejoin="round" stroke-width="1"/>
    <path id="패스_268" data-name="패스 268" d="M243.97,445.738l40.576-.028v1.019A1.171,1.171,0,0,1,283.4,447.9H245.117a1.143,1.143,0,0,1-1.147-1.143v-1.023Z" transform="translate(-24.318 -56.189)" fill="#fff" stroke="#656565" stroke-linecap="round" stroke-linejoin="round" stroke-width="1"/>
  </g>
</svg>
