<svg xmlns="http://www.w3.org/2000/svg" width="149.331" height="75.232" viewBox="0 0 149.331 75.232">
  <g id="campain02" transform="translate(-806.166 -2139.327)">
    <g id="강아지" transform="matrix(0.999, 0.052, -0.052, 0.999, 724.659, 1833.39)">
      <g id="그룹_15" data-name="그룹 15" transform="translate(172.876 304.535)">
        <path id="패스_130" data-name="패스 130" d="M203.913,326.706c-2.068-2.068-3.723-.829-4.965,1.24-2.9,3.723-6.62,7.448-8.688,11.585-1.24,2.483-2.068,4.551-4.137,6.205-1.654,1.24-4.551,1.654-5.791,3.723-1.24,1.654-.414,4.966-.829,7.448-.829,3.311-2.483,5.38-4.137,8.274-2.483,4.965,0,11.171.414,16.136,0,4.965,5.791,8.274,10.757,6.205,4.137-1.654,4.965-8.274,8.274-11.171,5.38-4.137,7.034-9.1,8.274-15.308,3.311-12.414,2.9-22.756,1.24-35.17l-.414.829Z" transform="translate(-173.86 -325.289)" fill="#fff"/>
        <path id="패스_131" data-name="패스 131" d="M203.222,325.582c-1.344-1.276-2.876-1.58-4.337-.316a17.362,17.362,0,0,0-1.908,2.432c-.778.969-1.586,1.913-2.384,2.861a60.594,60.594,0,0,0-4.283,5.541c-1.225,1.845-2.027,3.9-3.147,5.8a10.289,10.289,0,0,1-1.916,2.372,8.677,8.677,0,0,1-2.474,1.416,7.89,7.89,0,0,0-3.985,3.046c-.906,1.538-.554,3.729-.551,5.422a12.8,12.8,0,0,1-2.092,6.456c-1.115,1.931-2.441,3.693-2.957,5.9a17.656,17.656,0,0,0-.027,6.429c.313,2.28.864,4.521,1.147,6.8a19.821,19.821,0,0,0,.307,2.483,6.691,6.691,0,0,0,1.088,2.229,8.535,8.535,0,0,0,8.885,3c3.419-.843,4.939-4.009,6.387-6.9a17.453,17.453,0,0,1,2.736-4.352c.662-.7,1.487-1.249,2.188-1.913a17.981,17.981,0,0,0,2-2.235,26.328,26.328,0,0,0,4.346-10.5c.542-2.48,1.186-4.93,1.639-7.43a72.375,72.375,0,0,0,.918-7.252,88.193,88.193,0,0,0-.232-14.712c-.215-2.375-.5-4.748-.814-7.111-.069-.519-.9-.528-.826,0,1.329,10.026,1.866,20.083-.072,30.073-.465,2.4-1.073,4.784-1.624,7.168a30.4,30.4,0,0,1-1.833,5.639,18.728,18.728,0,0,1-3.222,4.9c-1.261,1.389-2.858,2.393-3.976,3.91-2.015,2.739-2.784,6.381-5.377,8.7-2.793,2.495-7.517,1.663-9.964-.861a6.146,6.146,0,0,1-1.335-2.176,12.981,12.981,0,0,1-.426-2.9c-.268-2.182-.775-4.328-1.106-6.5a16.43,16.43,0,0,1,.188-7.037c.632-2.191,2.25-4.068,3.305-6.074a12.19,12.19,0,0,0,1.565-5.231c.06-1.764-.376-3.86.444-5.5.757-1.514,2.429-2.188,3.887-2.837a9.247,9.247,0,0,0,3.827-3,34.439,34.439,0,0,0,2.671-4.9,34.081,34.081,0,0,1,3.809-5.493c1.389-1.711,2.846-3.365,4.217-5.088a11.623,11.623,0,0,1,1.809-2.206c1.028-.79,2.08-.265,2.915.528.387.367.972-.218.584-.584h0Z" transform="translate(-172.876 -324.458)" fill="#231f20"/>
      </g>
      <g id="그룹_16" data-name="그룹 16" transform="translate(216.482 304.099)">
        <path id="패스_132" data-name="패스 132" d="M320.62,325.383c-.829-1.654,2.9-.829,4.137-.829,5.791,1.654,7.448,6.205,8.688,11.585,1.654,5.38,6.205,8.688,8.688,13.654,2.483,5.38,2.068,11.585,4.551,16.965,2.068,4.966,5.38,9.517,2.483,14.894-3.311,5.38-11.171,8.688-16.551,4.965-4.551-2.9-3.311-9.931-3.723-14.894-.829-6.205-2.068-12.414-1.654-18.619,0-7.863,0-20.688-5.38-27.307l-1.24-.414Z" transform="translate(-320.107 -323.946)" fill="#fff"/>
        <path id="패스_133" data-name="패스 133" d="M320.051,324.225c-.229-.513.8-.414,1.094-.411.7.006,1.392.1,2.083.17a8.533,8.533,0,0,1,4.718,2.319,11.694,11.694,0,0,1,2.817,4.357c.7,1.753.978,3.618,1.612,5.383,1.425,3.967,4.536,6.968,6.9,10.366a19.651,19.651,0,0,1,2.861,6.357c.611,2.331.939,4.724,1.4,7.085a32.677,32.677,0,0,0,2.086,6.676c.924,2.146,2.045,4.2,2.766,6.429a9.546,9.546,0,0,1-.224,6.983,11.72,11.72,0,0,1-3.943,4.411c-3.04,2.185-7.091,3.234-10.676,1.851a7.147,7.147,0,0,1-3.916-3.553,13.856,13.856,0,0,1-1.064-5.281c-.1-1.8-.048-3.6-.11-5.4a67.6,67.6,0,0,0-.912-7.085c-.39-2.733-.724-5.475-.852-8.235-.1-2.215.045-4.426.036-6.641-.033-7.389-.2-15.421-3.454-22.211a16.944,16.944,0,0,0-2.042-3.24c-.334-.417-.912.173-.584.584,2.349,2.933,3.46,6.67,4.164,10.3a70.169,70.169,0,0,1,1.058,11.8c.1,4.432-.167,8.837.292,13.26.271,2.614.677,5.213,1.055,7.815a44.987,44.987,0,0,1,.459,6.2c.027,3.305-.03,7.108,2.048,9.886s5.854,3.6,9.108,3.106a14.469,14.469,0,0,0,9.025-5.511,9.444,9.444,0,0,0,1.937-5.839,15.573,15.573,0,0,0-1.612-6.015c-.957-2.2-2.1-4.319-2.861-6.6a49.711,49.711,0,0,1-1.562-7.04,35.986,35.986,0,0,0-1.8-6.971,22.844,22.844,0,0,0-3.323-5.383c-1.282-1.666-2.635-3.273-3.779-5.04a19.26,19.26,0,0,1-2.367-5.791c-.855-3.246-2.206-6.4-4.983-8.444a11.244,11.244,0,0,0-3.085-1.526,10.651,10.651,0,0,0-2.447-.316c-1.094-.1-3.41-.137-2.629,1.607.218.486.927.066.712-.417h0Z" transform="translate(-319.181 -322.996)" fill="#231f20"/>
      </g>
      <g id="그룹_17" data-name="그룹 17" transform="translate(188.21 302.432)">
        <path id="패스_134" data-name="패스 134" d="M230.895,371.937c-8.688-7.863-4.965-19.445,0-27.722,2.9-4.965,4.137-9.517,5.38-14.894.829-4.966,2.483-9.517,7.863-10.342,14.894-2.483,18.619,16.548,20.273,26.893,1.285,8.029,1.77,19.692-4.447,25.96-6.751,6.8-21.892,5.848-29.066.107Z" transform="translate(-225.278 -318.354)" fill="#fff"/>
        <path id="패스_135" data-name="패스 135" d="M230.233,370.693a15.293,15.293,0,0,1-5.064-10.524,25.373,25.373,0,0,1,2.334-11.263c1.642-3.875,4.059-7.329,5.585-11.266a56.273,56.273,0,0,0,2.027-6.626c.5-1.982.8-4.015,1.38-5.976a10.782,10.782,0,0,1,2.5-4.551,8.14,8.14,0,0,1,4.989-2.164,12.3,12.3,0,0,1,8.342,1.845c4.912,3.219,7.2,9.493,8.682,14.893a75.592,75.592,0,0,1,2.831,18.682c.1,7.326-1.55,15.713-8.652,19.355-3.9,2-8.554,2.39-12.858,1.988a23.149,23.149,0,0,1-12.1-4.393c-.414-.325-1,.253-.584.584,5.338,4.214,12.947,5.413,19.543,4.489a18.669,18.669,0,0,0,9.117-3.7,16.926,16.926,0,0,0,5.338-8.956c1.842-6.831.966-14.142-.247-21-1.016-5.746-2.411-11.639-5.353-16.732a17.568,17.568,0,0,0-5.439-6.009,12.856,12.856,0,0,0-8.038-1.928,10.545,10.545,0,0,0-4.852,1.413,8.8,8.8,0,0,0-3.07,3.541,18.777,18.777,0,0,0-1.568,4.98c-.435,2.241-.992,4.462-1.642,6.652a43.687,43.687,0,0,1-2.083,5.621c-.775,1.711-1.747,3.305-2.656,4.945a37.754,37.754,0,0,0-3.657,9,20.742,20.742,0,0,0-.337,9.3,15.891,15.891,0,0,0,4.945,8.375C230.04,371.638,230.627,371.053,230.233,370.693Z" transform="translate(-224.324 -317.402)" fill="#231f20"/>
      </g>
      <g id="그룹_18" data-name="그룹 18" transform="translate(199.149 337.099)">
        <path id="패스_136" data-name="패스 136" d="M273.229,437.868c2.811,3.279-2.548,6.068-5.168,6.429C256.389,445.913,265.187,428.495,273.229,437.868Z" transform="translate(-262.002 -434.675)" fill="#333"/>
        <path id="패스_137" data-name="패스 137" d="M271.959,437.2c2.444,2.992-2.665,5.436-5.058,5.749-1.83.238-4.349.063-4.942-2.054-.462-1.645.465-3.487,1.565-4.661a4.94,4.94,0,0,1,5.222-1.428,7.7,7.7,0,0,1,3.213,2.393c.352.4.933-.185.584-.584-1.523-1.747-3.63-3.18-6.05-2.855a6.449,6.449,0,0,0-4.432,3.013,5.365,5.365,0,0,0-.751,4.769c.772,1.887,2.882,2.372,4.733,2.307,3.3-.119,9.764-3.237,6.5-7.234-.337-.411-.918.176-.584.584Z" transform="translate(-261.024 -433.715)" fill="#231f20"/>
      </g>
      <path id="패스_138" data-name="패스 138" d="M316.5,403.191c-1.994.1-2.107,2.337-1.639,3.833a.419.419,0,0,0,.507.289,2.512,2.512,0,0,0,.927-4.48.414.414,0,0,0-.566.149,7.47,7.47,0,0,0-.471,3.106.418.418,0,0,0,.706.292,2.179,2.179,0,0,0,.534-1.532.413.413,0,0,0-.826,0,1.244,1.244,0,0,1-.292.948c.235.1.471.194.706.292a6.515,6.515,0,0,1,.358-2.688c-.188.051-.376.1-.566.149a1.682,1.682,0,0,1-.73,2.969c.17.1.34.194.507.289-.283-.9-.522-2.724.844-2.787.531-.024.534-.852,0-.826h0Z" transform="translate(-99.505 -74.898)" fill="#231f20"/>
      <path id="패스_139" data-name="패스 139" d="M252.847,400.557a4.19,4.19,0,0,0-1.362,2.775.415.415,0,0,0,.522.4,2.12,2.12,0,0,0,1.311-1.067,4.288,4.288,0,0,0,.232-1.812.417.417,0,0,0-.414-.414h-.829a.411.411,0,0,0-.358.206,6.246,6.246,0,0,0-.471,2.691.417.417,0,0,0,.414.414,1.907,1.907,0,0,0,1.881-1.231,2.438,2.438,0,0,0-.763-2.369.416.416,0,0,0-.584,0,3.66,3.66,0,0,0-.948,2.361c-.021.534.8.531.826,0a2.772,2.772,0,0,1,.706-1.776h-.584c.769.814.867,2.146-.536,2.191l.414.414a5.281,5.281,0,0,1,.358-2.274l-.358.206h.829l-.414-.414c0,.9.033,1.732-.939,2.083.173.134.349.265.522.4a3.34,3.34,0,0,1,1.121-2.191c.37-.382-.212-.966-.584-.584h0Z" transform="translate(-55.175 -72.97)" fill="#231f20"/>
      <path id="패스_140" data-name="패스 140" d="M275.022,468.468c-.021,2.909-.456,6.271,2.557,7.883,2.068,1.109,5.258.894,6.837-.972.343-.4-.238-.992-.584-.584-1.374,1.624-4.027,1.723-5.836.843-2.73-1.326-2.164-4.682-2.146-7.171a.413.413,0,0,0-.826,0h0Z" transform="translate(-71.678 -120.73)" fill="#231f20"/>
      <g id="그룹_19" data-name="그룹 19" transform="translate(196.18 296.076)">
        <path id="패스_141" data-name="패스 141" d="M271.849,311.666a5.387,5.387,0,0,1-.292,2.2c-1.466,2.495-4.107,1.32-5.723.146-1.32-.879-1.32-.441-2.495.587a5.451,5.451,0,0,1-2.787,1.32c-1.174-.146-6.018-3.374-3.961-4.548-2.2-.146-4.11-1.174-3.961-3.523,0-1.615,1.32-4.4,3.374-3.523,0-2.495.441-5.281,3.374-5.577,2.054-.292,4.4,2.2,5.869.879,1.028-1.028,1.615-2.495,3.374-1.908,1.466.441,1.32,1.32,1.761,2.495.441,1.32.879.292,2.2-.292a3.272,3.272,0,0,1,3.082,0c1.908,1.028,1.174,4.4.441,6.018V305.8c1.615-.441,2.936,2.054,2.495,3.374-.587,2.2-4.256,2.495-6.164,1.908,0,.292-.292.733-.292,1.028l-.292-.441Z" transform="translate(-252.158 -297.138)" fill="#fff"/>
        <path id="패스_142" data-name="패스 142" d="M270.3,310.6c0,1.267-.134,2.575-1.484,3.1a3.422,3.422,0,0,1-2.629-.39,18.024,18.024,0,0,0-2.2-1.246c-.659-.215-1.2.343-1.627.748-.641.608-2.08,1.83-3.043,1.547a6.391,6.391,0,0,1-1.595-.844c-.5-.328-3.1-2.128-2.006-2.823a.453.453,0,0,0-.227-.838c-1.848-.152-3.577-.984-3.511-3.073.045-1.437,1.016-3.755,2.8-3.088a.452.452,0,0,0,.569-.432,7.384,7.384,0,0,1,.814-3.913c.855-1.386,2.6-1.389,3.955-.894,1.139.414,2.235,1.109,3.493.891,1.311-.227,1.645-1.988,2.9-2.349a1.749,1.749,0,0,1,1.97,1.085,15.2,15.2,0,0,0,.575,1.687c.548,1.109,1.794-.066,2.411-.408,1.463-.811,3.368-.5,3.782,1.276a6.813,6.813,0,0,1-.641,4.012c.28.075.557.152.838.227v-.146c-.11.143-.221.289-.331.432.96-.194,1.595.79,1.872,1.568a1.962,1.962,0,0,1-.665,2.295,5.9,5.9,0,0,1-4.873.554.453.453,0,0,0-.554.313c-.057.358-.235.671-.292,1.028-.089.566.775.811.867.238.057-.358.235-.671.292-1.028l-.554.313c2.06.593,5,.411,6.366-1.449,1.32-1.794-.4-5.168-2.7-4.7a.45.45,0,0,0-.331.432v.146c0,.417.65.653.838.227,1.007-2.289,1.66-6.325-1.621-7.022a3.878,3.878,0,0,0-2.3.3,7.467,7.467,0,0,0-1.049.575c-.382.25-.516.575-.7.083a8.576,8.576,0,0,0-.721-1.928,2.774,2.774,0,0,0-1.848-1c-1.565-.289-2.393,1.18-3.317,2.14-.593.617-1.756.045-2.384-.215a9.59,9.59,0,0,0-2.3-.778,3.884,3.884,0,0,0-3.752,1.639,7.786,7.786,0,0,0-.936,4.366c.191-.143.379-.289.569-.432-2.292-.855-3.687,1.7-3.925,3.606-.346,2.769,1.952,4.119,4.393,4.322-.075-.28-.152-.557-.227-.837-1.538.978-.2,2.587.748,3.425,1.249,1.1,2.921,2.375,4.632,1.7a9.746,9.746,0,0,0,1.827-1.118c.477-.325.9-1.189,1.547-.885a19.391,19.391,0,0,0,3.01,1.55,3.328,3.328,0,0,0,2.867-.462c1.18-.849,1.305-2.182,1.308-3.526a.45.45,0,0,0-.9,0h0Z" transform="translate(-251.064 -296.076)" fill="#231f20"/>
      </g>
    </g>
    <g id="고양이" transform="translate(624.638 1903.459) rotate(-8)">
      <path id="패스_143" data-name="패스 143" d="M199.722,331.444a42.882,42.882,0,0,1-15.564,1.343A32.518,32.518,0,0,1,170.372,329c-4.463-2.543-8.109-6.657-9.148-11.777a47.758,47.758,0,0,1,.094-18.145,51.04,51.04,0,0,1,7.666-18.811h-.832q1.234,2.179,2.469,4.355a35.666,35.666,0,0,0,2.188,3.75,3.706,3.706,0,0,0,2.924,1.491c1.682.144,3.375.22,5.058.327l10.047.647,5.118.329a12.358,12.358,0,0,0,4.134.01c1.366-.4,1.909-1.7,2.516-2.866q1.309-2.508,2.62-5.014l-.757.1a42.545,42.545,0,0,1,8.7,22.28c.6,6.879-.143,14.736-4.808,20.192a18.884,18.884,0,0,1-8.645,5.576c-.587.191-.335,1.121.256.928A19.637,19.637,0,0,0,213,319.166c2.338-7.682,1.495-16.5-1.1-24.006a43.4,43.4,0,0,0-6.753-12.447.484.484,0,0,0-.757.1l-2.535,4.852a7.213,7.213,0,0,1-1.366,2.236,3.381,3.381,0,0,1-2.452.439c-3.856-.216-7.709-.5-11.563-.745l-5.686-.366-2.843-.183a17.989,17.989,0,0,1-2.882-.235c-1.7-.4-2.469-2.652-3.25-4.028q-1.419-2.5-2.835-5a.488.488,0,0,0-.832,0,51.918,51.918,0,0,0-8.184,35.747,17.741,17.741,0,0,0,3.109,8.256,21.223,21.223,0,0,0,5.022,4.921,30.321,30.321,0,0,0,13.732,4.819,51.2,51.2,0,0,0,8.4.306,37.967,37.967,0,0,0,9.747-1.454c.589-.183.339-1.113-.256-.928Z" transform="translate(-15.454)"/>
      <path id="패스_144" data-name="패스 144" d="M391.866,323.807a16.414,16.414,0,0,0-.522,2.974.492.492,0,0,0,.354.464,4.852,4.852,0,0,0,2.579.285.484.484,0,0,0,.337-.593,13.454,13.454,0,0,0-1.606-3.1c-.208-.3-.811-.333-.88.116a7.3,7.3,0,0,0,.212,3.263.487.487,0,0,0,.707.287c.414-.239.813-.6.711-1.125a.773.773,0,0,0-.942-.618c-.89.291-.189,1.739.641,1.092.489-.379-.2-1.057-.682-.682l-.067.052.468-.123c.06.064.119.127.179.189-.046.114-.094.227-.141.341l.067-.064-.341.141c-.131-.15-.258-.162-.383-.037.235.1.472.193.707.287a6.158,6.158,0,0,1-.212-2.751l-.88.116a12.535,12.535,0,0,1,1.51,2.87c.112-.2.223-.395.337-.593a3.938,3.938,0,0,1-2.067-.285c.117.154.235.31.354.464a14.948,14.948,0,0,1,.487-2.718.482.482,0,0,0-.928-.256h0Z" transform="translate(-202.657 -35.457)"/>
      <path id="패스_145" data-name="패스 145" d="M194.788,311.757,193.351,314a.483.483,0,0,0,.173.659,4.983,4.983,0,0,0,2.986.349.49.49,0,0,0,.337-.593,10.211,10.211,0,0,0-.994-2.46.49.49,0,0,0-.757-.1,1.476,1.476,0,0,0-.62,1.312.916.916,0,0,0,.971.767.482.482,0,0,0,0-.963,1.636,1.636,0,0,0-1.593.824.5.5,0,0,0,.075.584,1.173,1.173,0,0,0,.984.395c.614-.044.62-1.007,0-.963a.246.246,0,0,1-.3-.114l.075.584a.705.705,0,0,1,.761-.349v-.963c-.044.006.293-.4.329-.435l-.757-.1a9.126,9.126,0,0,1,.9,2.229c.112-.2.223-.395.337-.593a3.849,3.849,0,0,1-2.244-.252l.173.659,1.437-2.24c.335-.524-.5-1.007-.832-.485h0Z" transform="translate(-42.751 -25.818)"/>
      <path id="패스_146" data-name="패스 146" d="M371.409,393.706a2.161,2.161,0,0,0,.917,2.554.487.487,0,0,0,.584-.075,3.3,3.3,0,0,0,.033-4.432.489.489,0,0,0-.757.1,5.157,5.157,0,0,0-.337,5.711.489.489,0,0,0,.757.1,3.333,3.333,0,0,0,.008-4.891.488.488,0,0,0-.757.1,3.083,3.083,0,0,0,.455,3.689.487.487,0,0,0,.682,0,1.752,1.752,0,0,0,.208-2.209.491.491,0,0,0-.757-.1,2.047,2.047,0,0,0-.472,2.558c.206.412.738.231.88-.116a3.382,3.382,0,0,0,.2-1.892c-.077-.543-.953-.4-.946.127,0,.268.008.534.012.8a.482.482,0,0,0,.963,0c0-.268-.008-.534-.012-.8l-.946.127a2.469,2.469,0,0,1-.2,1.379l.88-.116a1.082,1.082,0,0,1,.322-1.391l-.757-.1a.75.75,0,0,1-.058,1.044h.682a2.09,2.09,0,0,1-.3-2.521l-.757.1a2.361,2.361,0,0,1-.008,3.527l.757.1a4.22,4.22,0,0,1,.337-4.738l-.757.1a2.311,2.311,0,0,1-.033,3.07l.584-.075a1.185,1.185,0,0,1-.476-1.466c.195-.589-.736-.844-.928-.256h0Z" transform="translate(-186.349 -90.477)"/>
      <path id="패스_147" data-name="패스 147" d="M221.979,393.706a2.161,2.161,0,0,0,.917,2.554.487.487,0,0,0,.584-.075,3.3,3.3,0,0,0,.033-4.432.489.489,0,0,0-.757.1,5.157,5.157,0,0,0-.337,5.711.489.489,0,0,0,.757.1,3.333,3.333,0,0,0,.008-4.891.488.488,0,0,0-.757.1,3.083,3.083,0,0,0,.455,3.689.487.487,0,0,0,.682,0,1.752,1.752,0,0,0,.208-2.209.491.491,0,0,0-.757-.1,2.047,2.047,0,0,0-.472,2.558c.206.412.738.231.88-.116a3.381,3.381,0,0,0,.2-1.892c-.077-.543-.953-.4-.946.127l.012.8a.482.482,0,0,0,.963,0l-.012-.8-.946.127a2.469,2.469,0,0,1-.2,1.379l.88-.116a1.082,1.082,0,0,1,.322-1.391l-.757-.1a.75.75,0,0,1-.058,1.044h.682a2.09,2.09,0,0,1-.3-2.521l-.757.1a2.361,2.361,0,0,1-.008,3.527l.757.1a4.22,4.22,0,0,1,.337-4.738l-.757.1a2.311,2.311,0,0,1-.033,3.07l.584-.075a1.185,1.185,0,0,1-.476-1.466c.195-.589-.736-.844-.928-.256h0Z" transform="translate(-65.703 -90.477)"/>
      <path id="패스_148" data-name="패스 148" d="M294.268,427.618c-1.019-.822-2.128.613-1.266,1.533.963,1.027,2.781.52,3.552-.474.865-1.115-.765-2.125-1.818-2.013A1.7,1.7,0,0,0,293.4,429.1a1.464,1.464,0,0,0,2.548.358c.742-.953.254-2.577-1.133-2.381-1.136.162-1.244,2.005-.023,2.026,1.088.019,1.173-1.643.241-1.974-1.506-.535-2.35,2.015-.88,2.6,1.235.487,1.872-1.547.64-1.8a.505.505,0,0,0-.543.221,1.151,1.151,0,0,0-.017,1.352.507.507,0,0,0,.543.222c1.614-.256.628-3.1-1-1.959a1.552,1.552,0,0,0-.3,2.184,2.548,2.548,0,0,0,2.452.984c1.737-.256,2.749-2.687,1.094-3.775a2.843,2.843,0,0,0-4.018,1.7,1.393,1.393,0,0,0,1.52,1.7c1.094-.062,1.649-1.094,1.932-2.021a.5.5,0,0,0-.337-.593c-.886-.356-2.425.46-1.809,1.524.218.376.738.861,1.21.765.609-.121,1.163-.963,1.414-1.462.277-.553-.553-1.04-.832-.485a2.554,2.554,0,0,1-.953,1.067h.485c-.212-.092-.561-.2-.4-.431.119-.171.482-.108.628-.05-.112-.2-.223-.395-.337-.593a2.014,2.014,0,0,1-.686,1.188.513.513,0,0,1-.747-.075c-.241-.283-.121-.5.069-.78a2.017,2.017,0,0,1,2.011-.794c1.04.285.842,1.632.01,2.04a1.617,1.617,0,0,1-1.475-.073,1.217,1.217,0,0,1-.51-.5l-.069-.449q.829-.4.395-.039l.543.222.017-.379-.543.222c-.453-.092-.1-.755.247-.813.385-.064.6.131.555.5a.545.545,0,0,1-1.038.223c-.618-1.179,1.161-1.52,1.66-.46v-.485a1.773,1.773,0,0,1-1.052.848,1.665,1.665,0,0,1-.524.065c-.482-.023-.46-.164-.8-.439.478.385,1.163-.291.682-.682h0Z" transform="translate(-123.009 -118.772)"/>
      <path id="패스_149" data-name="패스 149" d="M269.5,445.578a3.929,3.929,0,0,0,4.611,4.871c3.038-.653,3.5-4.164,3.612-6.732.027-.636-.884-.593-.963,0-.322,2.406-.389,6.988,2.423,8.1a3.18,3.18,0,0,0,3.4-.93,6.982,6.982,0,0,0,1.489-4.118c.075-.614-.89-.609-.963,0a5.931,5.931,0,0,1-1.206,3.436,2.07,2.07,0,0,1-3.078.212c-1.524-1.6-1.37-4.7-1.1-6.705h-.963c-.079,1.859-.208,4.361-1.994,5.447a2.956,2.956,0,0,1-4.338-3.33.482.482,0,0,0-.928-.256h0Z" transform="translate(-104.184 -132.175)"/>
      <path id="패스_150" data-name="패스 150" d="M262.782,331.39a14.647,14.647,0,0,0-.085,6.11c.247,1.194.959,2.758,2.431,2.6,1.445-.16,1.98-1.874,2.242-3.061a16.121,16.121,0,0,0,.085-6.378.483.483,0,0,0-.707-.287,10.346,10.346,0,0,1-3.088,1.51l.468.805a1.466,1.466,0,0,1,1.185-.412l-.341-.822a7.48,7.48,0,0,0-1.791,3.354.485.485,0,0,0,.805.468q1.439-1.546,2.88-3.09l-.682-.682a9.853,9.853,0,0,0-2.331,5.143c-.067.5.587.892.88.372q1.04-1.855,2.082-3.708c-.293-.123-.587-.247-.88-.372q-.939,2.424-1.876,4.846c-.2.507.638.857.88.372q.994-1.979,1.986-3.96l-.9-.243a11.614,11.614,0,0,1-1.737,5.391l.757-.1c-1.784-2.31-1.131-5.511-.543-8.125l-.946-.127c-.006,1.015-.092,2.067-.008,3.08a1.274,1.274,0,0,0,.861,1.264c1.539.364,2.267-2.672,2.556-3.652l-.946-.127a10.867,10.867,0,0,1-1.185,6.434l.659-.173a.762.762,0,0,1-.4-.668c-.1-.611-1.029-.351-.928.256a1.725,1.725,0,0,0,.848,1.242.485.485,0,0,0,.659-.173,11.75,11.75,0,0,0,1.318-6.921.484.484,0,0,0-.946-.127c-.116.389-1.011,3.205-1.506,2.77-.171-.15-.025-1.2-.023-1.439l.012-1.766a.484.484,0,0,0-.946-.127c-.68,3.026-1.244,6.428.792,9.063a.486.486,0,0,0,.757-.1,12.683,12.683,0,0,0,1.87-5.877.485.485,0,0,0-.9-.243q-.994,1.979-1.986,3.96c.293.123.587.247.88.372q.939-2.424,1.876-4.846c.2-.514-.618-.838-.88-.372q-1.04,1.855-2.082,3.708c.293.123.587.247.88.372a8.982,8.982,0,0,1,2.084-4.719c.4-.466-.254-1.14-.682-.682q-1.439,1.546-2.88,3.09l.805.468a6.454,6.454,0,0,1,1.545-2.928.488.488,0,0,0-.341-.823,2.353,2.353,0,0,0-1.867.693.485.485,0,0,0,.468.805,11.094,11.094,0,0,0,3.317-1.606c-.235-.1-.472-.193-.707-.287a15.067,15.067,0,0,1,.146,4.5c-.121,1.005-.3,3.092-1.36,3.633-1.418.722-1.78-2.15-1.863-2.91a13.848,13.848,0,0,1,.26-4.49c.133-.6-.8-.863-.928-.256h0Z" transform="translate(-98.564 -40.978)"/>
      <path id="패스_151" data-name="패스 151" d="M302.608,335.063a11.306,11.306,0,0,0-.308,6.36c.356,1.248,1.318,2.649,2.8,2.36,1.547-.3,2.061-2.157,2.414-3.459a8,8,0,0,0-.054-5.638.486.486,0,0,0-.88.116,46.578,46.578,0,0,1-2.2,6.4c.293.123.587.247.88.372q.621-3.008,1.244-6.017a.484.484,0,0,0-.88-.372l-2.415,3.779.832.485a7.876,7.876,0,0,0,.909-3.14c.023-.283-.241-.451-.482-.482a1.444,1.444,0,0,0-1.294.458l.757.584a3.155,3.155,0,0,0,.252-2.021c-.1-.509-.78-.4-.928,0-.942,2.581-1.78,6.227,1.163,7.882a.485.485,0,0,0,.707-.287,52.735,52.735,0,0,0,.73-6.938.488.488,0,0,0-.823-.341c-1.7,1.579-1.9,3.96-1.972,6.147a.487.487,0,0,0,.822.341,6.711,6.711,0,0,0,1.52-5.447.484.484,0,0,0-.805-.212,7.919,7.919,0,0,0-1.662,3.54h.928a4.291,4.291,0,0,1,.932-3.849l-.822-.341a20.6,20.6,0,0,1-.16,3.215c-.071.555.794.628.946.127A5.42,5.42,0,0,1,306,336.5c-.268-.071-.537-.143-.805-.212a7.241,7.241,0,0,1-.478,6.449c-.273.462.383,1,.757.584a7.788,7.788,0,0,0,1.826-7.063c-.133-.564-.894-.381-.946.127a14.932,14.932,0,0,1-2.057,6.185h.832c-1.275-2.161-.054-4.715.988-6.711l-.543.222.609.241c.085-.31.171-.618.256-.928l-.817-.148c-.607-.11-.867.819-.256.928l.817.148a.482.482,0,0,0,.256-.928l-.609-.241a.48.48,0,0,0-.543.222c-1.217,2.329-2.462,5.187-.988,7.684a.487.487,0,0,0,.832,0,16.059,16.059,0,0,0,2.188-6.67l-.946.127a6.781,6.781,0,0,1-1.578,6.127l.757.584a8.152,8.152,0,0,0,.574-7.191.487.487,0,0,0-.805-.212,6.547,6.547,0,0,0-1.489,2.6l.946.127a20.608,20.608,0,0,0,.16-3.215.487.487,0,0,0-.823-.341,5.314,5.314,0,0,0-1.181,4.787.485.485,0,0,0,.928,0,6.982,6.982,0,0,1,1.414-3.115c-.268-.071-.537-.143-.805-.212a5.647,5.647,0,0,1-1.271,4.509l.823.341c.069-1.928.187-4.066,1.691-5.467l-.822-.341a50.865,50.865,0,0,1-.7,6.682c.235-.1.472-.193.707-.287-2.514-1.414-1.5-4.665-.72-6.8h-.928a1.992,1.992,0,0,1-.154,1.279.484.484,0,0,0,.757.584l.614-.177-.482-.482a6.621,6.621,0,0,1-.778,2.654.482.482,0,0,0,.832.485l2.415-3.779c-.293-.123-.587-.247-.88-.372q-.621,3.008-1.244,6.017c-.1.5.653.9.88.372a48.178,48.178,0,0,0,2.3-6.624l-.88.116a6.37,6.37,0,0,1,.119,4.267c-.245,1.021-.559,3.007-1.735,3.355-1.466.433-1.9-1.89-1.994-2.862a11.448,11.448,0,0,1,.522-4.611c.189-.591-.742-.846-.928-.256h0Z" transform="translate(-130.501 -44.327)"/>
      <path id="패스_152" data-name="패스 152" d="M342.2,337.978a14.512,14.512,0,0,0-.578,6.227c.189,1.452.73,3.251,2.56,3.024,1.641-.2,2.342-1.89,2.687-3.3a12.577,12.577,0,0,0-.089-6.187.484.484,0,0,0-.946.127,24.114,24.114,0,0,1-1.824,7.662l.946.127a14.7,14.7,0,0,1,1.106-6.53l-.928-.256q-.76,2.28-1.518,4.557l.928.256q.7-2.736,1.4-5.472a.485.485,0,0,0-.805-.468,7.591,7.591,0,0,0-2.392,4.193.484.484,0,0,0,.88.372,13.437,13.437,0,0,0,1.491-3.914.488.488,0,0,0-.593-.593,2.557,2.557,0,0,0-1.814,2.005.484.484,0,0,0,.88.372,2.156,2.156,0,0,0,.008-2.277.487.487,0,0,0-.88.116,10.765,10.765,0,0,0,.47,8.107.486.486,0,0,0,.88-.116,17.087,17.087,0,0,0,.177-4.9.484.484,0,0,0-.946-.127,7.442,7.442,0,0,0,.349,5.095c.2.46.892.2.9-.243a4.727,4.727,0,0,1,.522-2.163c-.293-.123-.587-.247-.88-.372q-.4,1.274-.8,2.55a.486.486,0,0,0,.707.543,5.75,5.75,0,0,0,2.433-6.7c-.2-.584-1.129-.333-.928.256a4.781,4.781,0,0,1-1.99,5.607l.707.543q.4-1.274.8-2.55a.484.484,0,0,0-.88-.372,5.84,5.84,0,0,0-.653,2.649l.9-.243a6.4,6.4,0,0,1-.25-4.351l-.946-.127a16.2,16.2,0,0,1-.143,4.648l.88-.116a9.78,9.78,0,0,1-.374-7.366l-.88.116a1.218,1.218,0,0,1-.008,1.3c.293.123.587.247.88.372a1.614,1.614,0,0,1,1.14-1.333l-.593-.593a12.637,12.637,0,0,1-1.393,3.683c.293.123.587.247.88.372a6.718,6.718,0,0,1,2.146-3.77l-.805-.468q-.7,2.736-1.4,5.472a.482.482,0,0,0,.928.256q.76-2.28,1.518-4.557c.2-.6-.7-.813-.928-.256a15.324,15.324,0,0,0-1.14,6.784.484.484,0,0,0,.946.127,24.945,24.945,0,0,0,1.859-7.919l-.946.127a11.779,11.779,0,0,1,.337,4.286c-.137,1.246-.46,3.465-1.861,3.93-1.813.6-1.843-2.508-1.863-3.556a13.849,13.849,0,0,1,.661-4.425c.185-.593-.743-.846-.928-.256h0Z" transform="translate(-162.423 -46.707)"/>
      <path id="패스_153" data-name="패스 153" d="M422.161,451.385a7.522,7.522,0,0,1,5.4.123c.576.229.826-.7.256-.928a8.357,8.357,0,0,0-5.911-.123c-.582.2-.331,1.135.256.928Z" transform="translate(-227.066 -137.6)"/>
      <path id="패스_154" data-name="패스 154" d="M422.018,471.9A7.516,7.516,0,0,1,427,473.91c.455.42,1.138-.26.682-.682a8.547,8.547,0,0,0-5.661-2.288.482.482,0,0,0,0,.963h0Z" transform="translate(-227.05 -154.526)"/>
      <path id="패스_155" data-name="패스 155" d="M419.091,488.412a5.835,5.835,0,0,1,3.2,2.778c.293.547,1.125.06.832-.485a6.839,6.839,0,0,0-3.773-3.221c-.586-.208-.836.722-.256.928h0Z" transform="translate(-224.795 -167.859)"/>
      <path id="패스_156" data-name="패스 156" d="M140.915,441.346a8.408,8.408,0,0,1,6.514.017c.564.241,1.056-.589.485-.832a9.349,9.349,0,0,0-7.258-.114c-.566.229-.32,1.161.256.928h0Z" transform="translate(0 -129.336)"/>
      <path id="패스_157" data-name="패스 157" d="M152.911,457.078a7.763,7.763,0,0,1,4.245-1.108.482.482,0,0,0,0-.963,8.738,8.738,0,0,0-4.733,1.239.482.482,0,0,0,.485.832h0Z" transform="translate(-9.573 -141.66)"/>
      <path id="패스_158" data-name="패스 158" d="M154.73,472.08a12.919,12.919,0,0,1,5.212-2.5c.6-.141.349-1.069-.256-.928a14.008,14.008,0,0,0-5.638,2.751c-.483.387.2,1.065.682.682h0Z" transform="translate(-10.937 -152.665)"/>
    </g>
  </g>
</svg>
