<svg xmlns="http://www.w3.org/2000/svg" width="58.635" height="60.417" viewBox="0 0 58.635 60.417">
  <g id="campain04" transform="translate(-74.916 -118.589) rotate(-5)">
    <g id="그룹_20" data-name="그룹 20" transform="translate(75.135 138.416)">
      <path id="패스_159" data-name="패스 159" d="M176.91,246.955l.119-.091C177.016,246.855,176.981,246.874,176.91,246.955Z" transform="translate(-176.336 -245.944)" fill="#1c1d1d"/>
      <path id="패스_160" data-name="패스 160" d="M364.9,243.882l.028-.022C364.908,243.873,364.9,243.878,364.9,243.882Z" transform="translate(-344.043 -243.266)" fill="#1c1d1d"/>
      <path id="패스_161" data-name="패스 161" d="M213.565,254.882l0,0a.075.075,0,0,0-.022-.009Z" transform="translate(-209.014 -253.088)" fill="#1c1d1d"/>
      <path id="패스_162" data-name="패스 162" d="M172.684,241.02a1.272,1.272,0,0,1,.548-1.076,2.678,2.678,0,0,1,1.245-.367,2.6,2.6,0,0,1,1.662.564.657.657,0,0,1,.149.087c.031.013.04.017.066.2.011.086.021.194.047.323a1.273,1.273,0,0,0,.128.365l0,.217a.813.813,0,0,1,.18.4h-.022c.1.112.085.3.117.386l-.022-.006c.008.07.012.143.014.219l-.029-.039a3.615,3.615,0,0,1-.04,1.081l.088-.024a2.463,2.463,0,0,0-.051.535,2.85,2.85,0,0,0,.092.525,2.479,2.479,0,0,0,.65,1l-.023.008a10.668,10.668,0,0,0,1.284.481,2.43,2.43,0,0,0,1.2.1c-.113.022.045.046.036.067.421-.005.837,0,.852-.169.287.017.227.068.259.135.005-.077.25-.087.45-.06l-.1.015c.1,0,.179.028.271.039l.334.074-.1-.169c.342.126.049.191.4.235l.019-.114c.484.122.753.336,1.233.468,1.008.126,2.042.027,2.989.07.5.017,1.008.047,1.539.017a6.875,6.875,0,0,0,.778-.095c.118-.018.227-.035.329-.042s.186,0,.332-.013l.108.071c.031.059.18-.013.33-.11s.292-.217.361-.187a2,2,0,0,0,.215-.2c.079-.026.223-.118.132,0a.809.809,0,0,0,.282-.35,2.438,2.438,0,0,0,.23-.175,2.156,2.156,0,0,0,.395-1.341c0-.413-.054-.773-.016-1.14.106-.461.166-1.124.313-1.736a3.287,3.287,0,0,1,.293-.815,2.115,2.115,0,0,1,.448-.568,1.174,1.174,0,0,1,.832-.311,2.37,2.37,0,0,1,.506.059,2.622,2.622,0,0,1,.482.154,3,3,0,0,1,1.069,1.44.213.213,0,0,0,.081.14,2.192,2.192,0,0,1,.093.561c.006.193-.008.408-.018.651,0,0-.006.114,0,.308a5.841,5.841,0,0,0,.068.751c.093.573.228,1.211.327,1.708s.181.837.328.755.367-.631.427-1.961l.032.03a10.192,10.192,0,0,0-.2-1.668c.177-.066.042-.655.055-.879l.016.018a5.076,5.076,0,0,1-.2-.781,1.565,1.565,0,0,0-.3-.716c.02.011.067,0,.122.1-.168-.336-.527-.736-.484-.82a2.751,2.751,0,0,0-.632-.515,2.762,2.762,0,0,0-2.048-.221l.038-.033c-.317.158-.441.093-.778.3-.025,0-.053,0-.052,0-.145.134-.366.283-.555.457a1.9,1.9,0,0,0-.4.488l-.065-.023a3.278,3.278,0,0,0-.319.635c.035-.078.079-.155.118-.232.127.151-.329.439-.326.947-.128.441.208.932.084,1.354.068.216-.123-.2-.083.123-.1,0-.047-.152-.129-.077.022.308-.132.516-.067.9l-.073.015c.139.5-.119.843-.084,1.1a.278.278,0,0,1-.2.248c-.074.025-.127.056-.215.24a.8.8,0,0,1-.167.006c-.122.055-.021.164-.2.182-.006-.059-.231.013-.145-.071a2.37,2.37,0,0,0-.35.035,3.586,3.586,0,0,0-.488.121,1.536,1.536,0,0,1-.888.076c-.141.127-.493.041-.614.124-.012-.052-.734-.063-.312-.147.037-.006.1,0,.092.021l.054-.069c-.4-.165-.767.009-1.217-.027.134.028.306.031.188.076l-.4-.024.083-.059-.578-.052.078.078c-.282-.047-.374-.178-.691-.084-.145.053.259.113-.036.124l-1.355-.271c.03.091-.091.069-.218.067l0-.076c-.49.013-.142-.187-.614-.209l.052-.041-.158.12a.512.512,0,0,1-.375-.091c-.081-.053-.174-.095-.471-.029.232.021.08.166-.175.118l.072-.066a1.209,1.209,0,0,1-.292.009c.087-.033.05-.1-.159-.1l.145-.082-.4.113c-.3-.086-.755-.013-.861-.124l-.311-.039a.918.918,0,0,0-.407.014c.121-.047-.172-.127-.07-.19-.141.049-.555,0-.585-.151l.024,0c-.152-.152-.23-.187-.292-.323a.843.843,0,0,1-.066-.249,1.493,1.493,0,0,1,.046-.408c-.088.024-.014-.3-.129-.231a5.635,5.635,0,0,1,.086-.939c.028-.284-.009-.545-.208-.654a3.559,3.559,0,0,1-.1-.6l.045.062a2.066,2.066,0,0,1-.193-.483c-.027-.123-.024-.263-.076-.544-.085-.218-.21-.295-.4-.5a1.334,1.334,0,0,1-.161-.17c.14.062.016-.071-.113-.173.085.06.128.067-.012-.109a.6.6,0,0,1-.121-.045c0-.005,0-.013,0-.016-.24-.14-.209-.095-.111-.016-.011,0-.009.021.013.056-.176-.25-.674-.374-.664-.483a3.442,3.442,0,0,0-2-.046c-.082-.041.06-.12.252-.16a3.163,3.163,0,0,0-.466.095c-.015-.084.261-.1.406-.132a1.589,1.589,0,0,0-.871.209c-.283.151-.544.328-.855.529l-.064.149-.038.023c.025.022-.041.173-.094.259-.1.046-.138-.1-.307.218a1.81,1.81,0,0,0-.216,1.082c.033-.176.065-.112.08-.036-.013.153-.09.24-.065.358l-.094.01c.088-.054.081.4.122.451-.071.084-.057-.23-.108-.27,0,.583,0,.291,0,.874.061.3.09-.052.167.094a1.962,1.962,0,0,1-.064.822l.1-.083a3.88,3.88,0,0,1-.209,1.164c.045.5.16.851.179,1.163a2.674,2.674,0,0,0,0,.63c.07.235.165.261.263.131a1.149,1.149,0,0,0,.333-.5,1.75,1.75,0,0,0,.107-.422c.01-.081.015-.129.015-.129.093-.777.151-1.257.221-1.845a6.346,6.346,0,0,0,.017-1.079c-.022-.367-.062-.75-.046-1.145Z" transform="translate(-171.59 -238.351)" fill="#1c1d1d"/>
    </g>
    <g id="그룹_21" data-name="그룹 21" transform="translate(75.857 152.836)">
      <path id="패스_163" data-name="패스 163" d="M178.85,412.112l.03-.052C178.865,412.062,178.85,412.074,178.85,412.112Z" transform="translate(-178.788 -407.738)" fill="#1c1d1d"/>
      <path id="패스_164" data-name="패스 164" d="M230.04,410.74l.008.017C230.044,410.745,230.042,410.741,230.04,410.74Z" transform="translate(-224.455 -406.56)" fill="#1c1d1d"/>
      <path id="패스_165" data-name="패스 165" d="M190.27,396.93v0l.009.011Z" transform="translate(-188.976 -394.24)" fill="#1c1d1d"/>
      <path id="패스_166" data-name="패스 166" d="M179.435,376.408a1.915,1.915,0,0,0,.127-.791,3.628,3.628,0,0,0,.032-.44,4.581,4.581,0,0,0-.023-.483c-.126-.132,0-.347-.1-.487l.073-.05c-.032-.047-.055-.106-.012-.146l.02,0c-.049-.072-.006-.139-.029-.174l.02.005,0-.073.027.017a.313.313,0,0,1-.016-.153c.005-.035.009-.029.028-.04l-.078-.039c.032-.008.043-.017.049-.032.005-.035,0-.126.088-.059l.008.021c.008-.12.053-.083.117-.038a.416.416,0,0,0,.418.01c-.045.025.017.045.013.066.167-.016.344-.034.341-.2.117,0,.1.05.115.114,0-.073.095-.11.183-.122l-.039.032.252-.051-.065-.134c.135.025.054.166.176.117l-.017-.114c.181,0,.312.155.494.213.337-.031.641-.128.91-.141s.4.078.358.233l-.081.039c-.06.023-.015.014.038.017s.107.043.051.057a.463.463,0,0,1,.065.049c-.021.019-.041.055-.073.03,0,.052.02.053.061.092l-.076.065c-.055.223.082.448.025.727a1.347,1.347,0,0,0-.122.688c0,.07.006.141.014.215a1.542,1.542,0,0,0,.037.236l.047.175c.014.03.027.043.039.067a.183.183,0,0,1,.029.2c-.036.088-.2.061-.269-.01-.1-.057-.025-.064-.3-.013-.015-.019-.065.016-.066.03l-.51-.069a3.02,3.02,0,0,0-.453-.01,1.459,1.459,0,0,0-.839.268l-.249.207.019.08c.053.217.19.318.491.1l-.054.068a3.839,3.839,0,0,1,.477.27l-.01.028a.626.626,0,0,0,.576-.037c.013.172.214.038.271.1l-.008.013a.24.24,0,0,1,.252.018.335.335,0,0,0,.3.029c-.01.013-.016.059-.079.057.2-.008.451-.018.494.078a1.07,1.07,0,0,0,.576-.154.644.644,0,0,0,.279-.476.534.534,0,0,0-.014-.148l.02.031c-.068-.193.021-.2-.026-.388.013-.006.019-.017.025-.014a.759.759,0,0,1-.065-.33.507.507,0,0,0-.022-.21l.066-.01a1.34,1.34,0,0,1-.017-.178l-.016.066c-.182-.016.118-.139.013-.295.035-.139-.347-.333-.244-.48-.077-.083.131.08.077-.039.095.005.054.058.132.037-.033-.114.114-.172.063-.316h.074c-.12-.19.121-.346-.009-.481-.063-.2.221-.141.061-.356l.09-.1c0-.1-.132-.055-.1-.174.067,0,0-.191.082-.121a.7.7,0,0,0-.245-.488c-.138-.142-.292-.257-.465-.437-.15.054-.307-.072-.392,0,0-.063-.354-.074-.135-.156.018-.008.051,0,.044.022l.04-.066c-.2-.178-.393.022-.569,0,.055.025.128.019.079.068l-.168-.009.032-.063-.248-.023.039.073c-.12-.03-.176-.153-.291-.031-.049.067.118.087,0,.126a2.873,2.873,0,0,0-.545-.07c.028.082-.016.085-.059.11l-.016-.072c-.158.126-.086-.151-.24-.05l.009-.053-.025.159c-.134.161-.093-.143-.236.068.063-.016.042.161-.042.134l.016-.072c-.043.017-.056.048-.086.035.025-.04.01-.1-.053-.091l.04-.091-.117.133c-.094-.076-.24.013-.262-.091.013,0-.215-.072-.295.033.06-.065-.091-.1-.042-.178a.988.988,0,0,1-.557.1l.021-.014a.877.877,0,0,0-.693.483,2.654,2.654,0,0,1-.19.284c.083.024-.042.2.079.194a1.025,1.025,0,0,1-.136.416c-.046.1-.052.188.11.255.008.122-.093.136-.113.2l-.016-.03a2.922,2.922,0,0,1,.008.448c.032.08.19.093.152.23-.063-.044-.051.012-.051.063-.01-.032-.032-.042-.074.024a.115.115,0,0,1,.041.037c-.005,0-.009,0-.015,0,.022.082.041.068.051.03a.051.051,0,0,0,.039-.013c-.08.091,0,.229-.107.227.006.23.092.439.119.659-.057.02-.1-.035-.118-.1l.009.16c-.08-.007-.04-.1-.052-.145-.143.183.1.4-.008.639l.065.046-.01.015c.032,0,.082.047.1.082-.063.044-.164.012-.133.173-.041.148.118.354.232.455-.029-.082.016-.078.052-.061.029.064.012.135.066.163l-.064.07c.033-.065.148.028.211.051a.076.076,0,0,0,.038,0c0,.033-.028.037-.062.03s-.082-.044-.11-.03a1.009,1.009,0,0,0,.079.07.95.95,0,0,0,.328.138c.183-.035,0-.088.107-.151.129.009.269-.05.386.01l-.036-.083a.463.463,0,0,1,.433.022c.655-.385.775-.595.669-.747a.905.905,0,0,0-.435-.192,1.14,1.14,0,0,0-.569-.022c-.109.015-.081.039-.1.064a.124.124,0,0,1-.078.055.077.077,0,0,1-.049-.009Z" transform="translate(-178.278 -372)" fill="#1c1d1d"/>
    </g>
    <g id="그룹_22" data-name="그룹 22" transform="translate(82.986 166.771)">
      <path id="패스_167" data-name="패스 167" d="M244.93,541.292l.03-.052C244.945,541.242,244.93,541.254,244.93,541.292Z" transform="translate(-244.867 -536.914)" fill="#1c1d1d"/>
      <path id="패스_168" data-name="패스 168" d="M296.12,539.92l.008.017C296.124,539.925,296.122,539.921,296.12,539.92Z" transform="translate(-290.534 -535.737)" fill="#1c1d1d"/>
      <path id="패스_169" data-name="패스 169" d="M256.35,526.12v0l.009.011Z" transform="translate(-255.055 -523.426)" fill="#1c1d1d"/>
      <path id="패스_170" data-name="패스 170" d="M245.506,505.562a1.916,1.916,0,0,0,.127-.791,3.634,3.634,0,0,0,.032-.44,4.588,4.588,0,0,0-.023-.483c-.126-.132,0-.347-.1-.487l.073-.05c-.032-.047-.055-.106-.012-.146l.021,0c-.049-.072-.006-.139-.029-.174l.02.005,0-.073.027.017a.316.316,0,0,1-.016-.154c.005-.035.009-.029.028-.04l-.078-.039c.032-.008.043-.017.049-.032.005-.035,0-.126.088-.059l.008.02c.008-.12.053-.083.117-.038a.416.416,0,0,0,.418.01c-.045.025.017.045.013.066.167-.016.344-.034.341-.2.115,0,.1.05.115.114,0-.073.095-.11.185-.122l-.039.031.252-.051-.065-.134c.135.025.054.166.176.116l-.017-.114c.181,0,.312.155.493.213.337-.031.641-.128.91-.141s.4.078.358.233l-.081.039c-.06.023-.015.014.038.017s.107.043.051.057a.46.46,0,0,1,.065.049c-.02.019-.041.055-.072.03,0,.052.021.053.062.091l-.076.065c-.055.223.082.448.025.727a1.348,1.348,0,0,0-.122.688c0,.07.006.141.014.215a1.536,1.536,0,0,0,.037.236l.047.175c.014.03.027.043.039.067a.183.183,0,0,1,.029.2c-.036.088-.2.062-.269-.01-.1-.057-.025-.064-.3-.013-.015-.019-.065.016-.066.03l-.51-.069a3.018,3.018,0,0,0-.453-.01,1.459,1.459,0,0,0-.839.268l-.249.207.019.08c.052.217.189.318.491.1l-.054.068a3.829,3.829,0,0,1,.477.27l-.01.028a.626.626,0,0,0,.576-.037c.013.172.214.038.271.1l-.008.013a.24.24,0,0,1,.252.018.335.335,0,0,0,.3.029c-.01.013-.016.059-.079.057.2-.008.451-.018.494.078a1.067,1.067,0,0,0,.576-.154.644.644,0,0,0,.279-.476.494.494,0,0,0-.015-.148l.021.031c-.068-.193.02-.2-.026-.388.013-.006.019-.017.025-.014a.743.743,0,0,1-.065-.33.506.506,0,0,0-.022-.21l.066-.01a1.343,1.343,0,0,1-.017-.178l-.016.066c-.182-.016.118-.139.013-.295.035-.139-.349-.333-.244-.48-.077-.083.131.08.077-.039.095.005.054.058.132.037-.033-.114.114-.172.063-.316H250c-.12-.19.121-.346-.009-.481-.063-.2.22-.141.061-.356l.09-.1c0-.1-.132-.055-.1-.174.067,0,0-.191.082-.121a.7.7,0,0,0-.245-.488c-.138-.142-.292-.257-.465-.437-.15.054-.308-.072-.392,0,0-.063-.354-.074-.135-.156.018-.008.051,0,.044.022l.04-.066c-.2-.178-.393.022-.569,0,.055.025.128.019.079.068l-.168-.009.032-.063-.248-.023.039.073c-.12-.03-.176-.153-.291-.031-.049.067.118.087,0,.126a2.878,2.878,0,0,0-.545-.07c.028.082-.016.085-.059.11l-.016-.072c-.158.126-.086-.151-.24-.05l.009-.053-.025.159c-.134.161-.093-.143-.237.068.063-.016.042.161-.042.134l.016-.072c-.043.017-.056.047-.086.035.025-.04.01-.1-.053-.091l.04-.09-.117.133c-.094-.076-.24.013-.262-.091.013,0-.215-.072-.295.033.062-.065-.091-.1-.042-.178a.988.988,0,0,1-.557.1l.02-.014a.878.878,0,0,0-.693.483,2.649,2.649,0,0,1-.19.284c.083.024-.043.2.079.194a1.025,1.025,0,0,1-.136.416c-.046.1-.052.188.11.255.006.122-.093.136-.113.2l-.016-.03a2.924,2.924,0,0,1,.008.448c.032.08.19.092.152.23-.063-.044-.051.012-.051.063-.01-.032-.032-.042-.074.024a.115.115,0,0,1,.041.037c-.005,0-.009,0-.015,0,.022.082.041.068.05.03a.051.051,0,0,0,.039-.013c-.08.091,0,.229-.107.227.006.23.093.439.119.659-.057.021-.1-.035-.118-.1l.009.16c-.08-.006-.04-.1-.052-.145-.144.183.1.4-.008.639l.066.046-.01.015c.032,0,.082.047.1.082-.063.044-.164.012-.133.173-.041.148.118.354.232.455-.029-.082.016-.078.052-.062.029.064.012.135.066.163l-.064.07c.033-.065.148.028.211.051a.076.076,0,0,0,.038,0c0,.033-.028.037-.061.03s-.082-.044-.11-.03a1.026,1.026,0,0,0,.079.07.96.96,0,0,0,.328.138c.183-.034,0-.088.107-.151.129.009.269-.05.386.01l-.036-.083a.463.463,0,0,1,.433.022c.655-.385.775-.594.669-.747a.906.906,0,0,0-.435-.192,1.141,1.141,0,0,0-.569-.022c-.109.015-.081.039-.1.064a.124.124,0,0,1-.078.055.077.077,0,0,1-.049-.009Z" transform="translate(-244.348 -501.15)" fill="#1c1d1d"/>
    </g>
    <g id="그룹_23" data-name="그룹 23" transform="translate(75.675 159.341)">
      <path id="패스_171" data-name="패스 171" d="M177.16,472.422l.03-.052C177.175,472.372,177.16,472.384,177.16,472.422Z" transform="translate(-177.098 -468.046)" fill="#1c1d1d"/>
      <path id="패스_172" data-name="패스 172" d="M228.36,471.05l.008.017C228.364,471.055,228.362,471.051,228.36,471.05Z" transform="translate(-222.774 -466.868)" fill="#1c1d1d"/>
      <path id="패스_173" data-name="패스 173" d="M188.58,457.24v0l.009.012Z" transform="translate(-187.286 -454.548)" fill="#1c1d1d"/>
      <path id="패스_174" data-name="패스 174" d="M177.746,436.7a1.916,1.916,0,0,0,.127-.791,3.63,3.63,0,0,0,.032-.44,4.586,4.586,0,0,0-.023-.483c-.126-.132,0-.347-.1-.487l.073-.05c-.032-.047-.055-.106-.012-.146l.021,0c-.049-.072-.006-.139-.029-.174l.021.005,0-.073.027.017a.312.312,0,0,1-.016-.153c.005-.035.009-.029.028-.04l-.078-.039c.032-.008.043-.017.049-.031.005-.035,0-.126.088-.059l.008.021c.008-.12.053-.083.117-.038a.416.416,0,0,0,.418.01c-.045.025.017.045.013.066.167-.016.344-.035.341-.2.117,0,.1.05.115.114,0-.073.095-.11.183-.122l-.039.031.252-.051-.065-.134c.135.025.054.166.176.117l-.017-.114c.181,0,.312.155.494.213.337-.031.641-.128.91-.141s.4.078.358.233l-.081.039c-.06.023-.015.014.038.017s.107.043.051.057a.463.463,0,0,1,.065.049c-.02.019-.041.055-.073.03,0,.052.021.053.062.091l-.076.065c-.055.223.082.448.025.727a1.348,1.348,0,0,0-.122.688c0,.07.006.141.014.215a1.536,1.536,0,0,0,.037.236l.047.175c.014.03.027.043.039.067a.183.183,0,0,1,.029.2c-.036.089-.2.061-.269-.01-.1-.057-.025-.064-.3-.013-.015-.019-.065.016-.066.03l-.51-.069a3.023,3.023,0,0,0-.453-.01,1.46,1.46,0,0,0-.839.268l-.249.207.019.08c.053.217.19.318.491.1l-.054.068a3.832,3.832,0,0,1,.477.27l-.01.028a.626.626,0,0,0,.576-.037c.013.172.214.038.271.1l-.008.013a.24.24,0,0,1,.252.018.335.335,0,0,0,.3.029c-.01.013-.016.059-.079.057.2-.008.451-.018.494.078a1.071,1.071,0,0,0,.576-.154.644.644,0,0,0,.279-.476.494.494,0,0,0-.015-.148l.02.031c-.068-.193.021-.2-.026-.388.013-.006.019-.017.025-.014a.759.759,0,0,1-.065-.33.506.506,0,0,0-.022-.21l.066-.01a1.338,1.338,0,0,1-.017-.178l-.016.066c-.182-.016.118-.139.013-.295.035-.139-.347-.333-.244-.48-.077-.083.131.08.077-.039.095.005.054.058.132.037-.033-.114.114-.172.063-.316h.074c-.12-.19.121-.346-.009-.481-.063-.2.22-.141.061-.356l.09-.1c0-.1-.132-.055-.1-.174.067,0,0-.191.082-.121a.7.7,0,0,0-.245-.488c-.138-.142-.292-.257-.465-.437-.15.054-.308-.072-.392,0,0-.063-.354-.075-.135-.156.018-.008.051,0,.044.022l.04-.066c-.2-.178-.393.022-.569,0,.055.025.128.019.079.068l-.168-.009.032-.063-.248-.023.039.073c-.12-.03-.176-.153-.291-.031-.049.067.118.087,0,.126a2.879,2.879,0,0,0-.545-.07c.028.082-.016.085-.059.11l-.016-.072c-.158.126-.086-.151-.24-.05l.009-.053-.025.159c-.134.161-.093-.143-.236.068.063-.016.042.161-.042.134l.016-.072c-.043.017-.056.047-.086.034.025-.04.01-.1-.053-.091l.04-.09-.117.133c-.094-.076-.24.013-.262-.091.013,0-.215-.072-.295.034.06-.065-.091-.1-.042-.178a.988.988,0,0,1-.557.1l.02-.014a.877.877,0,0,0-.693.483,2.657,2.657,0,0,1-.19.284c.083.024-.042.2.079.194a1.025,1.025,0,0,1-.136.416c-.046.1-.052.188.11.255.008.122-.093.136-.113.2l-.016-.03a2.928,2.928,0,0,1,.008.448c.032.08.19.092.152.23-.063-.044-.051.012-.051.063-.01-.032-.032-.042-.074.024a.114.114,0,0,1,.041.037c-.005,0-.009,0-.015,0,.022.082.041.068.051.03a.051.051,0,0,0,.039-.013c-.08.091,0,.229-.107.227.006.23.092.439.119.659-.057.021-.1-.035-.118-.1l.009.16c-.08-.006-.04-.1-.052-.145-.144.183.1.4-.008.639l.065.046-.01.015c.032,0,.082.047.1.082-.063.044-.164.012-.133.173-.041.148.118.354.232.455-.029-.082.016-.078.052-.062.029.064.012.135.066.163l-.064.07c.033-.065.148.028.211.051a.075.075,0,0,0,.038,0c0,.033-.028.037-.061.03s-.082-.044-.11-.03a1.035,1.035,0,0,0,.079.07.95.95,0,0,0,.328.138c.183-.035,0-.089.107-.151.129.009.269-.05.386.01l-.036-.083a.464.464,0,0,1,.433.022c.655-.385.775-.594.669-.747a.905.905,0,0,0-.435-.192,1.141,1.141,0,0,0-.569-.022c-.109.015-.081.039-.1.064a.124.124,0,0,1-.078.055.077.077,0,0,1-.049-.009Z" transform="translate(-176.588 -432.29)" fill="#1c1d1d"/>
    </g>
    <g id="그룹_24" data-name="그룹 24" transform="translate(91.198 160.198)">
      <path id="패스_175" data-name="패스 175" d="M321.04,480.362l.03-.052C321.055,480.312,321.04,480.324,321.04,480.362Z" transform="translate(-320.978 -475.986)" fill="#1c1d1d"/>
      <path id="패스_176" data-name="패스 176" d="M372.23,478.99l.008.017C372.234,479,372.232,478.991,372.23,478.99Z" transform="translate(-366.645 -474.808)" fill="#1c1d1d"/>
      <path id="패스_177" data-name="패스 177" d="M332.46,465.19v0l.009.011Z" transform="translate(-331.166 -462.497)" fill="#1c1d1d"/>
      <path id="패스_178" data-name="패스 178" d="M321.625,444.641a1.915,1.915,0,0,0,.127-.791,3.631,3.631,0,0,0,.032-.44,4.58,4.58,0,0,0-.023-.483c-.126-.132,0-.347-.1-.487l.073-.05c-.032-.047-.055-.106-.012-.146l.02,0c-.049-.072-.006-.139-.029-.174l.02.005,0-.073.027.017a.313.313,0,0,1-.016-.153c.005-.035.009-.029.028-.04l-.078-.039c.032-.008.043-.017.049-.032.005-.035,0-.126.089-.059l.008.021c.008-.12.053-.083.117-.038a.416.416,0,0,0,.418.01c-.045.025.017.045.013.066.167-.016.344-.035.341-.2.115,0,.1.05.115.114,0-.073.1-.11.183-.122l-.039.031.253-.051-.065-.134c.135.025.054.166.176.117l-.017-.114c.181,0,.312.155.493.213.337-.031.641-.128.91-.141s.4.078.358.233l-.081.039c-.06.023-.015.014.038.017s.107.043.051.057a.454.454,0,0,1,.065.049c-.021.019-.041.055-.073.03,0,.052.021.053.062.091l-.076.065c-.055.223.082.448.025.727a1.348,1.348,0,0,0-.122.688c0,.07.006.141.014.215a1.541,1.541,0,0,0,.037.236l.048.175c.014.03.027.043.039.067a.183.183,0,0,1,.029.2c-.036.088-.2.061-.269-.01-.1-.057-.025-.064-.3-.013-.015-.019-.065.016-.066.03l-.51-.069a3.023,3.023,0,0,0-.453-.01,1.459,1.459,0,0,0-.839.268l-.249.207.019.08c.053.217.19.318.491.1l-.054.068a3.833,3.833,0,0,1,.477.27l-.01.028a.626.626,0,0,0,.576-.037c.013.172.214.038.271.1l-.008.013a.24.24,0,0,1,.253.018.335.335,0,0,0,.3.029c-.01.013-.016.059-.079.057.2-.008.451-.018.494.078a1.068,1.068,0,0,0,.576-.154.644.644,0,0,0,.279-.476.533.533,0,0,0-.014-.148l.021.031c-.068-.193.021-.2-.026-.388.013-.006.019-.017.025-.014a.759.759,0,0,1-.065-.33.506.506,0,0,0-.022-.21l.066-.01a1.338,1.338,0,0,1-.017-.178l-.016.066c-.182-.016.118-.139.013-.295.035-.139-.349-.333-.244-.48-.077-.083.131.08.077-.039.095.005.054.058.132.037-.033-.114.114-.172.063-.316h.074c-.12-.19.121-.346-.009-.481-.063-.2.221-.141.061-.356l.09-.1c0-.1-.132-.055-.1-.174.067,0,0-.191.082-.121a.7.7,0,0,0-.245-.488c-.138-.142-.292-.257-.465-.437-.15.054-.307-.072-.392,0,0-.063-.354-.074-.135-.156.018-.008.051,0,.044.022l.04-.066c-.2-.178-.393.022-.569,0,.055.025.128.019.079.068l-.168-.009.033-.063-.248-.023.039.072c-.12-.03-.176-.153-.291-.031-.049.067.118.087,0,.126a2.878,2.878,0,0,0-.545-.07c.028.082-.016.085-.059.109l-.016-.072c-.158.126-.086-.151-.24-.05l.009-.053-.025.159c-.134.161-.093-.143-.237.068.063-.016.042.161-.041.134l.016-.072c-.043.017-.056.047-.086.034.025-.04.01-.1-.053-.091l.04-.09-.117.133c-.094-.076-.239.013-.262-.091.013,0-.215-.072-.295.033.061-.065-.091-.1-.042-.178a.987.987,0,0,1-.557.1l.021-.014a.877.877,0,0,0-.693.483,2.646,2.646,0,0,1-.19.284c.083.024-.043.2.079.194a1.032,1.032,0,0,1-.136.417c-.046.1-.052.188.11.255.007.121-.093.136-.113.2l-.016-.03a2.925,2.925,0,0,1,.008.448c.032.08.19.092.152.23-.063-.044-.051.012-.051.063-.01-.032-.032-.042-.074.024a.115.115,0,0,1,.041.037c-.005,0-.009,0-.015,0,.022.082.041.068.05.03a.051.051,0,0,0,.039-.013c-.08.091,0,.229-.107.227.006.23.093.439.119.659-.057.021-.1-.034-.118-.1l.009.16c-.08-.006-.04-.1-.052-.145-.143.183.1.4-.008.639l.065.046-.01.015c.032,0,.082.047.1.082-.063.044-.164.012-.133.173-.041.148.118.354.232.455-.029-.082.016-.078.052-.061.029.064.012.135.066.163l-.064.07c.033-.065.149.028.211.051a.075.075,0,0,0,.038,0c0,.033-.028.037-.061.03s-.082-.044-.11-.03a1.022,1.022,0,0,0,.079.07.951.951,0,0,0,.328.138c.183-.035,0-.088.107-.151.129.009.269-.05.386.01l-.036-.083a.463.463,0,0,1,.433.022c.655-.385.775-.594.669-.747a.906.906,0,0,0-.435-.192,1.141,1.141,0,0,0-.569-.022c-.109.015-.081.039-.1.064a.124.124,0,0,1-.078.055.077.077,0,0,1-.049-.009Z" transform="translate(-320.468 -440.23)" fill="#1c1d1d"/>
    </g>
    <g id="그룹_25" data-name="그룹 25" transform="translate(83.442 153.271)">
      <path id="패스_179" data-name="패스 179" d="M249.09,413.622l.036-.042C249.109,413.58,249.1,413.591,249.09,413.622Z" transform="translate(-249.035 -409.529)" fill="#1c1d1d"/>
      <path id="패스_180" data-name="패스 180" d="M298.47,415.52c0,.005,0,.01.008.016A.033.033,0,0,0,298.47,415.52Z" transform="translate(-293.087 -411.259)" fill="#1c1d1d"/>
      <path id="패스_181" data-name="패스 181" d="M260.52,399.2v0l.01.01Z" transform="translate(-259.232 -396.7)" fill="#1c1d1d"/>
      <path id="패스_182" data-name="패스 182" d="M249.7,380.307a1.555,1.555,0,0,0,.186-.862,2.54,2.54,0,0,0,.019-.473c-.009-.169-.029-.309-.042-.44-.131-.124-.011-.332-.114-.464l.072-.05c-.036-.046-.057-.1-.016-.139l.021,0c-.052-.069-.011-.132-.035-.164l.02.005c0-.025,0-.049,0-.069l.027.015a.281.281,0,0,1-.023-.136c0-.01.008-.025.024-.029l-.078-.039c.056-.011.05-.034.054-.07s.024-.065.079-.021l.008.021c-.006-.122.067-.084.092-.041a.338.338,0,0,0,.365.013c-.046.023.014.046.009.067.2-.006.334-.023.341-.19.1.005.082.055.093.121,0-.074.091-.1.17-.1l-.038.028.229-.018-.041-.141c.12.043.026.172.143.14l0-.115c.167.028.261.206.421.3.346.037.684-.032.915-.015s.384.117.377.341l-.071.051c-.117.047.215.032.108.086l.066.023c-.018.015-.038.049-.07.031,0,.044.023.04.067.067l-.072.063c-.041.194.1.406.057.669a1.277,1.277,0,0,0-.112.635,3.4,3.4,0,0,0,.088.713.146.146,0,0,1-.154.241c-.072-.019-.115-.053-.155-.06a.96.96,0,0,0-.364.09l-.03.016-.015.009-.008,0,0,0h0c.109.362.029.1.053.177l0-.01-.006-.019-.045-.144v0l0,.011c0-.017-.033.029-.028.043a3.686,3.686,0,0,1-.41.023,6.429,6.429,0,0,0-.728.054c-.01.006-.022.005-.021.023a.452.452,0,0,1-.086.122.188.188,0,0,1-.08.071c.006,0,0,0,0,0h.059l-.024,0a.177.177,0,0,0-.052.005c-.058-.009-.186.049-.126.229a1.116,1.116,0,0,0,.479.493l-.017.026a.659.659,0,0,0,.682-.047c.042.17.237,0,.31.047l-.005.014c.085-.077.169-.058.3-.059.089-.006.094,0,.128,0a.108.108,0,0,0,.08-.051c0,.014,0,.06-.022.069a.455.455,0,0,1,.138-.05c.065-.009.149-.006.164.042a1.349,1.349,0,0,0,.674-.274.583.583,0,0,0,.2-.556l.021.029c-.066-.186.026-.2-.017-.379.013-.006.021-.018.026-.015-.1-.21-.014-.349-.05-.44h.066v-.2l-.02.076c-.179-.041.126-.145.024-.309.037-.142-.348-.328-.248-.47-.079-.079.133.074.076-.039.095,0,.055.055.133.033-.037-.11.11-.17.052-.311l.074,0c-.127-.181.106-.345-.03-.473-.076-.193.214-.154.033-.368a.759.759,0,0,0,.077-.118c-.016-.118-.137-.05-.131-.17.063-.014-.005-.155.074-.113-.029-.306-.366-.451-.6-.807-.139.045-.279-.107-.372-.042.012-.063-.341-.123-.111-.173.021,0,.051.008.041.027l.049-.06c-.177-.2-.395-.027-.562-.068.049.028.123.035.068.076l-.162-.028.04-.057-.231-.051.027.077c-.107-.043-.141-.173-.258-.068-.051.058.091.1-.013.125a2.361,2.361,0,0,0-.491-.165c.013.085-.031.081-.079.1l0-.074c-.18.1-.06-.164-.24-.087l.017-.051-.051.153c-.163.141-.082-.155-.263.039.07-.011.029.164-.057.129l.024-.071c-.049.014-.065.043-.1.027.029-.038.018-.1-.053-.093l.05-.087-.136.127c-.08-.076-.2,0-.247-.1.006,0-.224-.077-.3.03.078-.064-.126-.1-.068-.179a.969.969,0,0,1-.532.111l.019-.015a.781.781,0,0,0-.519.3c-.118.151-.2.3-.326.463.081.023-.038.2.083.19a1.065,1.065,0,0,1-.131.421c-.041.1-.046.186.118.245.012.117-.087.134-.107.194l-.017-.028a2.594,2.594,0,0,1,.022.432c.035.076.192.084.159.217-.064-.041-.051.013-.049.063-.011-.031-.035-.04-.074.025a.105.105,0,0,1,.042.035s-.009,0-.015,0c.025.08.043.065.051.028a.059.059,0,0,0,.039-.014c-.078.086.011.229-.1.236.026.194.11.395.137.6-.057.018-.1-.033-.118-.1l.008.149c-.08-.009-.039-.088-.051-.135-.143.165.1.371-.031.577l.061.048-.011.012c.033,0,.077.05.086.082-.07.035-.16-.01-.156.14-.07.127.047.352.109.47,0-.084.04-.073.066-.051.016.063-.038.137,0,.173l-.08.057c.067-.071.148.111.2.1-.032.078-.1-.049-.145-.038a1.09,1.09,0,0,0,.141.214c.009,0,.045.036.14.088.173,0,.029-.08.14-.121.121.031.256-.014.369.049l-.013-.083a.56.56,0,0,1,.464.023c.614-.4.743-.608.64-.761a.945.945,0,0,0-.441-.182,1.3,1.3,0,0,0-.279-.041c-.057,0-.029,0-.035,0a.045.045,0,0,1,0,.013.164.164,0,0,1-.1.11.058.058,0,0,1-.066-.017Z" transform="translate(-248.579 -376.03)" fill="#1c1d1d"/>
    </g>
    <g id="그룹_26" data-name="그룹 26" transform="translate(91.093 166.786)">
      <path id="패스_183" data-name="패스 183" d="M319.99,538.872l.036-.042C320.009,538.83,320,538.841,319.99,538.872Z" transform="translate(-319.936 -534.78)" fill="#1c1d1d"/>
      <path id="패스_184" data-name="패스 184" d="M369.38,540.78c0,.005,0,.01.008.016A.033.033,0,0,0,369.38,540.78Z" transform="translate(-363.997 -536.519)" fill="#1c1d1d"/>
      <path id="패스_185" data-name="패스 185" d="M331.43,524.45v0l.009.011Z" transform="translate(-330.142 -521.951)" fill="#1c1d1d"/>
      <path id="패스_186" data-name="패스 186" d="M320.615,505.566a1.554,1.554,0,0,0,.186-.862,2.54,2.54,0,0,0,.019-.473c-.009-.169-.029-.309-.042-.44-.131-.124-.011-.332-.114-.464l.072-.05c-.036-.046-.057-.1-.016-.139l.021,0c-.052-.069-.011-.132-.036-.164l.021.005c0-.025,0-.049,0-.069l.027.015a.281.281,0,0,1-.023-.136c0-.01.008-.025.024-.029l-.078-.039c.056-.011.05-.035.054-.07s.024-.065.079-.021l.008.021c-.006-.122.067-.084.092-.041a.339.339,0,0,0,.365.013c-.046.023.014.046.009.067.2-.006.334-.023.341-.19.1.005.082.055.093.121,0-.074.091-.1.17-.1l-.038.028.229-.018-.041-.141c.12.043.026.172.143.141v-.115c.168.028.262.206.423.3.346.037.684-.032.915-.015s.384.117.377.341l-.071.051c-.117.047.215.032.108.086l.066.023c-.018.015-.038.049-.07.031,0,.044.023.04.067.067l-.072.063c-.041.194.1.406.057.669a1.267,1.267,0,0,0-.111.635,3.333,3.333,0,0,0,.089.713.156.156,0,0,1-.011.221c-.064.054-.181.014-.238-.017-.042-.016-.024-.037-.18-.011a1.023,1.023,0,0,0-.184.051c-.06.024-.139.061-.122.077,0-.017-.033.029-.028.043a3.686,3.686,0,0,1-.41.023,6.466,6.466,0,0,0-.729.054c-.01.006-.022.005-.021.023a.452.452,0,0,1-.086.122.188.188,0,0,1-.08.071c.006,0,0,0,0,0h.059l-.024,0a.177.177,0,0,0-.052.005c-.058-.009-.186.049-.126.229a1.116,1.116,0,0,0,.479.493l-.017.026a.659.659,0,0,0,.682-.047c.042.171.237,0,.31.047l-.005.014c.085-.077.169-.058.3-.059.088-.006.094.005.128,0a.108.108,0,0,0,.08-.051c0,.014,0,.06-.022.069a.456.456,0,0,1,.138-.05c.065-.009.149-.006.164.042l.2-.042a1.012,1.012,0,0,0,.547-.3.559.559,0,0,0,.134-.484l.021.029c-.066-.186.026-.2-.017-.379.013-.007.021-.018.026-.015-.1-.21-.014-.348-.05-.44h.066v-.2l-.021.076c-.179-.041.126-.145.024-.309.037-.142-.349-.328-.248-.47-.079-.079.133.074.076-.039.095,0,.055.055.133.033-.037-.11.11-.17.052-.311l.074,0c-.127-.181.106-.345-.03-.473-.076-.193.214-.154.033-.368a.762.762,0,0,0,.077-.118c-.016-.118-.137-.05-.131-.17.063-.014-.005-.155.074-.113-.029-.306-.366-.451-.6-.807-.139.045-.279-.107-.372-.042.012-.063-.341-.123-.111-.173.021,0,.051.008.041.027l.049-.06c-.177-.205-.395-.027-.562-.068.049.028.123.035.068.076l-.162-.028.04-.057-.231-.052.027.077c-.107-.043-.141-.173-.258-.068-.052.058.091.1-.014.125a2.36,2.36,0,0,0-.491-.165c.013.085-.031.081-.079.1l0-.074c-.18.1-.06-.164-.24-.087l.017-.051-.051.153c-.163.142-.082-.155-.263.039.07-.011.029.164-.057.129l.024-.071c-.049.014-.065.043-.1.027.029-.038.018-.1-.053-.093l.05-.087-.136.127c-.08-.076-.2,0-.247-.1.006,0-.224-.077-.3.03.078-.064-.126-.1-.068-.179a.969.969,0,0,1-.532.111l.019-.015a.781.781,0,0,0-.519.3c-.118.151-.2.3-.326.463.081.023-.038.2.083.19a1.065,1.065,0,0,1-.13.421c-.041.1-.046.185.118.245.012.116-.087.134-.107.194l-.017-.028a2.6,2.6,0,0,1,.022.432c.035.076.192.084.159.217-.064-.041-.051.013-.049.063-.011-.031-.035-.04-.074.025a.1.1,0,0,1,.042.035c-.005,0-.009,0-.015,0,.025.08.043.066.051.028a.059.059,0,0,0,.039-.014c-.078.087.011.229-.1.236.026.194.11.395.137.6-.057.018-.1-.033-.118-.1l.008.149c-.08-.009-.039-.089-.051-.135-.143.165.1.371-.03.577l.062.047-.011.012c.033,0,.077.05.086.082-.07.035-.16-.01-.156.14-.07.127.048.352.109.47,0-.084.04-.073.066-.051.016.063-.038.137,0,.173l-.08.057c.067-.071.148.111.2.1-.032.078-.1-.049-.145-.038a1.088,1.088,0,0,0,.141.214c.009,0,.045.036.14.089.173,0,.029-.08.14-.121.121.031.256-.014.369.047l-.013-.083a.56.56,0,0,1,.464.023c.614-.4.743-.609.64-.761a.945.945,0,0,0-.441-.182,1.3,1.3,0,0,0-.279-.041c-.057,0-.029,0-.035,0a.044.044,0,0,1,0,.013.166.166,0,0,1-.1.11.058.058,0,0,1-.066-.017Z" transform="translate(-319.49 -501.29)" fill="#1c1d1d"/>
    </g>
    <g id="그룹_27" data-name="그룹 27" transform="translate(75.641 166.353)">
      <path id="패스_187" data-name="패스 187" d="M176.79,534.872l.036-.042C176.809,534.83,176.8,534.841,176.79,534.872Z" transform="translate(-176.735 -530.779)" fill="#1c1d1d"/>
      <path id="패스_188" data-name="패스 188" d="M226.17,536.78l.008.016A.033.033,0,0,0,226.17,536.78Z" transform="translate(-220.787 -532.518)" fill="#1c1d1d"/>
      <path id="패스_189" data-name="패스 189" d="M188.22,520.45v0l.01.01Z" transform="translate(-186.932 -517.95)" fill="#1c1d1d"/>
      <path id="패스_190" data-name="패스 190" d="M177.4,501.557a1.555,1.555,0,0,0,.186-.862,2.538,2.538,0,0,0,.019-.473c-.009-.169-.029-.309-.042-.44-.131-.124-.011-.332-.114-.464l.072-.05c-.036-.046-.057-.1-.016-.139l.021,0c-.052-.069-.011-.132-.035-.164l.021.005c0-.025,0-.049,0-.069l.027.015a.281.281,0,0,1-.023-.136c0-.01.008-.025.024-.029l-.078-.039c.057-.011.05-.035.054-.07s.024-.065.079-.02l.008.02c-.006-.122.067-.084.092-.041a.339.339,0,0,0,.365.013c-.046.023.014.046.009.067.2-.006.334-.023.341-.19.1.005.082.055.093.121,0-.074.091-.1.17-.1l-.038.028.229-.018-.041-.141c.12.043.026.172.144.141v-.115c.168.028.262.206.423.3.346.037.684-.032.915-.015s.384.117.377.341l-.071.051c-.117.047.215.032.108.086l.066.023c-.018.015-.038.049-.069.031,0,.044.023.04.067.067l-.072.063c-.041.194.1.406.057.669a1.266,1.266,0,0,0-.111.635,3.336,3.336,0,0,0,.088.713.156.156,0,0,1-.011.221c-.064.054-.182.014-.238-.017-.042-.016-.024-.037-.18-.011a1.027,1.027,0,0,0-.185.051c-.06.024-.139.062-.122.077,0-.017-.033.029-.028.043a3.678,3.678,0,0,1-.41.023,6.453,6.453,0,0,0-.729.054c-.01.006-.022.005-.021.023a.456.456,0,0,1-.087.122.188.188,0,0,1-.08.071c.006,0,0,0,0,0h.059l-.024,0a.176.176,0,0,0-.052.005c-.058-.009-.186.049-.126.229a1.122,1.122,0,0,0,.479.493l-.017.026a.659.659,0,0,0,.682-.047c.042.17.237,0,.31.047l-.005.014c.085-.077.169-.058.3-.059.088-.007.094.005.128,0a.108.108,0,0,0,.08-.051c0,.014,0,.06-.022.069a.457.457,0,0,1,.138-.05c.065-.009.148-.006.164.042l.2-.042a1.011,1.011,0,0,0,.547-.3.559.559,0,0,0,.134-.484l.02.029c-.066-.186.026-.2-.017-.379.013-.006.02-.018.026-.015-.1-.21-.014-.349-.051-.44h.066v-.2l-.021.076c-.179-.041.126-.145.024-.309.037-.142-.348-.328-.248-.47-.079-.079.133.074.077-.039.095,0,.055.055.133.033-.037-.11.11-.17.052-.311l.074,0c-.127-.181.106-.345-.03-.473-.076-.193.215-.154.033-.368a.762.762,0,0,0,.077-.118c-.016-.118-.136-.05-.131-.171.063-.014-.006-.155.074-.113-.029-.306-.366-.451-.6-.807-.139.045-.278-.107-.372-.042.012-.063-.341-.123-.111-.173.02,0,.051.008.041.027l.049-.06c-.177-.2-.395-.027-.562-.068.049.028.123.035.068.076l-.162-.028.04-.057-.231-.052.027.077c-.107-.043-.141-.173-.258-.068-.052.058.091.1-.014.125a2.358,2.358,0,0,0-.491-.165c.014.085-.031.081-.079.1l0-.074c-.18.1-.06-.164-.24-.087l.017-.051-.051.153c-.163.142-.082-.155-.264.039.07-.011.029.164-.056.129l.024-.071c-.049.014-.065.043-.1.027.029-.038.018-.1-.053-.093l.05-.087-.136.127c-.08-.077-.2,0-.247-.1.006,0-.224-.077-.3.03.078-.064-.126-.1-.069-.179a.969.969,0,0,1-.532.111l.019-.015a.781.781,0,0,0-.519.3c-.117.151-.2.3-.326.463.082.023-.038.2.083.19a1.065,1.065,0,0,1-.131.421c-.041.1-.046.185.118.245.012.117-.088.134-.107.194l-.017-.028a2.589,2.589,0,0,1,.022.432c.035.076.192.084.159.217-.064-.041-.051.013-.049.063-.011-.031-.033-.04-.074.025a.106.106,0,0,1,.042.035c-.005,0-.009,0-.015,0,.025.08.043.066.051.028a.059.059,0,0,0,.039-.014c-.078.087.011.229-.1.236.026.194.11.395.137.6-.057.018-.1-.033-.118-.1l.008.149c-.08-.009-.039-.088-.051-.135-.143.165.1.371-.03.577l.061.047-.011.012c.033,0,.077.05.086.082-.07.035-.16-.01-.156.14-.07.127.047.352.109.47,0-.084.04-.073.066-.051.016.063-.038.137,0,.173l-.08.057c.067-.071.148.111.2.1-.032.078-.1-.049-.145-.038a1.09,1.09,0,0,0,.141.214c.009,0,.045.036.14.088.173,0,.029-.08.14-.121.121.031.256-.014.369.047l-.013-.083a.56.56,0,0,1,.464.023c.614-.4.743-.608.64-.761a.945.945,0,0,0-.441-.182,1.3,1.3,0,0,0-.279-.041c-.057,0-.029,0-.035,0a.045.045,0,0,1,0,.013.166.166,0,0,1-.1.11.058.058,0,0,1-.066-.017Z" transform="translate(-176.28 -497.28)" fill="#1c1d1d"/>
    </g>
    <g id="그룹_28" data-name="그룹 28" transform="translate(90.78 153.561)">
      <path id="패스_191" data-name="패스 191" d="M317.04,397.234l.032-.044C317.056,397.191,317.043,397.2,317.04,397.234Z" transform="translate(-316.992 -395.197)" fill="#1c1d1d"/>
      <path id="패스_192" data-name="패스 192" d="M348.261,428.82l-.011.008A.019.019,0,0,0,348.261,428.82Z" transform="translate(-344.834 -423.415)" fill="#1c1d1d"/>
      <path id="패스_193" data-name="패스 193" d="M329.4,394.44h0l-.006.009Z" transform="translate(-328.009 -392.744)" fill="#1c1d1d"/>
      <path id="패스_194" data-name="패스 194" d="M317.731,381.124c.011-.1.022-.19.032-.279s.032-.179.049-.251.029-.128.043-.19c.005-.025.01-.041.006-.038s0,.005,0-.013l0-.019v-.007s0,0-.005,0l-.074-.033c-.37-.166-.4-.277-.34-.18a.33.33,0,0,1,.028.055l.045.1.056.148a1.008,1.008,0,0,1,.042.126.382.382,0,0,1,.05-.021l.186-.063a1.1,1.1,0,0,1,.127-.041c.071-.139.262-.026.4-.133l.054.07a.129.129,0,0,1,.159-.024l0,.02c.076-.055.167-.024.208-.052l0,.02.1-.013-.016.03a1.1,1.1,0,0,1,.457-.077l-.026-.083c.352.037.359-.166.584-.088v.02c.216-.264.353.118.464-.067-.019.024-.01.042-.018.063.039-.013.078,0,.191-.124.036.036-.013.063-.054.112a.092.092,0,0,1,.149.012l-.039,0a1.622,1.622,0,0,1,.124.141l.1-.109c.026.119-.132.112-.042.193l.1-.063c.064.151,0,.369.041.551.055.074.106.143.163.223a.912.912,0,0,1,.088.331,4.561,4.561,0,0,1,.015.521,5.056,5.056,0,0,1-.006.568l-.081.041c-.123.034.213.127.1.166a.472.472,0,0,0,.066.049c-.021.016-.042.044-.073.025,0,.042.022.04.062.054a.487.487,0,0,1-.079.017c-.052.032.067.174-.053.2a.181.181,0,0,0-.129-.027,2.252,2.252,0,0,0-.263.068c-.181.055-.4.115-.571.155a1.166,1.166,0,0,1-.775-.106,2.664,2.664,0,0,0-.412-.113.655.655,0,0,0-.334.015c-.01-.019-.049.014-.051.028a1.1,1.1,0,0,1-.3-.12.711.711,0,0,1-.145-.1,2.046,2.046,0,0,0-.592-.384c-.292-.1-.529.008-.476.149.014.074.077.163.119.288a4.632,4.632,0,0,1,.1.509l-.027.012a.932.932,0,0,0,.236.292.538.538,0,0,0,.383.122c-.04.175.247.125.3.192l-.011.012c.221-.071.381.194.57.093-.008.013-.015.059-.056.058.132-.008.293-.04.3.06.248-.015.617.063.8-.086l-.014.027c.106-.1.131-.009.247-.058.005.013.014.02.012.026.113-.1.328-.01.422-.059l.009.066.234-.029-.09-.008c.014-.182.189.1.353-.044.179-.01.223-.434.406-.4.04-.109-.011.154.08.045.05.082-.032.079.035.132.106-.093.279-.019.379-.189l.06.045c.074-.24.351-.352.26-.566-.035-.25.237-.164.078-.437l.088-.1c0-.1-.131-.045-.1-.148.064-.006.03-.12.1-.079a.391.391,0,0,0-.063-.287.18.18,0,0,1,.026-.235c-.122-.045-.043-.161-.133-.207.054,0,.023-.273.131-.11.009.014.005.037-.015.035l.071.023c.145-.149-.059-.306-.055-.5-.018.06-.01.131-.061.085,0-.057,0-.114-.005-.178l.066.032a1.775,1.775,0,0,0-.023-.31l-.062.063c0-.154.087-.286-.1-.4-.092-.04-.015.181-.116.049-.067-.21-.15-.413-.192-.517-.064.057-.078.033-.112.012l.059-.044c-.166-.069.114-.123-.047-.228l.053-.013-.159.038c-.225-.076.081-.169-.233-.25.073.071-.1.136-.149.027l.074-.024c-.057-.041-.1-.044-.126-.087.059,0,.091-.059-.009-.129l.12-.013a1.24,1.24,0,0,0-.261-.037c-.1-.168-.408-.164-.449-.268,0-.01-.333-.1-.4.023.06-.069-.107-.094-.061-.174-.082.078-.284.162-.373.095l.014-.012c-.309-.038-.478.224-.626.14.022.084-.074.05-.039.155-.179.131-.366-.2-.438.14-.1.019-.122-.078-.177-.095l.025-.018a2.43,2.43,0,0,1-.424.037c-.081.04-.078.2-.227.176.039-.067-.018-.051-.076-.04.035-.016.043-.041-.039-.069a.122.122,0,0,1-.035.047s-.005-.008-.005-.015c-.092.041-.07.057-.025.056,0,.01.006.021.023.036-.126-.056-.241.061-.277-.04a1.519,1.519,0,0,0-.205.092.754.754,0,0,0-.263.231.956.956,0,0,0-.121.45c-.063.021-.092-.068-.086-.145a1.518,1.518,0,0,0-.037.205c-.08-.015-.017-.138-.01-.2a.4.4,0,0,0-.073.378.477.477,0,0,1,.005.335l.065.042-.01.013c.033,0,.081.043.093.073-.068.032-.16.007-.15.107-.059.086.038.192.093.35,0-.076.044-.054.072-.027.01.062-.051.11-.012.152l-.091.026c.08-.04.131.135.175.139-.057.052-.082-.067-.136-.071.072.222.04.121.108.3.095.069.079-.043.17-.024.042.074.127.142.084.24l.078-.04a.287.287,0,0,1-.02.367c.274.685.517.738.664.653.147-.056.231-.286.232-.293a1.183,1.183,0,0,0,.043-.847,3.966,3.966,0,0,0-.343-.695Z" transform="translate(-316.592 -378.72)" fill="#1c1d1d"/>
    </g>
    <g id="그룹_29" data-name="그룹 29" transform="translate(83.893 160.074)">
      <path id="패스_195" data-name="패스 195" d="M253.21,457.584l.032-.044C253.226,457.541,253.213,457.553,253.21,457.584Z" transform="translate(-253.162 -455.548)" fill="#1c1d1d"/>
      <path id="패스_196" data-name="패스 196" d="M284.431,489.17l-.011.008A.019.019,0,0,0,284.431,489.17Z" transform="translate(-281.004 -483.766)" fill="#1c1d1d"/>
      <path id="패스_197" data-name="패스 197" d="M265.568,454.8h0l-.007.01Z" transform="translate(-264.179 -453.104)" fill="#1c1d1d"/>
      <path id="패스_198" data-name="패스 198" d="M253.9,441.483c.011-.1.022-.19.032-.279s.032-.179.049-.251.029-.128.043-.19c.005-.025.01-.041.006-.038s-.005.005,0-.013l0-.019v-.006s0,0-.005,0l-.074-.033c-.37-.166-.4-.277-.34-.18a.331.331,0,0,1,.028.055l.045.1.056.148a1.1,1.1,0,0,1,.042.126.315.315,0,0,1,.05-.021l.186-.063a1.083,1.083,0,0,1,.127-.041c.071-.139.262-.026.4-.133l.054.07a.129.129,0,0,1,.159-.024l0,.02c.076-.055.167-.024.208-.052l0,.021.1-.013-.016.03a1.1,1.1,0,0,1,.457-.077l-.026-.083c.352.037.359-.166.584-.089v.021c.216-.264.353.118.464-.067-.019.024-.01.043-.018.063.039-.013.078,0,.191-.124.036.036-.013.063-.054.112a.092.092,0,0,1,.149.012l-.039,0a1.465,1.465,0,0,1,.124.141l.1-.109c.026.119-.131.112-.042.193l.1-.063c.064.151,0,.369.041.551l.164.223a.912.912,0,0,1,.088.331,4.562,4.562,0,0,1,.015.521,5.033,5.033,0,0,1-.006.568l-.081.041c-.123.035.213.127.1.166a.469.469,0,0,0,.066.049c-.022.016-.042.044-.073.026,0,.042.022.04.062.054a.486.486,0,0,1-.079.017c-.052.032.067.174-.053.2a.181.181,0,0,0-.129-.027,2.245,2.245,0,0,0-.263.068c-.18.055-.4.115-.571.155a1.166,1.166,0,0,1-.775-.106,2.665,2.665,0,0,0-.412-.113.655.655,0,0,0-.334.015c-.01-.019-.049.014-.051.028a1.1,1.1,0,0,1-.3-.12.729.729,0,0,1-.146-.1,2.047,2.047,0,0,0-.592-.384c-.292-.1-.529.008-.476.149.014.074.077.163.119.288a4.9,4.9,0,0,1,.1.509l-.027.012a.945.945,0,0,0,.236.292.538.538,0,0,0,.383.122c-.04.175.247.125.3.192l-.011.012c.221-.071.381.194.57.093-.008.013-.015.059-.056.058.132-.008.293-.04.3.06.248-.015.617.063.8-.086l-.014.027c.106-.1.131-.009.247-.058.005.013.014.02.012.026.113-.1.328-.01.422-.059l.009.066.233-.029-.09-.008c.014-.182.189.1.353-.044.179-.01.223-.434.406-.4.04-.109-.011.154.08.045.049.081-.033.079.035.132.106-.093.279-.019.379-.189l.059.045c.074-.24.351-.352.26-.566-.035-.25.237-.164.078-.437l.088-.1c0-.1-.131-.045-.1-.148.064-.006.03-.12.1-.079a.39.39,0,0,0-.063-.287.18.18,0,0,1,.026-.235c-.122-.045-.043-.161-.133-.207.054,0,.023-.273.131-.11.009.014.005.037-.015.034l.071.023c.145-.149-.059-.307-.055-.5-.018.06-.01.131-.062.085,0-.057,0-.114-.005-.178l.066.032a1.775,1.775,0,0,0-.023-.31l-.061.063c0-.154.087-.286-.1-.4-.092-.04-.015.181-.117.049-.067-.21-.15-.413-.192-.517-.064.057-.078.033-.112.012l.059-.044c-.166-.069.114-.123-.047-.228l.053-.013-.159.038c-.225-.076.081-.169-.233-.25.073.071-.1.136-.149.027l.074-.024c-.057-.041-.1-.044-.126-.087.059,0,.092-.059-.009-.129l.12-.014a1.242,1.242,0,0,0-.261-.037c-.1-.168-.408-.164-.449-.266,0-.01-.333-.1-.4.023.06-.069-.106-.094-.062-.174-.082.078-.284.162-.373.095l.014-.012c-.309-.038-.478.224-.626.14.022.084-.074.05-.039.155-.179.131-.366-.2-.438.14-.1.019-.122-.078-.177-.095l.025-.018a2.433,2.433,0,0,1-.424.037c-.081.04-.078.2-.227.176.039-.067-.018-.051-.076-.04.033-.016.043-.041-.039-.069a.123.123,0,0,1-.035.047s-.005-.008-.005-.015c-.092.041-.07.057-.025.056,0,.01.006.021.023.036-.126-.056-.241.061-.277-.04a1.362,1.362,0,0,0-.205.093.744.744,0,0,0-.263.231.955.955,0,0,0-.121.45c-.063.021-.092-.068-.085-.145a1.518,1.518,0,0,0-.037.205c-.08-.015-.017-.138-.01-.2a.4.4,0,0,0-.073.378.477.477,0,0,1,.005.334l.065.042-.01.013c.033,0,.081.043.093.073-.068.032-.16.006-.15.107-.059.086.038.192.093.35,0-.076.044-.054.072-.027.01.062-.051.11-.012.152l-.091.026c.08-.04.131.135.175.139-.057.052-.082-.067-.136-.071.072.222.04.121.108.3.095.069.079-.043.17-.024.043.074.127.142.084.24l.078-.04a.287.287,0,0,1-.02.367c.274.685.517.738.664.653.146-.056.231-.287.232-.294a1.183,1.183,0,0,0,.043-.847,3.96,3.96,0,0,0-.343-.695Z" transform="translate(-252.762 -439.08)" fill="#1c1d1d"/>
    </g>
    <g id="그룹_30" data-name="그룹 30" transform="translate(80.007 137.975)">
      <path id="패스_199" data-name="패스 199" d="M237.1,238.78l.044.032C237.143,238.8,237.131,238.783,237.1,238.78Z" transform="translate(-234.903 -238.292)" fill="#1c1d1d"/>
      <path id="패스_200" data-name="패스 200" d="M335.07,238.115l.012-.005A.022.022,0,0,0,335.07,238.115Z" transform="translate(-322.303 -237.695)" fill="#1c1d1d"/>
      <path id="패스_201" data-name="패스 201" d="M251.613,247.47h0l-.011.009Z" transform="translate(-247.839 -246.045)" fill="#1c1d1d"/>
      <path id="패스_202" data-name="패스 202" d="M218.583,235.858a1.911,1.911,0,0,1,.527.063,1.63,1.63,0,0,0,.774-.045,1.894,1.894,0,0,0,.464-.146c.05-.022.029-.038.166-.043.134-.122.357.008.514-.093l.057.072a.143.143,0,0,1,.168-.017l0,.021c.08-.052.166-.017.206-.043l0,.02.095-.006-.017.029a.672.672,0,0,1,.4-.024l-.008-.086c.26.1.361-.072.6.049l0,.021c.306-.219.47.168.785-.039-.039.026.015.045.012.066.142-.02.3-.029.3-.2.1.005.083.056.1.121,0-.074.093-.1.174-.1l-.038.027.234-.018-.043-.141c.123.044.028.172.147.141v-.115c.172.028.269.207.434.3a5.6,5.6,0,0,0,1.055-.046l.271-.021c.112-.008.218-.023.317-.037a2.18,2.18,0,0,1,.531-.036l.043.08c.037.121.11-.214.15-.1l.049-.065c.018.021.052.042.028.073.049,0,.046-.019.079-.06a.727.727,0,0,0,.068.08c.261.071.482-.073.759-.032a3.143,3.143,0,0,0,1.267.06c.542-.091.927.576,1.533.524.011.022.065,0,.069-.018l.438.158.295.1a4,4,0,0,0,.467.135c.107.014.166-.047.312-.085a.244.244,0,0,0,.119-.27,1.287,1.287,0,0,0-.29-.6l.025-.018c-.25-.193-.422-.265-.651-.2.025-.173-.214-.088-.258-.16l.01-.012c-.2.077-.3-.2-.482-.134.01-.012.026-.055.06-.049-.113-.01-.259-.016-.245-.115-.274-.06-.653-.214-.871-.1l.018-.024c-.127.08-.136-.016-.263.012,0-.014-.011-.023-.008-.027-.133.079-.332-.047-.433-.017l0-.066-.23-.016.083.025c-.052.177-.159-.136-.338-.035-.156-.037-.336.354-.483.26-.077.082.069-.136-.043-.074,0-.095.054-.057.027-.134-.11.041-.177-.1-.313-.044l0-.074c-.176.128-.333-.109-.45.016-.19.059-.1-.234-.339-.074l-.1-.09c-.1,0-.053.131-.163.1,0-.064-.135-.025-.088-.095-.243-.052-.393.238-.6.095-.032.128-.114.059-.158.149-.008-.054-.262-.017-.115-.128.013-.009.035-.006.033.014l.017-.072c-.148-.141-.269.067-.415.041.043.026.1.02.063.069l-.136-.014.029-.06-.2-.042.027.077c-.1-.042-.133-.172-.245-.068-.051.058.093.1-.012.125a2.435,2.435,0,0,0-.5-.167c.014.085-.031.081-.078.1l0-.074c-.181.1-.063-.164-.242-.088l.017-.051-.051.153c-.164.141-.083-.156-.267.039.071-.011.029.164-.057.129l.024-.07c-.049.014-.065.043-.1.027.029-.038.017-.1-.053-.093l.05-.087-.137.127c-.1-.08-.27.012-.31-.09,0,0-.222-.055-.276.053.046-.067-.076-.1-.039-.176-.06.076-.233.134-.3.05l.013-.009c-.251-.092-.437.1-.661-.005.008.086-.111.036-.084.147-.238.1-.423-.235-.518.1-.107.015-.124-.083-.178-.1l.026-.017a1.653,1.653,0,0,1-.406.012c-.074.031-.093.188-.223.147.045-.061-.01-.051-.058-.053.029-.009.05-.031-.027-.076a.133.133,0,0,1-.05.04c0-.005,0-.009,0-.015-.114.025-.092.044-.04.051,0,.01,0,.022.018.039-.117-.085-.327.042-.363-.055a.817.817,0,0,0-.3.183.774.774,0,0,1-.231.14.107.107,0,0,1,.055-.135l-.121.037c-.006-.079.066-.054.1-.074-.151-.107-.3.156-.514.046l-.041.065-.013-.01c0,.033-.044.081-.076.093-.035-.068-.005-.16-.117-.149-.094-.061-.26.056-.374.117.068,0,.053.042.029.07-.056.014-.1-.049-.145-.008l-.028-.09c.043.079-.132.133-.139.179-.055-.054.071-.087.073-.139l-.276.1c-.072.088.037.082.012.173-.079.037-.159.115-.277.077l.047.077a.511.511,0,0,1-.386.069l-.051-.01c-.169.153-.187.305-.271.406a1.976,1.976,0,0,1-.2.215.219.219,0,0,0-.018.287.549.549,0,0,0,.415.108.988.988,0,0,0,.275-.076c.1-.04.127-.04.123-.024a.057.057,0,0,1,.006.018,2.855,2.855,0,0,0,.388-.136c.1-.039.213-.086.344-.149l.093-.047.044-.029a.592.592,0,0,1,.108-.051Z" transform="translate(-216.741 -234.26)" fill="#1c1d1d"/>
    </g>
    <g id="그룹_31" data-name="그룹 31" transform="translate(68.456 132.647)">
      <path id="패스_203" data-name="패스 203" d="M187.95,185.591l.17.01C188.116,185.586,188.071,185.577,187.95,185.591Z" transform="translate(-179.505 -185.508)" fill="#1c1d1d"/>
      <path id="패스_204" data-name="패스 204" d="M484.393,282.75l0,.036C484.394,282.762,484.4,282.753,484.393,282.75Z" transform="translate(-443.961 -272.19)" fill="#1c1d1d"/>
      <path id="패스_205" data-name="패스 205" d="M243.829,197.26h-.009l-.04.008Z" transform="translate(-229.311 -195.924)" fill="#1c1d1d"/>
      <path id="패스_206" data-name="패스 206" d="M116.358,186.261c1.067-.01,1.876-.2,2.341-.179l1,.063c.389.017.826.027,1.365.026,1.025.042,2.121.036,3.125.044.479-.112,1.317.035,1.883-.054l.216.078a1.721,1.721,0,0,1,.617,0l-.013.021c.291-.045.617,0,.763-.027l-.013.021h.353l-.062.028a8.973,8.973,0,0,1,1.487.006l-.036-.087c.979.124,1.343-.044,2.226.094l-.013.021c1.126-.2,1.766.2,2.926.021-.145.023.06.046.049.067.532-.01,1.1-.007,1.113-.176.387.013.314.061.363.128,0-.074.338-.1.64-.092l-.14.025h.867l-.166-.146c.459.053.112.174.553.152l0-.117a14.006,14.006,0,0,1,1.616.329c1.279.06,2.607.036,3.912.03h.973a7.608,7.608,0,0,1,.907.064,5.337,5.337,0,0,1,1.653.481l.057.118c-.012.124.626.068.645.223.084.022.167.045.249.074.05.057.165.154.042.113a1.267,1.267,0,0,0,.369.179l.15.215.486.45a3.279,3.279,0,0,1,.372.431,2.809,2.809,0,0,1,.475,1.181,16.831,16.831,0,0,1,0,2.316,15.332,15.332,0,0,1-.353,2.43c-.065.26-.127.508-.191.76-.063.288-.094.534-.147.783a4.036,4.036,0,0,1-.2.689,1.918,1.918,0,0,1-.336.543.951.951,0,0,1-.915.379,12.186,12.186,0,0,0-1.51.008.36.36,0,0,0-.21.028,3.385,3.385,0,0,1-1.91-.7,2.887,2.887,0,0,1-.755-.848,4.189,4.189,0,0,0-.534-.673,2.108,2.108,0,0,0-.779-.486,2.746,2.746,0,0,0-1.158-.146l.261.259c-.109-.221-.2-.245-.266.046l-.04-.039c.137.092.389.2.712.378a1.949,1.949,0,0,1,.476.368,2.3,2.3,0,0,1,.382.643l-.046-.019a3.928,3.928,0,0,0,.8,1.133,2.644,2.644,0,0,0,1.017.583c.028.232.848.37,1.089.448l-.027.009c.343,0,.686.06,1.013.1a3.179,3.179,0,0,0,.913.029.2.2,0,0,1-.172.058l.684-.008c.232,0,.425-.008.454.037a1.992,1.992,0,0,0,1.051-.481,3.043,3.043,0,0,0,.639-.87,3.293,3.293,0,0,0,.293-1.553l.021.049a2.222,2.222,0,0,1,.108-.83c.018-.016.033-.041.038-.036a4.043,4.043,0,0,1,.194-.782,4.48,4.48,0,0,0,.159-.737l.069-.009c.05-.273.094-.546.127-.822l-.062.305c-.163-.133.219-.6.149-1.227.067-.576-.327-1.154-.3-1.728-.115-.266.164.229.053-.179.093-.027.081.189.143.071a4.284,4.284,0,0,0-.238-1.2l.062-.045c-.176-.312-.313-.616-.468-.892a1.53,1.53,0,0,0-.551-.614c-.565-.416-.213-.5-.907-.81l-.2-.236c-.273-.175-.258-.009-.55-.209.049-.049-.386-.233-.173-.2a10.99,10.99,0,0,0-2.582-.68c-.233.1-.756,0-.908.091-.025-.054-.984-.036-.429-.136.048-.009.132,0,.125.016l.068-.07a7.068,7.068,0,0,0-1.562.011c.163.029.38.028.233.074l-.511-.024.108-.058-.761-.057.1.079c-.372-.05-.5-.181-.923-.086-.192.054.351.111-.044.124-.5-.066-1.242-.164-1.877-.2.057.086-.114.079-.29.092l-.018-.074c-.678.084-.243-.169-.915-.107l.06-.05-.181.149c-.609.129-.322-.162-1,.018.266-.005.121.166-.206.125l.085-.069a1.848,1.848,0,0,1-.363.02c.109-.036.059-.1-.206-.1l.181-.084-.507.118a11.242,11.242,0,0,1-1.161-.113,3.526,3.526,0,0,0-1.028.032c.169-.064-.29-.1-.156-.179a2.583,2.583,0,0,1-1.112.027l.049-.008c-.944-.111-1.622.07-2.468-.056.037.086-.411.028-.3.14-.881.084-1.6-.268-1.923.063a2.432,2.432,0,0,1-.678-.115l.1-.015c-.75.007-.967,0-1.523-.019-.278.025-.327.181-.823.129.163-.058-.041-.052-.227-.057.119-.006.156-.028-.086-.078a.511.511,0,0,1-.138.038c0-.005-.012-.009-.006-.016-.311.013-.258.035-.113.047-.008.01,0,.022.049.041-.32-.09-.9-.019-.934-.128-.934,0-1.605.091-2.383.111-.086-.058.1-.1.324-.117l-.552,0c.006-.08.318-.037.489-.049a3.551,3.551,0,0,0-1.017-.027,6.85,6.85,0,0,1-1.153,0l-.17.081-.051,0c.005.032-.172.1-.283.136-.12-.049-.029-.156-.394-.085a9.241,9.241,0,0,0-1.185.2c.207,0,.143.041.055.071-.186.014-.3-.052-.438-.017l-.021-.093c.077.087-.484.1-.555.14-.107-.069.291-.06.337-.114-.749.012-.373.009-1.129,0-.41.059.072.091-.125.167a7.269,7.269,0,0,1-1.135.016l.134.081a10.84,10.84,0,0,1-1.556.083c-.162.05-.3.093-.449.155a2.372,2.372,0,0,1-.345.2c-.23.058-.466-.012-.618.076-.2.109-.272.272-.421.4a1.377,1.377,0,0,1-.381.245c-.138.091-.137.153-.055.2a.861.861,0,0,0,.668-.07c.133-.058.254-.134.289-.14a.146.146,0,0,1,.046.015.13.13,0,0,1,.03.029c.026.011.165.037.155.035a1.5,1.5,0,0,0,.4.024,1.275,1.275,0,0,0,.325-.078c.052-.019.1-.042.153-.065s.035-.011.035-.011-.011.009.017.005l.136-.021.535-.067c.353-.039.7-.068,1.071-.094.734-.057,1.578-.056,2.763-.14Z" transform="translate(-109.678 -184.877)" fill="#1c1d1d"/>
    </g>
    <g id="그룹_32" data-name="그룹 32" transform="translate(63.47 134.101)">
      <path id="패스_207" data-name="패스 207" d="M89.69,224.1l-.06.025C89.643,224.133,89.662,224.13,89.69,224.1Z" transform="translate(-86.808 -221.323)" fill="#1c1d1d"/>
      <path id="패스_208" data-name="패스 208" d="M141.49,281.376l.014-.006A.03.03,0,0,0,141.49,281.376Z" transform="translate(-133.072 -272.413)" fill="#1c1d1d"/>
      <path id="패스_209" data-name="패스 209" d="M69.32,235.153l0,0v-.019Z" transform="translate(-68.689 -231.162)" fill="#1c1d1d"/>
      <path id="패스_210" data-name="패스 210" d="M65.959,199.9c-.329.338-.464.486-.652.667a3.545,3.545,0,0,0-.55.709c-.118.15-.228.313-.334.477a4.023,4.023,0,0,0-.32.59c.014.236-.228.5-.2.753l-.1.059a.317.317,0,0,1-.055.243l-.018-.011c.019.126-.052.242-.039.3l-.019-.01-.025.138-.023-.03a1.8,1.8,0,0,1-.09.587h.087c-.158.372,0,.532-.129.88l-.021-.005c.218.447-.163.747.166,1.219-.041-.055-.037.037-.058.038.071.226.208.474.355.4.071.156.022.151-.027.2.066-.036.168.084.251.2a.321.321,0,0,1-.059-.037,3.037,3.037,0,0,0,.295.295l.041-.159c.117.175-.081.17.111.269l.065-.1c.229.19.288.393.514.57,1.064.407,2.12.032,2.958.281l.036.088c.013.127.245-.181.274-.064l.1-.055c.028.024.086.05.036.077.093.008.1-.013.164-.05l.1.082a1.624,1.624,0,0,0,.527,0c.16-.02.408-.045.629-.06a2.454,2.454,0,0,0,.914-.111,4.556,4.556,0,0,1,.8-.111c.363-.065.765.078,1.281.052a1.793,1.793,0,0,0,.762-.219,1.215,1.215,0,0,0,.524-.593c.031-.014.038-.1.025-.1l.186-.282.182-.251.168-.248c.088-.137.222-.333.286-.421a1.553,1.553,0,0,1,.268-.243c.125-.107.216-.243.2-.327s-.1-.112-.249-.131l-.282-.039a.993.993,0,0,0-.5.062,2.045,2.045,0,0,0-.22.1l-.006-.033a1.1,1.1,0,0,0-.5.762c-.151-.086-.206.268-.288.3l-.008-.014c-.014.276-.3.284-.3.438-.005-.014-.036-.049-.017-.071-.042.078-.133.179-.193.093-.181.151-.549.127-.784.266l.016-.027c-.129.1-.161.005-.312.046-.008-.014-.017-.022-.015-.027-.152.092-.439-.028-.576.014l-.005-.067a3.282,3.282,0,0,0-.337.015l.128.01c-.029.18-.276-.109-.5.051-.222.015-.336.456-.553.406-.08.1.058-.15-.07-.063-.019-.093.054-.069.006-.138-.126.066-.22-.064-.368,0l-.008-.073c-.191.135-.426-.108-.576.018-.244.054-.155-.223-.412-.086l-.095-.1c-.108-.019-.081.12-.2.069.009-.063-.15-.054-.078-.112-.265-.106-.558.124-.906-.051-.08.121-.252.042-.312.132-.009-.053-.344-.025-.147-.131.017-.009.046-.005.043.015l.026-.071c-.185-.146-.351.057-.533.017.052.029.125.03.072.074l-.169-.028.042-.056c-.082-.022-.162-.044-.24-.069l.022.08c-.115-.057-.127-.191-.276-.113-.072.044.086.125-.041.12-.146-.085-.337-.226-.487-.322-.019.085-.063.062-.118.055l.03-.068c-.152.011.053-.161-.08-.155l.04-.031a1.49,1.49,0,0,1-.123.09c-.187,0,.067-.118-.165-.135.041.046-.12.117-.138.024l.072-.017c-.037-.03-.071-.03-.074-.063.051,0,.1-.029.064-.091l.1.005-.165-.07c.026-.11-.092-.272-.009-.333-.01,0,.018-.249-.1-.3.073.045.085-.095.169-.06-.077-.06-.148-.262-.063-.341l.009.016c.1-.291-.079-.531.071-.794-.086,0-.014-.14-.128-.125-.05-.319.334-.469.041-.664.023-.137.122-.133.16-.193l.008.037a1.807,1.807,0,0,1,.158-.484c.006-.1-.136-.18-.025-.311.031.076.052.011.08-.044-.009.04.006.06.079.01a.123.123,0,0,1-.016-.059s.01,0,.014.005c.03-.093.006-.088-.026-.055a.05.05,0,0,0-.042-.006c.121-.043.145-.244.25-.2.178-.287.23-.547.361-.8.064.006.065.088.033.167l.1-.174c.064.049-.03.12-.054.179.243-.115.185-.473.442-.628l-.016-.084.018-.008c-.027-.019-.027-.1-.011-.137.079.01.126.1.2-.016.122-.055.148-.261.206-.378-.055.044-.069,0-.067-.037.041-.05.114-.029.128-.084l.071.06c-.082-.043.047-.184.041-.228.074.026-.032.111-.005.16.177-.181.086-.092.275-.269.063-.145-.077-.051-.078-.158.085-.095.145-.224.3-.271l-.087-.037a.707.707,0,0,1,.464-.315c.532-.838.377-1.082.2-1.093a1.024,1.024,0,0,0-.469.135c-.624.282-.851.651-1.5,1.408Z" transform="translate(-63.47 -198.358)" fill="#1c1d1d"/>
    </g>
    <g id="그룹_33" data-name="그룹 33" transform="translate(66.486 126.33)">
      <path id="패스_211" data-name="패스 211" d="M93.325,181.265l.023-.055C93.333,181.214,93.322,181.229,93.325,181.265Z" transform="translate(-93.119 -175.289)" fill="#1c1d1d"/>
      <path id="패스_212" data-name="패스 212" d="M136.07,170.142h.014A.026.026,0,0,0,136.07,170.142Z" transform="translate(-131.253 -165.414)" fill="#1c1d1d"/>
      <path id="패스_213" data-name="패스 213" d="M102.79,164.53v0l.008.012Z" transform="translate(-101.563 -160.408)" fill="#1c1d1d"/>
      <path id="패스_214" data-name="패스 214" d="M92.8,132.529a2.608,2.608,0,0,1-.053-.619,2.864,2.864,0,0,0-.068-.625c-.006-.129-.012-.259-.018-.394s-.008-.3-.011-.436c-.115-.145.031-.371-.053-.543l.079-.053a.159.159,0,0,1,0-.179l.021.006c-.041-.091.005-.18-.015-.225l.021.006.008-.1.026.023a.773.773,0,0,1,.041-.438l-.086,0c.08-.172.055-.148.045-.193s-.016-.083.042-.073l.017.018c-.082-.139-.028-.169.01-.145s.066.078.038-.162a.66.66,0,0,0,.03.117l0-.025a2.378,2.378,0,0,0-.018-.5c.027-.046.032.082.046.23a.8.8,0,0,1,.024-.338l-.006.09.057-.172-.008-.361c.04.036,0,.459.035.3l.014-.338c.008.029-.019.246-.019.412s-.008.353-.011.5v.037c.013.119.052.114.111.161a.487.487,0,0,1,.144.189c.009.012.074.18.109.284a3.174,3.174,0,0,1,.1.357l-.064.069c-.108.072.265.106.176.186l.095.052c-.008.033,0,.093-.05.067.037.077.057.067.121.1l-.022.119c.125.32.414.471.614.758a1.514,1.514,0,0,0,.558.642,4.687,4.687,0,0,0,.717.4,1.373,1.373,0,0,1,.652.6,1.513,1.513,0,0,0,.668.7c0,.028.074.032.083.02a5.12,5.12,0,0,0,.482.38,2.542,2.542,0,0,0,.386.217,1.9,1.9,0,0,0,.824.193c.276-.013.455-.126.4-.264s-.286-.315-.571-.721l.021-.022a.765.765,0,0,0-.561-.241c.071-.155-.173-.142-.191-.228l.013-.008c-.216,0-.2-.3-.389-.322.014-.005.049-.038.078-.014-.1-.063-.238-.151-.17-.225-.242-.231-.593-.585-.848-.578l.028-.013c-.159.012-.129-.081-.264-.115,0-.015,0-.026,0-.029-.163.009-.3-.2-.4-.227l.036-.056-.193-.134.059.066c-.138.122-.067-.2-.264-.217-.094-.115-.494.058-.544-.132-.117,0,.15-.041.023-.084.069-.065.081,0,.118-.071-.109-.056-.045-.2-.181-.272l.055-.05c-.219-.065-.119-.33-.29-.358-.152-.128.121-.219-.1-.312l.051-.114c-.025-.079-.137.008-.136-.1.058-.025-.009-.125.069-.1a.493.493,0,0,0-.15-.283.625.625,0,0,1-.091-.154,1,1,0,0,1-.037-.255c-.15-.047-.175-.325-.276-.334.04-.052-.178-.451.011-.3.016.014.032.056.016.071l.068-.029c-.02-.392-.251-.4-.328-.7l-.029-.018.024.03c.012.114.036.17-.01.163a.79.79,0,0,1-.02-.09l-.108-.078.059-.062-.208-.166.005.106c-.078-.109-.092-.258-.193-.2-.042.032.047.152-.025.119-.043-.068-.1-.159-.15-.235a.349.349,0,0,1-.04-.076c0,.04-.008.025,0,.016V126.4c.017-.014.038-.035-.053-.044l.009-.014-.028.047c-.1.085-.054-.095-.176.035.05-.013.031.115-.032.115l.012-.065c-.036.017-.043.051-.071.041.021-.041,0-.1-.058-.094a.786.786,0,0,1,.032-.09.783.783,0,0,0-.1.138.255.255,0,0,0-.153-.052c-.059.113-.109.23-.155.186a.924.924,0,0,0-.185.5c0-.152-.115.016-.136-.129-.005.191-.084.523-.19.582l0-.031a1.644,1.644,0,0,0-.2.66,1.482,1.482,0,0,1-.113.539c.086,0,.016.132.129.117.059.283-.3.455.017.605,0,.125-.1.135-.126.2l-.014-.032a2.831,2.831,0,0,1-.035.48c.025.091.179.119.129.27-.058-.055-.053.01-.056.068-.008-.038-.029-.052-.077.023a.111.111,0,0,1,.038.046c-.005,0-.009,0-.015,0,.016.1.037.083.047.039.01,0,.022,0,.04-.013-.087.1-.009.282-.115.289a3,3,0,0,0,.209.771c-.052.035-.107-.017-.137-.09l.042.178c-.08.01-.059-.1-.081-.152-.1.238.189.424.126.682l.072.036-.006.016c.032-.008.088.035.107.067-.059.049-.156.035-.124.149-.046.1.107.281.189.388-.013-.073.031-.064.064-.042.022.06-.025.119.021.155l-.084.042c.07-.056.156.119.2.122-.046.064-.1-.065-.151-.058a3.434,3.434,0,0,0,.19.341c.128.081.064-.066.167-.052.074.091.189.147.213.285l.046-.08a.509.509,0,0,1,.241.4c.7.434.925.465,1.009.282a.9.9,0,0,0-.054-.511c-.207-.671-.61-.72-.885-1.212Z" transform="translate(-91.42 -126.33)" fill="#1c1d1d"/>
    </g>
    <g id="그룹_34" data-name="그룹 34" transform="translate(100.315 128.27)">
      <path id="패스_215" data-name="패스 215" d="M414.22,182.758l.044,0A.033.033,0,0,0,414.22,182.758Z" transform="translate(-413.221 -178.603)" fill="#1c1d1d"/>
      <path id="패스_216" data-name="패스 216" d="M451.63,178.56l.008.008Z" transform="translate(-446.595 -174.865)" fill="#1c1d1d"/>
      <path id="패스_217" data-name="패스 217" d="M429.481,182h0v0Z" transform="translate(-426.835 -177.934)" fill="#1c1d1d"/>
      <path id="패스_218" data-name="패스 218" d="M406.483,149.467c.345-.287.53-.278.732-.6a1.662,1.662,0,0,0,.165-.187,3.069,3.069,0,0,0,.229-.3c-.027-.163.184-.249.163-.414l.086,0c-.007-.056,0-.111.051-.131l.016.013c-.014-.082.045-.131.038-.172l.017.012.026-.073.021.025a.489.489,0,0,1,.1-.309l-.083-.026c.168-.16.026-.29.191-.432l.019.009c-.166-.238.161,0,0-.218.019.031.036.036.053.056a.836.836,0,0,0-.132-.281c.014-.031.046.037.092.113a.29.29,0,0,1-.054-.187l.014.05.014-.1-.087-.193c.046.012.1.246.1.156l-.06-.183c.047-.033.147.241.19.382.012,0,.023-.012.033-.031.041-.017.09-.058.146-.04s.109.115.073.254l-.059.082c-.095.1.153-.123.068-.024l.053-.024a.151.151,0,0,1-.059.054c0,.015.018,0,.056-.008a.6.6,0,0,1-.064.054c-.03.006.037.111.088.172a.536.536,0,0,1,.132.234c-.051.322.153.474.228.734.094.161,0,.358-.08.565a.508.508,0,0,0-.111.463c-.02.008.013.045.027.049l-.1.328a1.782,1.782,0,0,0-.046.258,1.214,1.214,0,0,0,.043.53c.059.168.176.267.311.217a3.713,3.713,0,0,0,.6-.427l.026.011c.088-.142.126-.24.019-.393.17.02.052-.141.116-.173l.013.008c-.1-.141.163-.214.071-.36.013.008.058.018.055.047,0-.093-.022-.224.078-.219a3.286,3.286,0,0,0,.01-.381.372.372,0,0,0-.108-.261l.027.01c-.1-.077-.012-.094-.064-.18.013,0,.02-.01.026-.009-.1-.083-.016-.248-.068-.32l.066-.01c-.01-.06-.022-.122-.037-.183l0,.071c-.182,0,.1-.159-.056-.275-.017-.148-.428-.1-.38-.235-.1-.021.146,0,.058-.054.088-.033.068.014.133-.029-.068-.057.05-.152-.044-.219l.068-.029c-.169-.068.006-.255-.145-.286-.119-.131.147-.221-.062-.333l.047-.138c-.026-.1-.123.025-.128-.1.05-.041-.021-.153.05-.148-.051-.313-.3-.272-.382-.668-.087.1-.139-.091-.2,0,.013-.069-.164-.173-.04-.222.011,0,.026.012.019.037l.032-.078c-.076-.265-.207-.061-.3-.169.028.053.068.076.036.115l-.092-.085.024-.059-.15-.155.02.108c-.069-.1-.116-.288-.2-.216-.035.056.084.172,0,.16l-.016-.014a.974.974,0,0,0-.345.163.176.176,0,0,1-.016.173l-.027-.084c-.072.248-.1-.149-.184.079l-.012-.072.038.215c-.017.292-.132-.108-.122.269.03-.073.106.15.05.187l-.031-.1c-.014.058,0,.1-.027.115-.01-.065-.057-.123-.084-.043l-.033-.137c0,.087.012.177.021.261-.1.03-.1.285-.192.254,0,0-.132.228-.049.352-.044-.093-.11.041-.17-.043.047.117.053.35-.049.394a.024.024,0,0,1-.005-.013c-.125.122.027.286-.12.375.081.027.011.076.119.1.04.182-.309.129-.033.334-.016.067-.108.028-.138.049l-.008-.023a.478.478,0,0,1-.11.213c0,.052.125.155.043.2-.032-.059-.044-.027-.063,0,0-.022-.011-.04-.066-.037a.112.112,0,0,1,.018.042.081.081,0,0,1-.013-.01c-.015.05.005.057.027.045a.073.073,0,0,0,.035.019c-.093-.014-.092.108-.173.037a2.169,2.169,0,0,0-.191.463.107.107,0,0,1-.053-.129l-.056.094c-.059-.053.007-.077.017-.112-.183.012-.074.279-.256.307l.028.063h-.013a.124.124,0,0,1,.032.1c-.065-.032-.118-.108-.16-.055-.084-.008-.074.129-.1.2.033-.017.053.018.058.046-.022.025-.082-.011-.08.026l-.066-.066c.07.056,0,.124.021.161-.058-.04,0-.078-.033-.121a1.753,1.753,0,0,1-.128.126c-.008.094.064.065.087.148-.037.047-.05.14-.139.125l.062.059c-.067.117-.146.14-.247.092-.137.237-.267.393-.322.521a.3.3,0,0,0,0,.288.42.42,0,0,0,.23.125.616.616,0,0,0,.153.014c.592.018.777-.4,1.1-.789Z" transform="translate(-404.963 -144.311)" fill="#1c1d1d"/>
    </g>
    <g id="그룹_35" data-name="그룹 35" transform="translate(108.092 140.27)">
      <path id="패스_219" data-name="패스 219" d="M542.54,309.49c.006.056.009.112.01.169C542.563,309.653,542.57,309.609,542.54,309.49Z" transform="translate(-535.473 -303.668)" fill="#1c1d1d"/>
      <path id="패스_220" data-name="패스 220" d="M558.752,490.09l0,.039C558.754,490.1,558.754,490.093,558.752,490.09Z" transform="translate(-549.934 -464.782)" fill="#1c1d1d"/>
      <path id="패스_221" data-name="패스 221" d="M532.071,358.5h0l0-.01Z" transform="translate(-526.133 -347.381)" fill="#1c1d1d"/>
      <path id="패스_222" data-name="패스 222" d="M482.353,260.189a3.956,3.956,0,0,1,.723,1.9c.042.293.07.594.086.947.005.178.011.367.017.574v.331c0,.131,0,.267.006.411,0,.534.026,1.047,0,1.509-.016.522-.125.727-.209.788a.063.063,0,0,1-.112.053l-.225-.229a2.3,2.3,0,0,0-.325-.283.106.106,0,0,1,.016-.1c-.022,0-.044-.017-.058-.072a.733.733,0,0,1,0-.251l.022.01a3.557,3.557,0,0,1-.053-.679l.02.012a2.168,2.168,0,0,1,.022-.256l.023.041a.52.52,0,0,0,0-.1c-.008-.028.06-.125.169-.194a1.335,1.335,0,0,1,.391-.164l-.056-.073a4.428,4.428,0,0,1,.884-.1.59.59,0,0,1,.285.064.956.956,0,0,1,.328.278l-.02.009a1.726,1.726,0,0,1,.73.984,5.074,5.074,0,0,0,.648,1.311c-.085-.118-.014.074-.038.072.254.464.46.947.618.9.124.345.046.3,0,.36.07-.026.2.264.246.528l-.052-.115a3.566,3.566,0,0,1,.1.771l.137-.164c-.037.442-.165.11-.141.533h.117c-.049.617-.27.986-.369,1.616a8.572,8.572,0,0,1-.23,1.767,1.71,1.71,0,0,1-.305.635,1.22,1.22,0,0,1-.264.194,2.072,2.072,0,0,1-.357.158,1.273,1.273,0,0,1-1.32-.185,1.921,1.921,0,0,1-.365-.6.208.208,0,0,1,.109-.276.425.425,0,0,1,.083.05c.058.043,0,.009.091-.071s.215-.14.248-.083a1.5,1.5,0,0,1,.174-.054c.056.038.169.09.065.094.178.054.2.01.327.038.046.054.095.1.133.148a2.528,2.528,0,0,1,.775,2.115c-.061.606-.166,1.473-.181,2.471a14.287,14.287,0,0,1-.2,2.454,6.408,6.408,0,0,1-1.121,2.706A8.758,8.758,0,0,1,483,284.07c-.169.162-.336.319-.51.462s-.407.34-.575.519a.423.423,0,0,0-.159.179,10.423,10.423,0,0,1-1.4,1.034l-.5.281a10.764,10.764,0,0,0-1.175.763,5.708,5.708,0,0,0-.658.528,3.236,3.236,0,0,0-.518.66,6.656,6.656,0,0,0-.468.92l.532.1c-.12-.17-.206-.176-.234.073l-.109-.022a2.754,2.754,0,0,0,.638-.5,6.577,6.577,0,0,1,.5-.44,3.991,3.991,0,0,1,.719-.408l-.019.047,1.057-.633a5.145,5.145,0,0,0,.865-.613c.091.044.293-.078.475-.225a4.175,4.175,0,0,1,.467-.373l-.009.025a3.081,3.081,0,0,1,.711-.6,3.08,3.08,0,0,0,.724-.575c-.011.026.009.071-.106.168.373-.3.761-.809.857-.771a6.669,6.669,0,0,0,1.489-2.934l.011.054a8.89,8.89,0,0,1,.219-.913c.018-.019.032-.048.037-.041.015-.43.257-1.2.259-1.545l.068-.012c.031-.278.062-.557.077-.836l-.041.311c-.085-.064-.044-.217.011-.434a2.1,2.1,0,0,0,.058-.785c.052-.531-.289-1.135-.182-1.7-.079-.278.133.248.077-.167.095-.012.055.2.133.091a6.35,6.35,0,0,0,0-1.2l.07-.03c-.113-.337-.148-.664-.241-.972a1.613,1.613,0,0,0-.168-.433.832.832,0,0,0-.272-.326,4.224,4.224,0,0,0-.315-.315,2.075,2.075,0,0,1-.166-.2.787.787,0,0,0-.211-.154.946.946,0,0,0-.459-.113,3.177,3.177,0,0,0-.315-.166c-.426-.031-.29.1-.715.122.005-.033-.128-.016-.242.012s-.235.072-.091-.023a1.362,1.362,0,0,0-.773.588,1.182,1.182,0,0,0-.093.982,3.163,3.163,0,0,0,.395.783c.072.111.147.221.241.344a2.67,2.67,0,0,0,.363.373c.313.106.939.324,1.146.219a1.456,1.456,0,0,0,.536.012c.21-.023.342-.033.012.085-.057.021-.164.027-.159.005l-.079.079a1.67,1.67,0,0,0,.979-.2,3.708,3.708,0,0,0,.858-.626,2.287,2.287,0,0,1-.287.219c-.066.033-.09.036-.027-.035a1.975,1.975,0,0,0,.51-.527l-.033.155a3.088,3.088,0,0,0,.462-.859l-.113.094c.174-.4.33-.527.3-1-.027-.213-.16.364-.118-.061a14.247,14.247,0,0,0,.281-1.911c-.089.053-.074-.114-.08-.295l.076-.016c-.066-.7.187-.237.118-.965l.052.065-.156-.193a1.069,1.069,0,0,1-.042-.544.823.823,0,0,0-.165-.584c.082.29-.117.168-.188-.176l.094.066a3.114,3.114,0,0,1-.152-.364c.074.1.122.021.006-.242l.152.149q-.157-.235-.322-.451c-.091-.41-.452-.928-.426-1.11,0,0-.073-.186-.173-.4a1.593,1.593,0,0,0-.327-.518c.145.131-.06-.324.076-.235a10.592,10.592,0,0,1-.787-1.038l.047.038a2.171,2.171,0,0,0-1.488-.845,4.944,4.944,0,0,0-1.5.161c.071.054-.464.233-.288.281a2.363,2.363,0,0,0-.9.835,1.926,1.926,0,0,0-.193.8.591.591,0,0,0,.151.457c.039.427-.068.476-.024.791-.017-.045-.032-.091-.045-.133a1.425,1.425,0,0,0,.306.668c.122.146.207.219.282.3a4.77,4.77,0,0,0,.614.584.756.756,0,0,0,.492.089,1.77,1.77,0,0,0,.67-.213c-.183.169.089.028.3-.156-.135.119-.147.178.139-.031.019-.049.06-.111.093-.173.005,0,.017-.008.018,0,.215-.373.137-.32.044-.155,0-.014-.02,0-.068.035a1.338,1.338,0,0,0,.3-.656c.044-.219.06-.374.118-.393.057-1.021-.138-1.643-.146-2.429.056-.093.1.1.121.328,0-.18-.005-.379-.017-.569.082,0,.05.331.06.507a8.745,8.745,0,0,0-.2-2.226l-.1-.151,0-.05c-.029.01-.121-.154-.169-.265.03-.131.162-.041.015-.429a2.911,2.911,0,0,0-.714-1.163c.123.2.047.158-.027.091-.126-.16-.142-.3-.275-.4l.056-.078c0,.063-.12-.031-.228-.121s-.206-.188-.243-.2c-.012-.12.222.173.291.16a7.1,7.1,0,0,1-.683-.848c-.306-.3-.025.113-.21,0a8.08,8.08,0,0,0-.845-.84l.06.147a2.158,2.158,0,0,1-.662-.5c-.145-.182-.254-.386-.415-.577-1.121-.626-1.747-1.049-2.036-.959-.29.057-.327.155-.146.259l.363.379c.082.088.179.193.269.276l.135.122c.2.186.384.331.536.463a3.142,3.142,0,0,1,.342.323,5.066,5.066,0,0,0,.448.512,3.745,3.745,0,0,0,.573.413,3.038,3.038,0,0,1,.739.722c.145.175.3.375.5.592.091.1.22.231.314.323a3.113,3.113,0,0,1,.248.265Z" transform="translate(-477.04 -255.529)" fill="#1c1d1d"/>
    </g>
    <g id="그룹_36" data-name="그룹 36" transform="translate(64.329 143.351)">
      <path id="패스_223" data-name="패스 223" d="M100.041,415.35l-.081.327C99.976,415.674,100,415.593,100.041,415.35Z" transform="translate(-96.882 -401.188)" fill="#1c1d1d"/>
      <path id="패스_224" data-name="패스 224" d="M466.454,518.017c-.009-.026-.016-.053-.024-.077A.488.488,0,0,0,466.454,518.017Z" transform="translate(-423.812 -492.709)" fill="#1c1d1d"/>
      <path id="패스_225" data-name="패스 225" d="M81.03,532.473a.075.075,0,0,1,0-.017c0-.029,0-.059,0-.085Z" transform="translate(-79.995 -505.582)" fill="#1c1d1d"/>
      <path id="패스_226" data-name="패스 226" d="M73.986,294.093a13.518,13.518,0,0,0-.256,1.578c-.021.469-.055.859-.1,1.254-.1.777-.225,1.466-.35,2.167s-.252,1.418-.354,2.267c-.047.426-.091.885-.106,1.4-.009.482-.019,1.006-.03,1.583-.028,1.1-.058,2.229-.087,3.357-.033,1.106-.119,2.211-.23,3.267.015,1.016-.361,2.777-.445,3.978l-.144.45a8.6,8.6,0,0,1-.184,1.318l-.016-.029c-.041.63-.159,1.341-.158,1.663l-.018-.028c-.021.259-.039.519-.047.781l-.023-.137c-.006.564,0,1.142.041,1.706.019.283.042.561.076.834.026.257.052.509.076.753l.076-.094a3.777,3.777,0,0,0,.358,1.531,2.389,2.389,0,0,0,1,1,5.22,5.22,0,0,0,1.13.395,9.176,9.176,0,0,1,1.165.4l-.033.012a5.186,5.186,0,0,0,.981.139c.274.008.535.022.789.04.507.038.984.084,1.462.136a20.241,20.241,0,0,0,3.172.137c-.311.014.131.05.1.07a6.691,6.691,0,0,0,2.389-.125c.833.026.676.069.784.137a4.738,4.738,0,0,1,1.371-.087l-.3.026,1.864-.012-.366-.14c.987.041.251.175,1.2.136l-.013-.115c1.366.016,2.171.174,3.5.221,1.373-.024,2.788-.12,4.178-.2l2.092-.133c.349-.019.7-.054,1.046-.06l1.043.008,4.142.052a38.721,38.721,0,0,1,3.931-.021l.222.094c.094.129,1.417-.149,1.608-.026l.586-.04c.152.029.492.082.205.089a5.757,5.757,0,0,0,.959.025c.2.04.408.079.625.1a2.99,2.99,0,0,0,1.868-.468,3.194,3.194,0,0,0,1.056-1.514c.2-.535.312-1.017.464-1.533s.289-1.057.41-1.643a7.542,7.542,0,0,0,.2-1.19c.033-.421.057-.856.071-1.324a16.653,16.653,0,0,0-.156-3,10.43,10.43,0,0,0-.353-1.543c-.081-.251-.17-.5-.27-.739q-.134-.33-.263-.651c-.33-.856-.586-1.681-.779-2.386a24.752,24.752,0,0,1-.668-3.135c-.078-.546-.156-1.1-.236-1.657-.033-.264-.083-.592-.1-.808-.008-.168.027-.556-.005-.856s-.068-.6-.1-.864l-.059-.843q-.065-.848-.129-1.683c-.095-1.115-.211-2.209-.37-3.264a1.835,1.835,0,0,0-.085-.489l-.181-1.943a17.769,17.769,0,0,0-.263-2,7.507,7.507,0,0,0-.209-.814,5.933,5.933,0,0,0-.971-1.9c-1.109-1.484-3.3-1.923-4.108-2.765-.34-.289-.248-.979-.274-1.368,0-.416-.068-.633-.141-.5a2.378,2.378,0,0,0-.15.435,4.3,4.3,0,0,0-.178.992,1.294,1.294,0,0,0,.2.771,2.834,2.834,0,0,0,.666.7c.537.423,1.235.806,1.946,1.293l-.093-.023a4.3,4.3,0,0,1,1.676,1.738,9.435,9.435,0,0,1,.738,1.941c-.106.237.2,1.7.187,2.216l-.018-.046c.259,1.289.154,2.694.395,3.937a.7.7,0,0,1-.1-.357,11.458,11.458,0,0,1,.18,2.239c.057.546.12,1.146.183,1.761.044.3.088.607.133.912s.012.473.047.918a28.338,28.338,0,0,0,.619,3.007l-.044-.091c.248.773.2,1.024.442,1.9,0,.051,0,.115,0,.106.276.838.644,2.5.944,3.158l-.046.066c.21.573.434,1.069.572,1.6-.045-.2-.106-.4-.165-.595.248.15.285,1.217.493,2.413a17.9,17.9,0,0,1,.3,3.562c.039.576-.094-.509-.1.342-.094.016-.022-.4-.117-.189a13.6,13.6,0,0,1-.524,2.328l-.083.019a6.375,6.375,0,0,1-.589,1.759,2.346,2.346,0,0,1-.856.913,1.573,1.573,0,0,1-1.02.076,5.039,5.039,0,0,0-1.2-.084c-.191-.05-.384-.1-.593-.14-.642-.036-.459.109-1.16.041.044-.062-.884-.074-.471-.123-.4-.036-.784-.05-1.212-.055s-.862.022-1.3.053a14.809,14.809,0,0,1-2.8.041c-.456.111-1.518.015-1.859.1-.055-.055-2.123-.057-.932-.146.1-.008.283,0,.271.019l.143-.069a17.233,17.233,0,0,0-3.371.053c.353.006.82-.023.508.043l-1.1.043.228-.072-1.645.044.23.065a8.515,8.515,0,0,0-1.985.041c-.4.082.757.061-.08.131l-4.017-.015c.128.083-.237.085-.613.109l-.044-.073c-1.44.117-.53-.153-1.958-.069l.126-.051-.378.153c-1.293.14-.694-.155-2.131.025.568,0,.265.168-.434.123l.178-.068a7.337,7.337,0,0,1-.774.014c.231-.032.124-.1-.445-.1l.383-.079-1.078.1c-.826-.1-2.145-.062-2.48-.18a16.775,16.775,0,0,0-2.193-.057c.361-.045-.618-.134-.333-.2a9.8,9.8,0,0,1-1.159.013c-.234-.009-.469-.023-.681-.042a1.311,1.311,0,0,1-.439-.088l.081.006c-.378-.086-.808-.274-1.3-.4a8.058,8.058,0,0,1-1.122-.32c-.539-.229-.77-.694-.8-1.6-.072.1-.145-.885-.224-.627-.33-1.794.238-3.278-.019-3.978a9.123,9.123,0,0,1,.31-1.417l-.014.2c.231-1.6.3-2.056.469-3.24a10.278,10.278,0,0,1,.074-1.771c.022.352.063-.084.106-.484-.017.257,0,.339.095-.182a2.475,2.475,0,0,1-.012-.3c.005,0,.011-.025.017-.013.042-.671.01-.557-.026-.247-.009-.016-.023.009-.05.1.153-.685.143-1.938.25-2.018.049-2.023-.035-3.441-.026-5.113.06-.186.1.205.107.689l.018-1.172c.077.009.019.664.027,1.034.079-.714.071-1.393.131-2.141a15.334,15.334,0,0,1,.319-2.329l-.012-.35.025-.1a2.053,2.053,0,0,1,0-.62c.1-.227.162.04.25-.788a6.289,6.289,0,0,0,.093-1.3,7.04,7.04,0,0,1,.109-1.343c-.1.454-.108.3-.094.1.044-.2.08-.369.114-.525a4.166,4.166,0,0,0,.07-.412l.1-.016c-.058.063-.036-.179.029-.471s.151-.634.152-.711c.132-.207-.118.633-.093.737.219-.785.273-.983.328-1.179a9.863,9.863,0,0,1,.378-1.116c.282-.775-.148.1-.054-.293A2.938,2.938,0,0,1,77.373,289a1.659,1.659,0,0,0-.273.059,4.409,4.409,0,0,1,1.652-.65c.506-.1.966-.145,1.457-.2a7.718,7.718,0,0,0,1.72-.613,1.116,1.116,0,0,0,.561-.477,1.47,1.47,0,0,0,.141-.612,6.61,6.61,0,0,1,.026-1.791,3.666,3.666,0,0,1,.189-.448.292.292,0,0,0,.038-.166c-.019-.052-.122.009-.273.137a1.889,1.889,0,0,0-.477,1c-.07.37-.084.725-.12,1a1.1,1.1,0,0,1-.129.481.3.3,0,0,1-.05.041l-.17.067c-.1.037-.2.084-.305.112q-.309.1-.627.169c-.425.094-.852.165-1.288.238a7.7,7.7,0,0,0-2.706.851,4.351,4.351,0,0,0-1.186,1.085,5.973,5.973,0,0,0-.732,1.436c-.183.507-.317,1.036-.453,1.568q-.105.408-.219.842c-.038.154-.073.318-.1.492l-.036.265-.024.217Z" transform="translate(-71.433 -284.088)" fill="#1c1d1d"/>
    </g>
    <g id="그룹_37" data-name="그룹 37" transform="translate(64.578 141.337)">
      <path id="패스_227" data-name="패스 227" d="M84.73,270.26l.033.027A.033.033,0,0,0,84.73,270.26Z" transform="translate(-83.544 -269.738)" fill="#1c1d1d"/>
      <path id="패스_228" data-name="패스 228" d="M142.84,272.746l.006-.007Z" transform="translate(-135.384 -271.95)" fill="#1c1d1d"/>
      <path id="패스_229" data-name="패스 229" d="M94.935,279.17h0l0,.01Z" transform="translate(-92.643 -277.686)" fill="#1c1d1d"/>
      <path id="패스_230" data-name="패스 230" d="M74.915,267.052c.328-.044.448.086.722-.042a3.039,3.039,0,0,0,.392-.107c.05-.132.161-.015.227-.119l.026.071c.026-.036.047-.062.081-.022l0,.02c.047-.053.1-.019.121-.045l0,.021.056-.008-.011.029a.242.242,0,0,1,.234-.028l0-.086c.151.1.213-.077.349.042l0,.021c.183-.222.273.163.461-.049-.024.026.009.044.005.066.084-.023.174-.032.18-.2.06,0,.047.054.054.12a.1.1,0,0,1,.1-.107l-.023.028.137-.022-.023-.14c.071.042.013.172.083.139l0-.115c.1.026.152.2.247.291a1.966,1.966,0,0,0,.619-.061,1.416,1.416,0,0,1,.305-.027.32.32,0,0,1,.215.091v.088c-.018.125.108-.173.1-.054l.046-.05c0,.024.019.053,0,.077.03.012.037-.008.069-.04l.015.085c.111.093.276-.014.433.067a.517.517,0,0,0,.4.169,1.7,1.7,0,0,0,.448-.044c.168-.067.315.039.443.145s.236.236.4.173c0,.021.038-.011.042-.025l.217.094.081.039a1.1,1.1,0,0,0,.524.176h.67l-.129-.324c-.066-.164-.221-.26-.56-.118l.18-.108c-.014-.1.014-.2.009-.347l.022-.018a.351.351,0,0,0-.432-.205c.041-.167-.132-.065-.149-.129l.009-.012c-.141.091-.172-.175-.3-.1.008-.012.023-.056.046-.051-.078,0-.182,0-.163-.1-.177-.04-.415-.119-.544.016l.012-.026c-.078.095-.079,0-.153.044a.181.181,0,0,1,0-.026c-.082.093-.183-.016-.24.019l.01-.066-.12-.009.04.023c-.053.175-.065-.13-.169-.033-.065-.039-.252.324-.315.213-.065.069.076-.122,0-.077.026-.092.045-.049.052-.125-.071.025-.066-.122-.159-.083l.019-.071c-.136.1-.16-.151-.266-.047-.124.029-.017-.233-.174-.122l-.027-.108c-.052-.027-.063.111-.114.053.015-.061-.069-.064-.023-.115-.129-.123-.32.1-.481-.069-.035.122-.11.046-.136.138,0-.054-.153-.013-.065-.126.008-.01.021-.008.019.014l.012-.072c-.083-.139-.159.071-.243.047.025.025.058.019.035.069l-.079-.012.018-.06-.118-.039.014.076c-.057-.041-.073-.169-.141-.064-.031.059.052.1-.01.125a1,1,0,0,0-.289-.16c.006.085-.019.082-.047.1v-.074c-.11.1-.036-.164-.142-.085l.011-.052-.032.153c-.1.143-.046-.154-.158.042.042-.012.015.163-.036.129l.015-.071c-.029.014-.039.044-.057.028.018-.038.012-.1-.03-.093l.03-.088-.083.128c-.058-.078-.158.015-.179-.086,0,0-.129-.053-.163.056.028-.068-.043-.1-.019-.176-.037.077-.138.137-.176.053l.008-.009c-.146-.089-.257.108-.386,0,0,.086-.066.038-.052.147-.141.1-.243-.23-.3.108-.063.016-.071-.082-.11-.1l.018-.017a1.083,1.083,0,0,1-.279.028c-.049.037-.045.191-.134.163.022-.065-.012-.05-.044-.046.019-.012.024-.036-.024-.072a.115.115,0,0,1-.019.043c0-.005,0-.009,0-.015-.052.028-.04.046-.014.052a.074.074,0,0,0,.013.038c-.067-.076-.152.027-.175-.079-.159.05-.245.182-.359.25a.11.11,0,0,1,.024-.134l-.085.04c-.018-.078.041-.056.066-.078-.138-.1-.189.177-.337.094l-.009.067-.01-.009a.134.134,0,0,1-.021.1c-.035-.063-.04-.154-.1-.135-.064-.052-.122.068-.17.12.035,0,.035.042.027.07-.028.01-.063-.053-.077-.017l-.027-.09c.033.082-.049.111-.05.151-.033-.063.029-.069.023-.122l-.165.056c-.042.083.032.083.024.169-.049.031-.086.108-.16.066l.038.077c-.087.086-.152.088-.235.018-.324.4-.381.617-.3.762a.44.44,0,0,0,.272.178c.4.125.534-.159.881-.317Z" transform="translate(-73.737 -265.42)" fill="#1c1d1d"/>
    </g>
    <g id="그룹_38" data-name="그룹 38" transform="translate(102.315 143.725)">
      <path id="패스_231" data-name="패스 231" d="M429.84,292.42l.023.03C429.859,292.435,429.852,292.422,429.84,292.42Z" transform="translate(-429.156 -291.895)" fill="#1c1d1d"/>
      <path id="패스_232" data-name="패스 232" d="M466.77,291.218l0-.008Z" transform="translate(-462.101 -290.815)" fill="#1c1d1d"/>
      <path id="패스_233" data-name="패스 233" d="M437.243,301.91h0l0,.01Z" transform="translate(-435.758 -300.361)" fill="#1c1d1d"/>
      <path id="패스_234" data-name="패스 234" d="M424.243,289.16c.209-.005.3.139.476.033a.926.926,0,0,0,.265-.094c.023-.132.111-.018.146-.129l.027.068c.012-.038.028-.064.049-.027v.021c.019-.056.051-.028.059-.055V289l.028-.011,0,.03c.037-.059.08-.067.117-.041l-.007-.086c.081.093.108-.083.178.031l0,.02c.121-.223.172.16.294-.052-.015.027,0,.044,0,.066.054-.023.111-.034.119-.2.039,0,.029.054.032.12,0-.074.037-.1.068-.108l-.015.028.087-.023-.012-.14c.044.042.005.17.051.138l0-.115c.063.025.094.2.153.289.255.057.538-.23.769-.019l.009.087c0,.127.07-.187.077-.069l.029-.057c.008.023.023.047.009.076.026.005.027-.015.046-.053l.025.08c.1.065.189-.086.293-.052.128.165.355.024.519-.06.226-.193.437.3.515.1,0,.018.011-.021.014-.035l.092.047a.712.712,0,0,0,.123.037.67.67,0,0,0,.361-.01.237.237,0,0,0,.165-.292,2.354,2.354,0,0,1-.126-.614l.011-.026c-.033-.081-.086-.12-.211-.016.047-.165-.092-.051-.108-.112l.006-.013c-.113.1-.18-.152-.274-.042,0-.013.01-.06.03-.06-.065.015-.14.05-.14-.05-.136.022-.287-.018-.343.142l0-.028c-.032.108-.045.017-.081.072a.242.242,0,0,1,0-.025c-.035.107-.1.016-.136.059v-.066l-.081.013.03.015c-.015.181-.058-.115-.12,0-.054-.025-.121.374-.175.284-.029.084.027-.137-.015-.073,0-.095.021-.059.012-.135-.041.044-.063-.1-.113-.036v-.073c-.068.133-.118-.1-.164.027-.068.059-.038-.22-.111-.078l-.024-.1c-.029-.017-.025.122-.056.072,0-.063-.04-.052-.019-.11-.071-.1-.153.136-.245-.033-.025.122-.071.047-.09.139,0-.053-.1-.012-.039-.125.005-.01.013-.008.012.013l.009-.072c-.051-.138-.1.072-.156.05.015.025.037.018.022.068l-.051-.012.013-.06-.074-.038.008.076c-.036-.04-.044-.169-.09-.063-.021.059.031.1-.008.125a.626.626,0,0,0-.181-.158c0,.085-.014.082-.032.1v-.073c-.07.1-.018-.163-.087-.083l.008-.052-.023.154c-.065.145-.027-.154-.1.043.027-.012.006.163-.025.131l.011-.071c-.018.014-.026.044-.037.029.012-.038.01-.1-.017-.092l.021-.088-.055.129c-.036-.078-.1.016-.112-.084,0,0-.081-.052-.1.058.019-.068-.026-.095-.01-.175-.025.077-.091.138-.112.055l.005-.01c-.1-.086-.2.11-.3.013.008.085-.047.041-.03.15-.092.113-.2-.21-.208.132-.041.023-.06-.073-.085-.088l.009-.019a.318.318,0,0,1-.164.044c-.026.037-.006.193-.064.164.006-.065-.013-.05-.032-.046.011-.012.011-.036-.022-.072a.133.133,0,0,1-.008.043.137.137,0,0,0,0-.015c-.029.027-.021.045,0,.052a.1.1,0,0,0,.012.038c-.049-.074-.092.022-.115-.083-.094.042-.139.166-.208.222a.141.141,0,0,1,.007-.129l-.052.031c-.016-.078.023-.052.037-.071-.094-.111-.11.154-.21.057l0,.065-.006-.009a.168.168,0,0,1-.009.094c-.026-.065-.036-.155-.072-.144-.044-.058-.077.052-.107.1.024.007.026.045.022.071-.018.007-.044-.058-.052-.026l-.023-.091c.027.084-.027.1-.025.142-.026-.065.015-.065.008-.117l-.108.039c-.023.078.027.084.027.168-.03.026-.05.1-.1.051l.031.078c-.051.078-.093.078-.154,0a.914.914,0,0,0-.1.75.343.343,0,0,0,.185.176c.249.136.3-.125.516-.242Z" transform="translate(-423.5 -287.55)" fill="#1c1d1d"/>
    </g>
    <g id="그룹_39" data-name="그룹 39" transform="translate(68.457 149.08)">
      <path id="패스_235" data-name="패스 235" d="M123.452,480.13l-.042.285C123.426,480.411,123.441,480.339,123.452,480.13Z" transform="translate(-121.93 -464.707)" fill="#1c1d1d"/>
      <path id="패스_236" data-name="패스 236" d="M369.556,348.14l-.066.009A.26.26,0,0,0,369.556,348.14Z" transform="translate(-341.459 -346.958)" fill="#1c1d1d"/>
      <path id="패스_237" data-name="패스 237" d="M123.07,584.271l-.016-.009-.084-.032Z" transform="translate(-121.537 -557.576)" fill="#1c1d1d"/>
      <path id="패스_238" data-name="패스 238" d="M110.4,349.062c-.063.456-.141.893-.191,1.317-.025.211-.045.42-.055.624-.011.188-.021.368-.03.543-.041.694-.078,1.3-.114,1.916-.071,1.227-.131,2.47-.153,4.453-.014.473-.028.953-.042,1.437l-.016.728c0,.183-.03.414-.055.662s-.05.508-.054.794a2.385,2.385,0,0,0,.169,1.02,2.779,2.779,0,0,0,1.348,1.32,9.96,9.96,0,0,0,3.682.646l.412.085a8.1,8.1,0,0,1,1.166-.017l-.023.021c.546-.059,1.158-.057,1.425-.1l-.022.022.656-.046-.111.036c.939-.113,1.9-.2,2.75-.257l-.079-.079c.908-.038,1.521-.12,2.109-.192a9.612,9.612,0,0,1,1.923-.1l-.021.021c2.048-.176,3.253.244,5.383.086-.267.019.112.047.091.068.983-.011,2.023.06,2.045-.114.712.043.578.086.668.156a3.335,3.335,0,0,1,1.174-.043l-.257.014,1.595.066-.306-.158c.843.089.206.182,1.017.2l0-.117c1.168.09,1.844.3,2.968.453l1.776.106a5.224,5.224,0,0,0,2.01-.147,2.117,2.117,0,0,0,1.5-1.728,7.6,7.6,0,0,0-.013-1.944c-.029-.3-.023-.532-.04-.893a8.052,8.052,0,0,0-.127-.945c-.118-.615-.241-1.146-.315-1.726-.17-1.152-.32-2.282-.432-3.373l.057-.2c.113-.1-.366-1.17-.274-1.352l-.132-.5c0-.146-.009-.449.052-.2a4.381,4.381,0,0,0-.155-.809l.016-.513c-.169-1.854-.517-3.4-.727-5.349-.046-.605-.082-1.246-.1-2.046a17.771,17.771,0,0,0-.219-2.566,6.255,6.255,0,0,0-.391-1.367,3.463,3.463,0,0,0-.385-.667,2.218,2.218,0,0,0-.346-.327,3.086,3.086,0,0,0-.361-.2,6.142,6.142,0,0,0-2.388-.331l-2.834.137a7.948,7.948,0,0,1-1.4-.059c-.131-.011-.266-.019-.413-.018a1.755,1.755,0,0,0-.492.072c-.142.041-.252.079-.327.092a.254.254,0,0,1-.139-.005,18.849,18.849,0,0,0-5.8-.408,1.281,1.281,0,0,0-.429.051c-1.131.03-2.255.095-3.374.155l-2.341.135c-1.328.078-2.944.108-4.2.078a7.074,7.074,0,0,0-1.572.107c-.369.084-.522.181-.4.231s.516.066,1.245.182a29.841,29.841,0,0,0,3.394.442l-.084.029a21.569,21.569,0,0,0,4.284-.246,10.676,10.676,0,0,0,1.94-.035l-.04.016c1.112-.186,2.3.014,3.361-.084a.524.524,0,0,1-.311.062,6.178,6.178,0,0,1,1.884.114,18.574,18.574,0,0,1,2.241.277,1.512,1.512,0,0,0,.778-.077,2.26,2.26,0,0,1,.345-.11,6.248,6.248,0,0,1,.832.01,7.378,7.378,0,0,0,1.543-.134l-.081.032a11.963,11.963,0,0,1,1.639-.149c.041.013.095.018.086.024a6.278,6.278,0,0,1,2.595.224l0,.072a1.578,1.578,0,0,1,.237.127,1.06,1.06,0,0,1,.155.165,2.527,2.527,0,0,1,.283.57,2.886,2.886,0,0,0-.183-.45c.121.024.211.266.284.62s.114.83.231,1.343a29.047,29.047,0,0,1,.47,3.064c.135.5-.182-.436-.041.319-.093.039-.095-.353-.151-.146.131.737.052,1.214.227,2.11l-.069.045c.281,1.16.18,2.232.406,3,.211,1.205-.115.843.186,2.088l-.038.5c.065.542.179.369.22.973-.068-.028.064.762-.049.421.107,1.371.546,2.715.655,4.542.19.395.3,1.273.42,1.524-.023.027.032.447.014.722-.008.338-.024.551-.085,0-.008-.073-.012-.206.01-.2l-.079-.1c-.01.115-.018.219-.027.319a3.9,3.9,0,0,0,0,.4c.011.26.044.493.073.715a3.357,3.357,0,0,1,.028,1.24c.076-.208.084-.562.118-.33a1.669,1.669,0,0,1-.185.671.743.743,0,0,0,0-.138.874.874,0,0,1-.631.5c.053.012.1.016.156.024a1.8,1.8,0,0,1-.625.059,6.009,6.009,0,0,0-.783.026c-.337.042.612.134-.079.121-.9-.108-2.286-.261-3.458-.352.1.092-.211.07-.537.069l-.033-.076c-1.253.031-.449-.189-1.691-.177l.111-.045-.334.136c-1.123.083-.6-.188-1.845-.058.491.015.224.176-.378.109l.155-.063a6.161,6.161,0,0,1-.669-.008c.2-.027.109-.1-.383-.113l.332-.07-.933.079c-.715-.123-1.851-.04-2.143-.154a11.881,11.881,0,0,0-1.895.008c.312-.059-.537-.11-.292-.183a8.624,8.624,0,0,1-2.05,0l.09-.007a10.9,10.9,0,0,0-2.419.119,21.337,21.337,0,0,1-2.2.209c.079.08-.746.108-.533.2-1.6.257-2.933-.009-3.5.343a6.141,6.141,0,0,1-1.236-.083l.173-.017a12.5,12.5,0,0,1-2.7-.184,2.785,2.785,0,0,1-1.379-.257c.268.056-.054-.065-.3-.224.161.1.214.1-.07-.135a.829.829,0,0,1-.175-.1c0-.005-.006-.017,0-.017-.293-.306-.259-.249-.142-.083-.014,0-.013.018.013.081a2.333,2.333,0,0,1-.184-.343.912.912,0,0,1-.073-.382,1.149,1.149,0,0,1,.088-.607q.028-.319.054-.618a5.881,5.881,0,0,0,.015-.62c-.006-.379-.013-.74-.019-1.093-.016-.7-.036-1.37-.037-2.088.059-.16.1.177.109.593l.009-1.017c.079.011.029.586.037.9.163-1.207-.058-2.5.1-3.915l-.055-.3.013-.084a1.48,1.48,0,0,1-.074-.526c.074-.2.16.018.175-.685a10.1,10.1,0,0,0,.046-1.058c.012-.4.044-.828.076-1.2-.066.391-.086.258-.087.087a6.024,6.024,0,0,0,.135-.834l.1-.028c-.051.069-.051-.173-.062-.449s-.013-.561-.03-.626c.074-.2.044.547.094.637.033-1.4.016-.7.05-2.1,0-.7-.1.122-.151-.223.026-.317.067-.641.11-.983.019-.175.04-.35.06-.532a1.551,1.551,0,0,1,.1-.5c-.047.066-.092.131-.133.2.037-.288.142-.558.186-.826s.041-.508.06-.727a4.907,4.907,0,0,1,.337-1.2,4.987,4.987,0,0,1,1.01-2.52,3.225,3.225,0,0,1,1.294-.846c.615-.26.537-.316.2-.342a4.919,4.919,0,0,0-.778.1,3.155,3.155,0,0,0-.947.44,3.3,3.3,0,0,0-.648.61,2.408,2.408,0,0,0-.218.294,7.9,7.9,0,0,0-1,2.517l-.07.269a2.83,2.83,0,0,0-.071.382c-.028.241-.029.438-.039.593a1.913,1.913,0,0,1-.05.384c-.032.137-.095.321-.146.564a2.7,2.7,0,0,0-.053.4l-.013.247c-.012.165-.033.34-.057.529a10.006,10.006,0,0,0-.118,1.307c0,.425,0,.872,0,1.346a11.533,11.533,0,0,1-.057,1.459Z" transform="translate(-109.69 -337.188)" fill="#1c1d1d"/>
    </g>
  </g>
</svg>
