<svg xmlns="http://www.w3.org/2000/svg" width="71.32" height="39.637" viewBox="0 0 71.32 39.637">
  <g id="campain01" transform="translate(-188.98 -321.098)">
    <g id="그룹_40" data-name="그룹 40" transform="translate(192.483 342.95)">
      <path id="패스_239" data-name="패스 239" d="M203.1,388.488c0,.023-.1.053-.272.082-.089.02-.2.052-.328.082a4.121,4.121,0,0,0-.43.164,3.054,3.054,0,0,0-1.021.742,3.188,3.188,0,0,0-.45.66,3.04,3.04,0,0,0-.266.857,2.057,2.057,0,0,0-.026.322c0,.056,0,.108,0,.164s0,.121.007.184c.007.246.013.505.02.768s.023.538.033.82c0,.141.007.282.01.423v.272a.731.731,0,0,0-.023.285,4.34,4.34,0,0,0,.476-.1l.049-.01h.023a.08.08,0,0,1,.033-.007,1.709,1.709,0,0,1,.184,0,1.474,1.474,0,0,1,.374.056,15.207,15.207,0,0,0,2.071-.036c.719-.043,1.47.079,2.251-.036.778-.24,1.588.266,2.422-.036.837-.066,1.7-.046,2.589-.033a11.683,11.683,0,0,0,2.747-.033,7.513,7.513,0,0,0,2.9-.03,5.377,5.377,0,0,0,3.046-.026A27.2,27.2,0,0,0,222.7,394c1.083-.02,2.186-.076,3.311-.023a10.492,10.492,0,0,1,3.436-.02,12.862,12.862,0,0,1,3.551-.02c1.2.121,2.422-.19,3.662-.016,1.237.013,2.491-.049,3.764-.013a17.03,17.03,0,0,0,3.856-.013,31,31,0,0,1,3.945-.01,15.452,15.452,0,0,1,4.027-.007c1.355-.039,2.721.128,4.1,0,1.378.036,2.763-.1,4.165,0,.515.026,1.027.052,1.539.066.226,0,.453.01.679.013a.939.939,0,0,0,.171-.01.771.771,0,0,0-.026-.131c-.007-.02-.013-.039-.02-.056v-.007s-.007,0-.007-.02l-.007-.069-.013-.138a9.9,9.9,0,0,1-.053-1.031c0-.171,0-.345.007-.515l.007-.256c0-.085.007-.18,0-.233a1.973,1.973,0,0,0-.5-1.414,1.721,1.721,0,0,0-1.273-.837,4.522,4.522,0,0,0-.85,0c-.335.013-.666.016-1,0-1.329.02-2.645-.125-3.945-.01a36.843,36.843,0,0,1-3.856-.013c-1.27.335-2.524-.085-3.761-.016-1.237-.141-2.458.023-3.659-.016-1.2.062-2.386-.154-3.551-.02-1.165-.03-2.31.108-3.436-.02-1.126.164-2.228-.141-3.311-.023-1.083,0-2.146.01-3.183-.026a11.15,11.15,0,0,0-3.046-.026,18.914,18.914,0,0,1-2.9-.03,20.322,20.322,0,0,0-2.75-.03c-.889.039-1.752-.381-2.589-.033a11.573,11.573,0,0,0-2.425-.033,7.584,7.584,0,0,1-2.251-.036c-.719-.013-1.411-.026-2.071-.036-2.967-.056-5.3-.118-6.892-.18a11.072,11.072,0,0,1-2.442-.2,14.986,14.986,0,0,1,3-.223c1.949-.072,4.8-.138,8.4-.2a9.874,9.874,0,0,1,2.251-.036,18.545,18.545,0,0,1,2.425-.036,8.757,8.757,0,0,1,2.589-.033c.893-.013,1.808.066,2.75-.03.942-.141,1.91.069,2.9-.03a10.9,10.9,0,0,0,3.046-.026,24.028,24.028,0,0,0,3.183-.026,11.791,11.791,0,0,0,3.311-.023c1.126-.082,2.271.033,3.436-.02,1.165.043,2.35-.059,3.551-.02a19.188,19.188,0,0,1,3.659-.016c1.237-.072,2.494-.013,3.761-.013,1.27-.089,2.557.01,3.856-.013a25.96,25.96,0,0,0,3.945-.01c.331-.007.663-.01,1-.007a5.276,5.276,0,0,1,1.162.1,4.109,4.109,0,0,1,2.123,1.28,3.884,3.884,0,0,1,.853,2.343c0,.348.007.7.01,1.047s.016.686.033,1.03l-.023.138-.01.069a.409.409,0,0,1,0,.049v.062c-.016.164-.03.328-.039.489-.02.322-.033.633-.043.942-.456-.013-.893-.016-1.336-.01h-.272l-.19.01-.384.016c-.512.026-1.024.069-1.539.105-1.4.069-2.786.033-4.165,0-1.378.023-2.744.01-4.1,0-1.355.072-2.7-.105-4.027-.007s-2.642-.112-3.945-.01a26.058,26.058,0,0,1-3.856-.013,22.539,22.539,0,0,0-3.764-.013,11.614,11.614,0,0,1-3.662-.016c-1.2.085-2.386-.164-3.551-.02a16.487,16.487,0,0,0-3.436-.02,23.281,23.281,0,0,0-3.311-.023c-1.083.118-2.146-.066-3.183-.026-1.037.141-2.051-.187-3.046-.026-.991-.033-1.959.023-2.9-.03a6.962,6.962,0,0,1-2.747-.03,10.985,10.985,0,0,1-2.589-.033,6.125,6.125,0,0,1-2.422-.036c-.778-.072-1.529.108-2.251-.036a12.352,12.352,0,0,1-2.071-.036,3.639,3.639,0,0,0-.374-.046l-.184-.01h-.246c-.335,0-.676.016-1.011.023,0-.2,0-.4,0-.6-.01-.2-.016-.413-.02-.62,0-.154,0-.292,0-.433a8.106,8.106,0,0,1,.059-.817q.01-.4.02-.768c0-.062,0-.121.007-.184s.01-.131.016-.2a2.874,2.874,0,0,1,.053-.381,3.31,3.31,0,0,1,.377-.988,3.486,3.486,0,0,1,.571-.719,3.067,3.067,0,0,1,1.7-.824,2.937,2.937,0,0,1,.358-.016c.19.013.286.033.286.056Z" transform="translate(-199.653 -387.685)" fill="#010101"/>
    </g>
    <path id="패스_240" data-name="패스 240" d="M200.123,418.791c-.082-.046-.105-.19-.1-.394v-.112a.141.141,0,0,1,.007-.121c.131.007-.184-.158.01-.135.066-.026.033-.089.01-.144s.108-.072.01-.158c-.22-.115.286-.036.01-.171-.049-.069-.016-.121.01-.18.19-.02.026-.121.01-.19.233-.02.148-.108.007-.2.312-.02.276-.1.007-.213,0-.072.125-.131,0-.223-.01-.075-.056-.158,0-.233-.194-.1-.18-.174,0-.243-.21-.1-.121-.174,0-.249s-.18-.177-.007-.259c.016-.089-.046-.177-.007-.266.092-.089.19-.181-.01-.272-.053-.092-.125-.184-.01-.282-.233-.092-.131-.187-.013-.286-.043-.1.118-.2-.013-.292.033-.1-.112-.194-.016-.3.062-.105.125-.21-.016-.3s.049-.2-.016-.3c.21-.115-.085-.187-.016-.292-.03-.092.108-.2-.016-.286-.049-.089-.1-.177-.016-.279-.341-.056.066-.19-.016-.272.131-.105-.039-.174-.016-.266-.072-.079.135-.19-.013-.259.016-.089-.128-.151-.01-.249-.174-.059.115-.181-.01-.24a.508.508,0,0,1-.007-.233c.246-.112.023-.154-.007-.223.016-.076-.167-.118,0-.213.01-.072.112-.158,0-.2-.049-.059.354-.19,0-.194-.072-.049.243-.164,0-.181-.22-.02.007-.115.007-.167s.007-.108.01-.154c.033-.446.108-.719.246-.748s.361.246.574.755c.023.052.21.075.062.161.01.059.158.1.066.174.249.023.066.118.066.187.023.062-.043.144.062.2.148.049-.046.154.062.21-.135.1-.085.164.062.223-.131.1.052.151.059.233-.21.112-.043.171.056.243s-.01.174.053.253c-.03.092.079.167.053.263.115.079.164.164.049.272.082.085.036.187.046.282.1.085.01.194.039.289.056.1-.217.217.036.3.039.1-.02.207.033.305a.35.35,0,0,0,.026.312c-.233.118-.079.217.02.315a.333.333,0,0,1,.013.318.784.784,0,0,1,.007.315c.075.1-.1.21,0,.308s-.108.2-.01.3c.072.1.108.2-.013.3,0,.1-.226.187-.023.289.046.1.315.207-.03.282.079.1-.174.174-.036.272-.256.072-.03.177-.046.266-.053.082-.148.158-.049.256s-.085.161-.056.246c.128.1-.21.131-.066.233-.046.072,0,.158-.069.22.312.138-.033.148-.075.207-.059.059.184.19-.079.194.23.128,0,.138-.082.177s.066.151-.089.164c.151.112-.128.075-.089.144-.125.01-.039.1-.089.128.02.059-.013.1-.089.112-.03.033-.056.066-.082.092-.174.164-.305.22-.387.174Z" transform="translate(-7.247 -58.929)" fill="#010101"/>
    <path id="패스_241" data-name="패스 241" d="M212.442,416.321a.4.4,0,0,1-.089-.338V415.9c-.01-.036-.02-.072.007-.092.125.03-.174-.154.007-.1.062-.007.033-.059.007-.108s.1-.036.01-.115c-.213-.118.276.016.007-.125-.049-.059-.016-.092.01-.131.187.01.026-.089.007-.138.226.013.148-.062.007-.144.305.02.272-.049.007-.154,0-.052.125-.085,0-.161-.013-.059-.056-.118,0-.167-.194-.082-.18-.135,0-.174-.21-.079-.118-.128,0-.18s-.18-.135,0-.187c.016-.066-.046-.131-.007-.194.092-.062.19-.131-.01-.2-.053-.069-.125-.135-.01-.207-.233-.066-.135-.135-.013-.21-.039-.069.118-.151-.013-.217.033-.076-.112-.138-.016-.22.066-.079.128-.158-.016-.22s.049-.151-.016-.217c.21-.1-.085-.135-.016-.213-.03-.069.108-.158-.016-.213-.049-.066-.1-.128-.016-.207-.341-.02.066-.144-.016-.2.131-.089-.039-.128-.013-.2-.072-.052.131-.154-.013-.194.016-.066-.128-.105-.013-.187-.174-.03.115-.144-.01-.18a.313.313,0,0,1-.01-.174c.246-.108.023-.118-.007-.167.016-.059-.167-.076-.007-.161.01-.056.112-.128,0-.154-.046-.039.351-.177,0-.144-.069-.03.24-.148,0-.138-.217.007.007-.089.007-.128s.007-.082.01-.118c.033-.345.105-.558.243-.6s.358.148.571.522c.02.036.21.036.062.118.01.043.158.059.066.128.246-.007.066.085.062.138.023.046-.043.115.062.148.148.023-.046.121.062.158-.135.085-.085.135.062.167-.131.085.053.112.059.177-.207.1-.043.135.059.184s-.01.135.056.194c-.03.072.079.125.053.2.115.053.164.118.049.207.082.059.036.141.046.213.1.062.01.151.039.223.059.069-.217.18.036.226.039.076-.02.161.033.233-.023.082-.049.164.026.24-.233.1-.079.171.02.246.075.079.046.161.013.246a.469.469,0,0,1,.007.243c.075.079-.1.164,0,.24s-.112.161-.01.236c.072.079.108.157-.016.233,0,.079-.226.141-.023.226.046.076.312.174-.033.223.079.082-.174.131-.039.217-.256.046-.03.138-.046.207-.056.062-.151.118-.053.2s-.082.121-.059.19c.125.1-.207.089-.066.18-.043.052-.007.125-.072.171.308.148-.033.115-.075.158-.059.039.174.177-.082.148.22.135,0,.112-.085.135s.059.131-.089.118c.141.115-.125.043-.089.1-.121-.013-.043.069-.089.089.016.052-.013.079-.085.076a.643.643,0,0,1-.082.059c-.167.1-.289.115-.364.059Z" transform="translate(-15.52 -58.955)" fill="#010101"/>
    <path id="패스_242" data-name="패스 242" d="M391.243,418.808c-.082.046-.213-.007-.387-.171l-.082-.092c-.039-.03-.082-.062-.089-.108.1-.085-.253-.013-.089-.128.036-.069-.03-.1-.089-.144s.036-.135-.085-.161c-.246,0,.226-.19-.082-.177a.182.182,0,0,1-.079-.194c.164-.108-.03-.138-.076-.207.2-.115.1-.167-.069-.22.286-.125.23-.19-.066-.233-.02-.079.089-.177-.056-.246-.03-.082-.1-.161-.049-.256-.21-.069-.21-.161-.043-.266-.226-.076-.141-.174-.036-.276s-.2-.181-.03-.282c.01-.1-.056-.19-.023-.292.085-.1.187-.2-.016-.3-.053-.1-.128-.2-.007-.3-.23-.105-.125-.21,0-.309-.036-.105.135-.2.007-.312.039-.105-.092-.217.013-.318.075-.1.148-.2.02-.315s.076-.2.026-.309c.223-.085-.053-.21.033-.305-.013-.1.144-.187.036-.3-.03-.1-.062-.2.043-.289-.322-.131.105-.18.046-.282.151-.076,0-.187.049-.272-.052-.1.174-.161.053-.263.039-.082-.085-.187.056-.256-.154-.105.161-.148.056-.243a.57.57,0,0,1,.059-.233c.269-.039.066-.144.059-.223.039-.069-.121-.167.062-.21.033-.066.158-.115.062-.2-.026-.072.4-.066.066-.187-.053-.072.282-.076.066-.174-.2-.1.046-.108.062-.161s.043-.1.066-.144c.194-.417.374-.637.512-.607.154.033.23.361.256.9,0,.053.174.141.007.167-.01.056.118.138,0,.181.23.1.023.131,0,.194,0,.066-.089.118,0,.2.128.089-.092.125,0,.213-.158.049-.131.128-.007.223-.154.053.007.158-.007.233-.233.046-.089.148-.01.243s-.056.158-.01.249c-.056.079.036.177-.013.259.1.1.121.19-.016.266.062.1-.007.18-.016.272.079.1-.03.184-.016.279.036.1-.253.167-.016.282.023.1-.056.19-.016.289a.3.3,0,0,0-.016.3c-.249.082-.105.194-.016.3a.3.3,0,0,1-.016.3.726.726,0,0,1-.016.292c.069.1-.108.19-.013.285s-.112.187-.01.279c.072.092.108.181-.01.272,0,.089-.217.184-.007.266.049.089.331.158,0,.259.089.079-.158.18,0,.249-.24.1,0,.164,0,.24-.043.082-.115.171,0,.233s-.046.158,0,.223c.151.049-.161.167.007.21-.02.072.043.131.007.2.341,0,.023.121.007.19-.036.072.24.066.01.181.259-.01.059.1.01.167s.131.069.01.158c.184-.01-.062.121.01.144-.1.082.02.085.01.135.053.023.053.062.007.121v.112c.007.2-.016.345-.1.391Z" transform="translate(-134.819 -58.955)" fill="#010101"/>
    <path id="패스_243" data-name="패스 243" d="M378.923,416.31c-.076.059-.194.043-.361-.056a.612.612,0,0,1-.079-.059c-.036-.016-.079-.036-.085-.072.092-.089-.243.036-.089-.089.033-.062-.03-.079-.085-.105s.033-.115-.089-.118c-.243.036.217-.187-.082-.131-.079-.03-.082-.089-.082-.144.161-.1-.03-.108-.075-.158.2-.115.089-.144-.072-.171.282-.128.226-.171-.066-.181-.023-.062.085-.144-.059-.19-.03-.062-.1-.125-.053-.2-.21-.043-.21-.118-.046-.207-.226-.049-.144-.131-.036-.213s-.2-.135-.033-.22c.01-.076-.056-.148-.023-.227.085-.079.187-.154-.016-.233-.052-.076-.128-.158-.01-.236-.23-.082-.125-.164,0-.24-.036-.082.131-.154.007-.243.039-.079-.092-.171.013-.246.075-.076.148-.151.02-.243s.075-.158.026-.24c.223-.056-.053-.164.033-.233-.013-.079.141-.138.036-.226-.03-.079-.062-.161.043-.22-.322-.121.105-.135.046-.213.151-.049,0-.144.049-.207-.049-.079.174-.112.053-.2.039-.062-.082-.151.056-.194-.151-.1.161-.1.059-.184a.325.325,0,0,1,.059-.174c.266-.007.066-.108.059-.167.039-.049-.121-.141.062-.158.033-.049.154-.076.062-.148-.026-.059.394-.013.066-.138-.049-.062.282-.033.062-.128-.2-.092.046-.079.066-.118s.043-.072.066-.1c.19-.3.371-.453.505-.414.151.043.226.305.249.715,0,.043.171.125.007.128-.01.043.115.115,0,.138.226.1.023.1,0,.144,0,.049-.085.082,0,.154.125.079-.089.089,0,.161-.158.023-.128.085-.007.167-.154.03.007.118-.007.174-.23.016-.089.105-.01.181s-.053.115-.01.187c-.052.056.036.135-.013.194.1.082.121.151-.013.2.062.075-.007.135-.016.2.079.079-.03.135-.016.207.036.075-.256.112-.016.21.023.072-.056.138-.016.213-.036.069-.075.138-.016.217-.249.052-.105.141-.016.22.062.079.023.148-.016.22a.442.442,0,0,1-.013.217c.069.072-.108.138-.013.21s-.112.138-.01.207c.072.066.108.131-.01.2,0,.066-.217.141-.007.194.049.062.331.1,0,.187.089.052-.154.138,0,.18-.24.085,0,.118,0,.174-.043.062-.112.131,0,.167s-.049.118,0,.161c.151.02-.161.138.007.151-.023.056.043.089.007.144.335-.046.023.085.007.138-.036.059.236.01.01.128.253-.046.059.059.007.121s.128.026.01.112c.177-.039-.062.1.007.108-.1.082.023.059.007.1.049.007.049.036.007.092v.085A.393.393,0,0,1,378.923,416.31Z" transform="translate(-126.548 -58.961)" fill="#010101"/>
    <path id="패스_244" data-name="패스 244" d="M210.876,322.1a4.463,4.463,0,0,1,.135,1.254c.046.824.089,2.041.131,3.617q.02.788.039,1.693c.023.6.052,1.244.039,1.923-.121.679.23,1.395.039,2.146a19.661,19.661,0,0,0,.036,2.356c.043.82-.079,1.677.036,2.563.24.889-.266,1.812.033,2.763.033.476.046.962.046,1.451,0,.246,0,.492,0,.745,0,.125,0,.249,0,.377l-.007.171a1.509,1.509,0,0,0-.066.279,1.538,1.538,0,0,0,.309.016l.535-.03c.436-.03.876-.069,1.323-.082a9.812,9.812,0,0,0,3.3-.03,6.942,6.942,0,0,0,3.469-.026,35.284,35.284,0,0,0,3.626-.026c1.234-.02,2.491-.075,3.774-.023a13.6,13.6,0,0,1,3.915-.02,16.68,16.68,0,0,1,4.046-.02c1.368.121,2.76-.19,4.171-.016,1.411.013,2.839-.049,4.286-.013a22.1,22.1,0,0,0,4.394-.013,39.492,39.492,0,0,1,4.5-.01,19.648,19.648,0,0,1,4.585-.007c1.542-.039,3.1.125,4.67,0,.784.016,1.572-.007,2.363-.026.394-.01.791-.016,1.188-.013h.3l.016,0h.033a.665.665,0,0,0,.1.03h0a.542.542,0,0,0,.026-.079l.007-.026v-.013l0-.007h0v-.023l.01-.3c.013-.4.026-.794.03-1.188.01-.791-.01-1.579-.075-2.363-.148-1.569.062-3.124,0-4.667.217-1.546-.072-3.072.007-4.588-.023-1.513.125-3.013.01-4.493q-.02-.832-.039-1.654c0-.256,0-.512-.007-.768a.626.626,0,0,1,.01-.105.356.356,0,0,1-.066-.02l-.039-.013-.1-.007-.138-.01c-1.447.335-2.878-.085-4.286-.013-1.411-.141-2.8.02-4.171-.016-1.368.062-2.721-.154-4.046-.02-1.326-.03-2.632.108-3.915-.023-1.28.167-2.54-.138-3.774-.023-1.234,0-2.442.01-3.626-.026a14.449,14.449,0,0,0-3.469-.026,24.062,24.062,0,0,1-3.3-.03,26.335,26.335,0,0,0-3.131-.03c-1.014.039-2-.381-2.95-.033a15.013,15.013,0,0,0-2.763-.033,9.674,9.674,0,0,1-2.563-.036q-1.231-.02-2.36-.036c-3.377-.056-6.039-.118-7.85-.184a14.308,14.308,0,0,1-2.783-.2,19.359,19.359,0,0,1,3.416-.223c2.222-.072,5.471-.138,9.573-.2a12.792,12.792,0,0,1,2.563-.036,23.344,23.344,0,0,1,2.763-.033,11.352,11.352,0,0,1,2.95-.033c1.014-.013,2.058.066,3.131-.033,1.073-.141,2.176.072,3.3-.03a13.957,13.957,0,0,0,3.469-.026,31.167,31.167,0,0,0,3.626-.026,15.3,15.3,0,0,0,3.774-.023c1.283-.082,2.589.033,3.915-.02,1.326.043,2.678-.059,4.046-.02a24.917,24.917,0,0,1,4.171-.016c1.411-.072,2.839-.016,4.286-.016l.138-.007c.049,0,.079-.007.181-.007l.515-.01,1.044-.01v1.542c0,.289-.007.581-.013.873-.01.548-.016,1.1-.01,1.654a33.652,33.652,0,0,0,.01,4.493c.033,1.513-.039,3.042.007,4.588-.03,1.542-.066,3.1,0,4.667a13.238,13.238,0,0,0-.125,2.363c.01.394.03.791.052,1.188l.02.3.02.532c.013.377.026.758.036,1.135h0q-.985.02-1.966.033c-.4.007-.791.007-1.188,0-.791,0-1.579-.023-2.363-.039-1.569.023-3.128.01-4.67,0-1.542.072-3.072-.105-4.585-.007s-3.013-.112-4.5-.01a33.832,33.832,0,0,1-4.394-.013,29.21,29.21,0,0,0-4.286-.013,14.918,14.918,0,0,1-4.171-.016c-1.369.085-2.721-.164-4.046-.02a21.1,21.1,0,0,0-3.915-.02,30.225,30.225,0,0,0-3.774-.023c-1.234.118-2.445-.062-3.626-.026-1.185.144-2.34-.187-3.469-.026-1.129-.033-2.232.023-3.3-.03a3.741,3.741,0,0,1-1.323.141c-.627-.046-1.25-.089-1.864-.135.016-.305.033-.594.036-.873,0-.1,0-.2.007-.308v-.289c0-.125-.01-.253-.016-.377-.016-.249-.033-.5-.049-.745a4.48,4.48,0,0,1,.092-1.451,8.036,8.036,0,0,1,.033-2.763c.075-.886-.105-1.743.036-2.563a15.978,15.978,0,0,1,.036-2.356,18.292,18.292,0,0,0,.039-2.146,11.587,11.587,0,0,1,.039-1.923q.025-.906.039-1.693c.043-1.575.085-2.793.131-3.617a4.221,4.221,0,0,1,.138-1.254Z" transform="translate(-14.295 -0.126)" fill="#010101"/>
    <path id="패스_245" data-name="패스 245" d="M204.66,321.988a5.3,5.3,0,0,1,1.91-.266c.207-.013.427-.026.663-.043a5.065,5.065,0,0,1,.755-.039c.266.121.545-.23.84-.039a3.055,3.055,0,0,0,.925-.036,4.738,4.738,0,0,0,1-.036c.348-.24.709.266,1.083-.033a5.4,5.4,0,0,1,1.155-.033c.4.184.807,0,1.227-.03a1.562,1.562,0,0,0,1.293-.03,1.158,1.158,0,0,0,1.359-.026,5.438,5.438,0,0,0,1.421-.026,10.083,10.083,0,0,1,1.48-.023,2.153,2.153,0,0,1,1.536-.02,2.588,2.588,0,0,1,1.585-.02c.535.121,1.08-.19,1.634-.016.551.013,1.113-.049,1.68-.013a3.444,3.444,0,0,0,1.723-.013,6.1,6.1,0,0,1,1.762-.01,3.108,3.108,0,0,1,1.8-.007,12.587,12.587,0,0,0,1.828,0,17.524,17.524,0,0,1,1.857,0,5.6,5.6,0,0,0,1.857,0,12.582,12.582,0,0,1,1.828,0c.6.217,1.2-.072,1.8.007a11.293,11.293,0,0,0,1.762.01,7.376,7.376,0,0,1,1.723.013c.568-.335,1.126.085,1.68.013a8.785,8.785,0,0,0,1.634.016,11.654,11.654,0,0,0,1.585.02,7.956,7.956,0,0,1,1.533.02c.5-.167.994.138,1.48.023.482,0,.958-.01,1.421.026.463.259.916.046,1.359.026.443.03.873-.148,1.3.03a4.071,4.071,0,0,0,1.227.03c.4-.039.781.381,1.155.033.374-.062.735.266,1.083.033.348-.213.683.026,1,.036s.63.026.925.036c2.648.112,4.165.246,4.165.384,0,.158-1.874.3-5.09.423-.322.01-.656.194-1,.036a3.718,3.718,0,0,1-1.083.033c-.374.243-.758.046-1.155.033a6.18,6.18,0,0,0-1.227.03c-.42.141-.853-.069-1.3.03a2.212,2.212,0,0,0-1.359.026,4.925,4.925,0,0,0-1.421.026,2.4,2.4,0,0,0-1.48.023c-.5.082-1.014-.033-1.533.023-.522-.043-1.05.056-1.585.02a3.863,3.863,0,0,1-1.634.016,13.03,13.03,0,0,1-1.68.013,15.078,15.078,0,0,1-1.723.013c-.581.046-1.168-.236-1.762.01-.591.033-1.191-.039-1.8.007a11.721,11.721,0,0,0-1.828,0,3.466,3.466,0,0,0-1.857,0,10.642,10.642,0,0,1-1.857,0c-.617.023-1.224.013-1.828,0-.6.072-1.2-.105-1.8-.007s-1.178-.112-1.762-.01a5.146,5.146,0,0,1-1.723-.013,4.593,4.593,0,0,0-1.68-.013c-.551.046-1.1.322-1.634-.016-.538.085-1.067-.164-1.585-.02-.522-.249-1.03-.013-1.536-.023a4.674,4.674,0,0,0-1.48-.023,8.531,8.531,0,0,1-1.421-.026c-.463.144-.916-.187-1.359-.026-.443-.033-.873.023-1.293-.03-.42.335-.83,0-1.227-.03-.4-.049-.781.223-1.155-.033-.374.253-.735.033-1.083-.033s-.683.108-1-.036c-.322.177-.63-.1-.925-.036-.3-.118-.574-.007-.84-.039a1.793,1.793,0,0,1-.752-.039c-.236-.016-.456-.03-.663-.039a5.488,5.488,0,0,1-1.91-.266Z" transform="translate(-10.534 0)" fill="#010101"/>
    <path id="패스_246" data-name="패스 246" d="M204.66,337.174a5.3,5.3,0,0,1,1.91-.266l.663-.039a5.544,5.544,0,0,1,.755-.039c.266.121.545-.23.84-.039a2.953,2.953,0,0,0,.925-.036,4.738,4.738,0,0,0,1-.036c.348-.24.709.266,1.083-.033a5.619,5.619,0,0,1,1.155-.033c.4.184.807,0,1.227-.03a1.55,1.55,0,0,0,1.293-.03,1.159,1.159,0,0,0,1.359-.026,5.439,5.439,0,0,0,1.421-.026,10.083,10.083,0,0,1,1.48-.023,2.153,2.153,0,0,1,1.536-.02,2.588,2.588,0,0,1,1.585-.02c.535.121,1.08-.19,1.634-.016.551.013,1.113-.049,1.68-.013a3.444,3.444,0,0,0,1.723-.013,6.1,6.1,0,0,1,1.762-.01,3.108,3.108,0,0,1,1.8-.007,12.591,12.591,0,0,0,1.828,0,17.524,17.524,0,0,1,1.857,0,5.515,5.515,0,0,0,1.857,0,12.578,12.578,0,0,1,1.828,0c.6.217,1.2-.072,1.8.007a11.3,11.3,0,0,0,1.762.01,7.376,7.376,0,0,1,1.723.013c.568-.335,1.126.085,1.68.013a8.782,8.782,0,0,0,1.634.016,11.654,11.654,0,0,0,1.585.02,7.956,7.956,0,0,1,1.533.02c.5-.164.994.141,1.48.023.482,0,.958-.01,1.421.026.463.259.916.046,1.359.026.443.03.873-.148,1.3.03a3.967,3.967,0,0,0,1.227.03c.4-.039.781.381,1.155.033.374-.062.735.266,1.083.033.348-.213.683.026,1,.036s.63.026.925.036c2.648.115,4.165.246,4.165.384,0,.158-1.874.3-5.09.423-.322.01-.656.194-1,.036a3.719,3.719,0,0,1-1.083.033c-.374.243-.758.046-1.155.033a6.18,6.18,0,0,0-1.227.03c-.42.141-.853-.069-1.3.03a2.188,2.188,0,0,0-1.359.026,4.925,4.925,0,0,0-1.421.026,2.4,2.4,0,0,0-1.48.023c-.5.082-1.014-.033-1.533.023-.522-.043-1.05.056-1.585.02a3.917,3.917,0,0,1-1.634.016,13.03,13.03,0,0,1-1.68.013,15.078,15.078,0,0,1-1.723.013c-.581.046-1.168-.236-1.762.01-.591.03-1.191-.039-1.8.007a11.336,11.336,0,0,0-1.828.007,3.466,3.466,0,0,0-1.857,0,10.972,10.972,0,0,1-1.857,0c-.617.026-1.224.013-1.828-.007-.6.072-1.2-.105-1.8-.007s-1.178-.112-1.762-.01a5.146,5.146,0,0,1-1.723-.013,4.593,4.593,0,0,0-1.68-.013c-.551.046-1.1.322-1.634-.016-.538.082-1.067-.164-1.585-.02-.522-.246-1.03-.013-1.536-.023a4.772,4.772,0,0,0-1.48-.023,8.531,8.531,0,0,1-1.421-.026c-.463.141-.916-.187-1.359-.026-.443-.033-.873.02-1.293-.03-.42.335-.83,0-1.227-.03-.4-.046-.781.223-1.155-.033-.374.253-.735.036-1.083-.033s-.683.105-1-.036c-.322.177-.63-.1-.925-.036-.3-.118-.574-.007-.84-.039a1.793,1.793,0,0,1-.752-.039c-.236-.016-.456-.026-.663-.039a5.392,5.392,0,0,1-1.91-.266Z" transform="translate(-10.534 -10.205)" fill="#010101"/>
    <path id="패스_247" data-name="패스 247" d="M204.66,355.162a5.3,5.3,0,0,1,1.91-.266c.207-.013.427-.026.663-.043a4.659,4.659,0,0,1,.755-.039c.266.125.545-.23.84-.039a3.056,3.056,0,0,0,.925-.036,4.74,4.74,0,0,0,1-.036c.348-.24.709.266,1.083-.036a5.622,5.622,0,0,1,1.155-.033c.4.184.807,0,1.227-.033a1.55,1.55,0,0,0,1.293-.03,1.159,1.159,0,0,0,1.359-.026,5.44,5.44,0,0,0,1.421-.026,9.653,9.653,0,0,1,1.48-.023,2.153,2.153,0,0,1,1.536-.02,2.588,2.588,0,0,1,1.585-.02c.535.121,1.08-.19,1.634-.016.551.013,1.113-.049,1.68-.013a3.444,3.444,0,0,0,1.723-.013,6.1,6.1,0,0,1,1.762-.01,3.081,3.081,0,0,1,1.8-.007,12.591,12.591,0,0,0,1.828,0,17.541,17.541,0,0,1,1.857,0,5.6,5.6,0,0,0,1.857,0,12.132,12.132,0,0,1,1.828,0c.6.217,1.2-.069,1.8.007a11.3,11.3,0,0,0,1.762.01,7.373,7.373,0,0,1,1.723.013c.568-.335,1.126.085,1.68.013a8.782,8.782,0,0,0,1.634.016,11.659,11.659,0,0,0,1.585.02,7.7,7.7,0,0,1,1.533.02c.5-.164.994.141,1.48.023.482,0,.958-.01,1.421.026.463.259.916.046,1.359.026.443.03.873-.148,1.3.03a3.972,3.972,0,0,0,1.227.033c.4-.039.781.377,1.155.033.374-.062.735.266,1.083.036.348-.213.683.026,1,.036s.63.026.925.036c2.648.112,4.165.243,4.165.384s-1.874.3-5.09.42c-.322.013-.656.194-1,.036a3.718,3.718,0,0,1-1.083.033c-.374.243-.758.046-1.155.033a5.939,5.939,0,0,0-1.227.03c-.42.141-.853-.069-1.3.03a2.188,2.188,0,0,0-1.359.026,4.925,4.925,0,0,0-1.421.026,2.4,2.4,0,0,0-1.48.023c-.5.082-1.014-.033-1.533.023-.522-.043-1.05.056-1.585.02a3.862,3.862,0,0,1-1.634.016,13.03,13.03,0,0,1-1.68.013,15.85,15.85,0,0,1-1.723.013c-.581.046-1.168-.236-1.762.01-.591.033-1.191-.039-1.8.007a11.33,11.33,0,0,0-1.828,0,3.466,3.466,0,0,0-1.857,0,10.975,10.975,0,0,1-1.857,0c-.617.023-1.224.01-1.828,0-.6.072-1.2-.105-1.8-.007s-1.178-.112-1.762-.01a5.232,5.232,0,0,1-1.723-.013,4.523,4.523,0,0,0-1.68-.013c-.551.046-1.1.325-1.634-.016-.538.085-1.067-.164-1.585-.02-.522-.246-1.03-.013-1.536-.023a4.77,4.77,0,0,0-1.48-.023,8.535,8.535,0,0,1-1.421-.026c-.463.144-.916-.187-1.359-.026-.443-.033-.873.023-1.293-.03-.42.335-.83,0-1.227-.03-.4-.049-.781.22-1.155-.033-.374.253-.735.036-1.083-.033s-.683.108-1-.036c-.322.177-.63-.1-.925-.036-.3-.118-.574-.007-.84-.039a1.74,1.74,0,0,1-.752-.039c-.236-.013-.456-.03-.663-.043a5.392,5.392,0,0,1-1.91-.266Z" transform="translate(-10.534 -22.282)" fill="#010101"/>
    <path id="패스_248" data-name="패스 248" d="M204.66,373.2a5.392,5.392,0,0,1,1.91-.266l.663-.039a5.073,5.073,0,0,1,.755-.039c.266.121.545-.23.84-.039a3.054,3.054,0,0,0,.925-.036,4.736,4.736,0,0,0,1-.036c.348-.24.709.266,1.083-.033a5.4,5.4,0,0,1,1.155-.033c.4.184.807,0,1.227-.03a1.562,1.562,0,0,0,1.293-.03,1.158,1.158,0,0,0,1.359-.026,5.439,5.439,0,0,0,1.421-.026,10.082,10.082,0,0,1,1.48-.023,2.171,2.171,0,0,1,1.536-.023,2.613,2.613,0,0,1,1.585-.02c.535.121,1.08-.19,1.634-.016.551.013,1.113-.049,1.68-.013a3.444,3.444,0,0,0,1.723-.013,6.213,6.213,0,0,1,1.762-.01,3.108,3.108,0,0,1,1.8-.007,12.587,12.587,0,0,0,1.828,0,17.533,17.533,0,0,1,1.857,0,5.6,5.6,0,0,0,1.857,0,12.582,12.582,0,0,1,1.828,0c.6.217,1.2-.072,1.8.007a10.9,10.9,0,0,0,1.762.01,7.374,7.374,0,0,1,1.723.013c.568-.335,1.126.085,1.68.013a8.507,8.507,0,0,0,1.634.016,11.649,11.649,0,0,0,1.585.02,7.7,7.7,0,0,1,1.533.023c.5-.167.994.138,1.48.023.482,0,.958-.01,1.421.026.463.259.916.046,1.359.026.443.026.873-.148,1.3.03a4.071,4.071,0,0,0,1.227.03c.4-.039.781.381,1.155.033.374-.062.735.266,1.083.033.348-.217.683.026,1,.036s.63.026.925.036c2.648.115,4.165.246,4.165.384,0,.158-1.874.3-5.09.423-.322.013-.656.194-1,.036a3.719,3.719,0,0,1-1.083.033c-.374.243-.758.046-1.155.033a5.947,5.947,0,0,0-1.227.033c-.42.141-.853-.072-1.3.03a2.188,2.188,0,0,0-1.359.026,4.813,4.813,0,0,0-1.421.026,2.4,2.4,0,0,0-1.48.023c-.5.082-1.014-.033-1.533.02-.522-.043-1.05.059-1.585.02a3.863,3.863,0,0,1-1.634.016,13.026,13.026,0,0,1-1.68.016,14.364,14.364,0,0,1-1.723.01c-.581.046-1.168-.236-1.762.01-.591.03-1.191-.039-1.8.007a11.718,11.718,0,0,0-1.828,0,3.5,3.5,0,0,0-1.857,0,11.329,11.329,0,0,1-1.857,0c-.617.026-1.224.013-1.828,0-.6.072-1.2-.105-1.8-.007s-1.178-.112-1.762-.01a5.323,5.323,0,0,1-1.723-.01,4.594,4.594,0,0,0-1.68-.016c-.551.049-1.1.322-1.634-.016-.538.085-1.067-.164-1.585-.02-.522-.246-1.03-.013-1.536-.02a4.674,4.674,0,0,0-1.48-.023,8.528,8.528,0,0,1-1.421-.026c-.463.141-.916-.187-1.359-.026-.443-.033-.873.02-1.293-.03-.42.335-.83,0-1.227-.033-.4-.049-.781.223-1.155-.033-.374.253-.735.033-1.083-.033s-.683.105-1-.036c-.322.177-.63-.1-.925-.036-.3-.118-.574-.007-.84-.039a1.794,1.794,0,0,1-.752-.039l-.663-.039a5.3,5.3,0,0,1-1.91-.266Z" transform="translate(-10.534 -34.404)" fill="#010101"/>
    <path id="패스_249" data-name="패스 249" d="M260.3,437.389a7.119,7.119,0,0,1-2.232.266l-.774.039a6.886,6.886,0,0,1-.88.039c-.312-.121-.64.23-.981.039a4.149,4.149,0,0,0-1.08.036,6.476,6.476,0,0,0-1.175.036c-.407.24-.827-.266-1.263.033a7.687,7.687,0,0,1-1.352.033,3.264,3.264,0,0,0-1.434.03,2.113,2.113,0,0,0-1.513.03,1.55,1.55,0,0,0-1.588.026,7.418,7.418,0,0,0-1.661.026,13.773,13.773,0,0,1-1.73.023,2.929,2.929,0,0,1-1.792.023,3.552,3.552,0,0,1-1.854.02c-.627-.121-1.263.19-1.91.016-.646-.013-1.3.049-1.963.013a4.676,4.676,0,0,0-2.012.013,8.3,8.3,0,0,1-2.058.01,4.177,4.177,0,0,1-2.1.007,17.236,17.236,0,0,0-2.14,0c-.719-.036-1.441.1-2.173,0a7.647,7.647,0,0,0-2.173,0,17.186,17.186,0,0,1-2.136,0,10.446,10.446,0,0,0-2.1-.007,15.392,15.392,0,0,0-2.058-.01,10.042,10.042,0,0,1-2.012-.013c-.663.335-1.319-.085-1.963-.013a11.616,11.616,0,0,0-1.91-.016,15.884,15.884,0,0,0-1.851-.02,10.186,10.186,0,0,1-1.792-.023c-.587.167-1.162-.138-1.729-.023-.564,0-1.119.01-1.661-.026a3.107,3.107,0,0,0-1.588-.026,5.179,5.179,0,0,1-1.513-.03,5.549,5.549,0,0,0-1.434-.03c-.463.039-.916-.381-1.352-.033-.436.062-.86-.266-1.263-.033-.407.213-.8-.026-1.172-.036s-.738-.026-1.08-.036c-3.095-.112-4.87-.246-4.87-.384,0-.158,2.189-.3,5.95-.42a2.7,2.7,0,0,1,1.172-.036,5.057,5.057,0,0,1,1.263-.033c.436-.243.886-.046,1.352-.033a8.435,8.435,0,0,0,1.434-.03c.492-.141.994.069,1.513-.03a3.038,3.038,0,0,0,1.588-.026,6.56,6.56,0,0,0,1.661-.026,3.26,3.26,0,0,0,1.729-.023c.587-.082,1.185.033,1.792-.023.607.043,1.224-.056,1.851-.02a5.258,5.258,0,0,1,1.91-.016,17.775,17.775,0,0,1,1.963-.013c.663-.089,1.332.01,2.012-.013a7.089,7.089,0,0,0,2.058-.01c.692-.033,1.391.039,2.1-.007a15.476,15.476,0,0,0,2.136,0,4.718,4.718,0,0,0,2.173,0,14.993,14.993,0,0,1,2.173,0c.719-.023,1.431-.01,2.14,0,.706-.072,1.408.105,2.1.007s1.378.112,2.058.01a7.119,7.119,0,0,1,2.012.013,6.155,6.155,0,0,0,1.963.013c.647-.046,1.283-.322,1.91.016.627-.085,1.247.164,1.854.02a4.517,4.517,0,0,0,1.792.023,6.507,6.507,0,0,0,1.73.023,11.63,11.63,0,0,1,1.661.026c.541-.141,1.073.187,1.588.026.519.033,1.021-.023,1.513.03.492-.335.971,0,1.434.03.466.049.916-.223,1.352.033.436-.253.857-.033,1.263.033s.8-.105,1.175.036c.377-.177.735.1,1.08.036a3.85,3.85,0,0,0,.981.039,2.442,2.442,0,0,1,.88.039c.276.013.535.03.774.039a7.274,7.274,0,0,1,2.232.266Z" transform="translate(0 -77.546)" fill="#010101"/>
  </g>
</svg>
