<svg xmlns="http://www.w3.org/2000/svg" width="214" height="213.29" viewBox="0 0 214 213.29">
  <g id="slogan02" transform="translate(-19.562 -15.35)">
    <g id="그룹_6" data-name="그룹 6" transform="translate(19.562 15.35)">
      <path id="패스_30" data-name="패스 30" d="M524.9,417.919c-2.753,5.115-5.35,6.885-8.036,5.439s-2.661-4.6.092-9.712,5.371-6.87,8.057-5.428,2.639,4.586-.117,9.7Zm-5.556-2.991c-1.869,3.471-2.178,5.158-1.044,5.769s2.323-.54,4.217-4.06,2.2-5.144,1.069-5.755-2.369.576-4.238,4.046Zm15.268,8.906c2.217-4.121,2.565-5.485,1.524-6.046-1.112-.6-1.947.234-3.954,3.961a59.108,59.108,0,0,0-2.884,6.359c-.153.394-.451.5-.881.3l-1.321-.593c-.359-.163-.444-.448-.281-.867a56.78,56.78,0,0,1,2.3-5.272l-.9-.487a.6.6,0,0,0-.892.266,61.759,61.759,0,0,0-3.155,6.306.575.575,0,0,1-.892.327l-1.25-.671a.623.623,0,0,1-.313-.916c.711-1.766,2.437-5.08,4.2-8.306,2.3-4.224,3.694-6.7,4.6-8a.635.635,0,0,1,.938-.242l1.251.671a.584.584,0,0,1,.22.924c-1.062,1.7-2.8,4.7-4.071,7.005a.775.775,0,0,1,.813-.011l.9.487c2.54-4.217,4.5-5.25,7-3.9,2.8,1.506,2.65,4.114-.565,10.085-.686,1.272-1.339,2.323-3.073,5.155a.616.616,0,0,1-.913.256l-1.25-.671a.576.576,0,0,1-.231-.9c1.63-2.643,2.412-3.986,3.073-5.211Z" transform="translate(-338.916 -268.343)" fill="#1d1d1d"/>
      <path id="패스_31" data-name="패스 31" d="M476.669,463.869c5.155-5.652,6.824-6.547,8.828-4.725,1.865,1.7,1.254,3.421-2.945,8.025-.956,1.048-2.021,2.142-2.906,3.186-.636.735-.732,1.112-.323,1.485.426.391.813.316,1.435-.362,1.79-1.961,5.446-6.242,7.275-8.522.245-.309.526-.3.835-.018l.874.8a.523.523,0,0,1,.057.835c-1.037,1.293-2.274,2.767-3.524,4.256l.526.48a.741.741,0,0,1,.274.675c1.773-1.943,4.185-4.472,5.67-5.826a.573.573,0,0,1,.874-.021l.952.867a.53.53,0,0,1-.014.874c-1.215,1.133-3.151,3.1-6.412,6.639-2.5,2.7-4.977,5.5-6.1,7.034a.523.523,0,0,1-.87.1l-.931-.849a.58.58,0,0,1-.078-.888c1.158-1.542,3.261-3.925,4.643-5.442a.583.583,0,0,0-.043-.927l-.487-.444c-1.1,1.24-2.16,2.4-3.012,3.3-1.226,1.265-2.1,1.361-3.048.494a2.32,2.32,0,0,1-.5-2.767l-.639.7a.486.486,0,0,1-.8.018l-.8-.725c-.309-.284-.323-.544-.057-.8,1.158-1.151,2.931-3.055,5.339-5.7,2.959-3.243,3.233-3.741,2.65-4.27-.679-.622-1.389.156-4.984,4.1a63.082,63.082,0,0,0-4.348,5.428.5.5,0,0,1-.814.11l-.927-.739a.528.528,0,0,1-.131-.831,63.145,63.145,0,0,1,4.455-5.545Zm8.87,16.842a.522.522,0,0,1-.856.039l-.952-.867a.532.532,0,0,1-.039-.856l8.821-9.673c1.027-1.126,2.174-1.289,3.144-.4l3.378,3.083a.941.941,0,0,1,.089,1.5l-8.185,8.973a2.239,2.239,0,0,1-3.389.359,3.5,3.5,0,0,1-.934-3.343l-1.08,1.183Zm3.14-.909a1.008,1.008,0,0,0,1.574-.167l5.368-5.886a.49.49,0,0,0-.036-.782l-1.147-1.044c-.348-.32-.735-.245-1.126.181l-4.75,5.2a1.728,1.728,0,0,0,.114,2.487Z" transform="translate(-311.32 -300.943)" fill="#1d1d1d"/>
      <path id="패스_32" data-name="패스 32" d="M441.965,501.525l.8,1.2a.574.574,0,0,1-.245.917c-1.695.87-4.785,2.629-7.247,4.2a1.209,1.209,0,0,1,1.172.579l1.712,2.586,2.455-1.623c1.623-1.073,3.2-.888,4.22.519l5.538,7.652a.613.613,0,0,1-.192.948l-1.382.913a.639.639,0,0,1-.948-.192l-1.51-2.089-8.263,5.471,1.357,2.192a.636.636,0,0,1-.192.948l-1.382.913a.613.613,0,0,1-.948-.192l-4.881-8.089c-.892-1.488-.448-3.012,1.172-4.085l2.433-1.609-1.844-2.785c-.32-.483-.689-.519-1.218-.174a58.2,58.2,0,0,0-5.439,4.071.575.575,0,0,1-.941-.135l-.8-1.2c-.245-.373-.2-.629.156-.956A70.4,70.4,0,0,1,433.063,506a64.471,64.471,0,0,1,7.957-4.7.65.65,0,0,1,.941.227ZM443,512.474a1.024,1.024,0,0,0-1.581-.245l-5.918,3.918a1.046,1.046,0,0,0-.412,1.567l1.524,2.49,8.089-5.354-1.7-2.377Z" transform="translate(-281.128 -328.602)" fill="#1d1d1d"/>
      <path id="패스_33" data-name="패스 33" d="M387.075,534.35l.476,1.364a.574.574,0,0,1-.462.831c-1.854.426-5.282,1.375-8.057,2.288a1.208,1.208,0,0,1,.995.849l.739,2.11c4.206-1.19,6.426-.494,7.322,2.064,1.005,2.877-.774,4.948-6.035,6.789s-7.947,1.329-8.952-1.549c-.92-2.629.508-4.6,4.806-6.33l-.806-2.309c-.192-.547-.54-.675-1.137-.465a58.126,58.126,0,0,0-6.274,2.611.574.574,0,0,1-.877-.362l-.476-1.364c-.149-.423-.036-.657.387-.888a70.294,70.294,0,0,1,8.636-3.492,64.449,64.449,0,0,1,8.867-2.6c.473-.082.718.057.856.455Zm-11.112,23.1a.575.575,0,0,1-.838-.4l-.519-1.488a.575.575,0,0,1,.4-.838l15.087-5.275a.576.576,0,0,1,.838.4l.519,1.488a.575.575,0,0,1-.4.838L384.4,554.5a.965.965,0,0,1,.725.721l.192.547a.575.575,0,0,1-.4.838l-1.613.565a.576.576,0,0,1-.838-.4l-.33-.945c-.114-.323-.337-.412-.71-.281l-5.46,1.908Zm4.082-12.536c-3.524,1.233-4.494,2.043-4.092,3.186s1.663,1.172,5.186-.06,4.494-2.043,4.092-3.186S383.569,543.679,380.045,544.912Z" transform="translate(-244.398 -349.676)" fill="#1d1d1d"/>
      <path id="패스_34" data-name="패스 34" d="M322.316,554.7l-1.57.135a.62.62,0,0,1-.742-.65,22.28,22.28,0,0,0-.064-2.607,2.315,2.315,0,0,0-2.828-2.185c-4.9.423-8.263.87-11.329,1.421-.416.089-.668-.1-.735-.568l-.227-1.432c-.06-.391.131-.618.572-.707,2.572-.487,6.771-1.059,11.353-1.449,3.641-.313,5.922,1.339,6.181,4.377a21.332,21.332,0,0,1,.092,2.92.712.712,0,0,1-.7.746Zm-16.242,1.052a.574.574,0,0,1,.6-.711l1.57-.135a.574.574,0,0,1,.71.6l1.275,14.824a.574.574,0,0,1-.6.711l-1.57.135a.573.573,0,0,1-.711-.6l-1.275-14.824Zm9.1,10.721c-.6.053-.771.252-.725.774l.21,2.437a.574.574,0,0,1-.6.71l-1.57.135a.574.574,0,0,1-.71-.6l-1.25-14.561a.574.574,0,0,1,.6-.71l1.57-.135a.573.573,0,0,1,.71.6l.774,9.009a1.026,1.026,0,0,1,.849-.547l2.281-.2a.573.573,0,0,1,.71.6l.135,1.57a.573.573,0,0,1-.6.711l-2.384.206Zm11.215-9.8c.419-.036.622.185.657.6l.124,1.439a.574.574,0,0,1-.6.711c-1.989.17-3.19,2.174-2.973,4.714l.38,4.4a.574.574,0,0,1-.6.711l-1.57.135a.574.574,0,0,1-.711-.6l-.377-4.4c-.22-2.54-1.744-4.309-3.734-4.139a.573.573,0,0,1-.711-.6l-.124-1.442c-.036-.419.128-.671.547-.707a5.293,5.293,0,0,1,5.137,2.963,5.287,5.287,0,0,1,4.554-3.794Z" transform="translate(-203.479 -357.895)" fill="#1d1d1d"/>
      <path id="패스_35" data-name="패스 35" d="M243.561,565.768l-1.634-.263a.643.643,0,0,1-.561-.81l3.492-21.588a.642.642,0,0,1,.789-.59l1.634.263a.643.643,0,0,1,.561.81l-1.46,9.03a1.129,1.129,0,0,1,1.147-.348l1.687.274a.574.574,0,0,1,.544.753l-.252,1.556a.574.574,0,0,1-.753.544l-1.844-.3c-.622-.1-.948.114-1.041.682l-1.52,9.393a.642.642,0,0,1-.789.59Zm15.932-1.364-.252,1.556a.574.574,0,0,1-.753.544l-9.94-1.609a.574.574,0,0,1-.544-.753l.252-1.556a.574.574,0,0,1,.753-.544l9.94,1.609A.574.574,0,0,1,259.494,564.4Zm-3.659-16.888c4.05.654,6.11,3.545,5.467,7.513-.7,4.359-3.4,6.188-8.121,5.424a21.109,21.109,0,0,1-3.336-.778.671.671,0,0,1-.5-.853l.238-1.478c.075-.465.341-.636.75-.519a27.322,27.322,0,0,0,2.9.682c3.112.5,4.686-.494,5.094-3.009.355-2.206-.824-3.78-3.318-4.185a14.4,14.4,0,0,0-4.213.2.861.861,0,0,1-.345,0,.581.581,0,0,1-.494-.558l-.163-1.464c-.057-.462.11-.675.579-.785a14.744,14.744,0,0,1,5.46-.181Z" transform="translate(-162.564 -355.24)" fill="#1d1d1d"/>
      <path id="패스_36" data-name="패스 36" d="M82.151,441.413l5.215,7.066,3.833-1.226a.735.735,0,0,1,.945.217l1.14,1.545c.249.337.2.668-.2.8l-19.233,5.993a.947.947,0,0,1-1.2-.387l-1.467-1.989a.949.949,0,0,1-.018-1.261l11.4-16.611c.238-.341.572-.291.821.05l1.14,1.545a.735.735,0,0,1-.071.966l-2.3,3.3Zm-1.734,2.519-6,8.643,10.032-3.186-4.028-5.456Z" transform="translate(-52.689 -286.135)" fill="#1d1d1d"/>
      <path id="패스_37" data-name="패스 37" d="M56.967,411.227c.956,1.993,2.661,2.75,4.366,1.929l8.227-3.947a.642.642,0,0,1,.934.309l.718,1.492a.643.643,0,0,1-.345.924l-12.753,6.117a.642.642,0,0,1-.934-.309l-.718-1.492a.644.644,0,0,1,.345-.924l.828-.4A6.433,6.433,0,0,1,54,411.717c-1.524-3.176-.5-6.028,2.842-7.631l8.345-4a.642.642,0,0,1,.934.309l.718,1.492a.645.645,0,0,1-.345.924L58.6,406.6c-2.11,1.012-2.639,2.519-1.627,4.629Z" transform="translate(-41.32 -263.356)" fill="#1d1d1d"/>
      <path id="패스_38" data-name="패스 38" d="M31.5,393.788a.64.64,0,0,1-.888-.426l-.522-1.57a.642.642,0,0,1,.458-.87l2.245-.746a.64.64,0,0,1,.888.426l.522,1.57a.647.647,0,0,1-.458.874l-2.245.746Zm4.838-1.606a.64.64,0,0,1-.888-.426l-.522-1.57a.647.647,0,0,1,.458-.874l13.172-4.373a.64.64,0,0,1,.888.426l.522,1.57a.647.647,0,0,1-.458.874Z" transform="translate(-26.322 -253.615)" fill="#1d1d1d"/>
      <path id="패스_39" data-name="패스 39" d="M31.142,339.848a4.123,4.123,0,0,1,1.378-4.092,4.955,4.955,0,0,1-2.668-3.744c-.444-2.7,1.094-4.682,4-5.162l10.2-1.684a.643.643,0,0,1,.81.558l.27,1.634a.642.642,0,0,1-.59.789l-9.677,1.6a2.167,2.167,0,0,0-2.039,2.813,2.264,2.264,0,0,0,2.622,2.153l9.908-1.634a.646.646,0,0,1,.813.558l.27,1.634a.642.642,0,0,1-.59.789l-9.677,1.6a2.168,2.168,0,0,0-2.039,2.813,2.264,2.264,0,0,0,2.622,2.153l9.908-1.634a.646.646,0,0,1,.813.558l.27,1.634a.642.642,0,0,1-.59.789l-13.954,2.3a.641.641,0,0,1-.81-.558l-.27-1.634a.642.642,0,0,1,.59-.789l.622-.1a4.957,4.957,0,0,1-2.178-3.346Z" transform="translate(-26.149 -215.099)" fill="#1d1d1d"/>
      <path id="패스_40" data-name="패스 40" d="M43.282,284.427a10.3,10.3,0,0,1,1.474,5.535c-.142,3.336-2.018,5.361-4.906,5.24-3.915-.167-5.215-3.009-5.055-11.133l-.472-.021c-1.787-.075-2.863,1.115-2.956,3.268-.075,1.787.558,3.023,1.8,3.339.337.092.462.309.44.757l-.085,1.972c-.018.419-.266.671-.632.6-2.8-.512-4.32-2.973-4.156-6.86.178-4.2,2.16-6.249,5.915-6.092l9.481.4a.645.645,0,0,1,.682.714l-.071,1.655a.645.645,0,0,1-.739.654l-.735-.032Zm-5.829-.3c-.114,5.783.554,8.021,2.526,8.107,1.233.053,2.046-1.1,2.124-2.988a10.734,10.734,0,0,0-1.211-4.973l-3.442-.146Z" transform="translate(-25.471 -186.648)" fill="#1d1d1d"/>
      <path id="패스_41" data-name="패스 41" d="M20.158,260.574a.643.643,0,0,1-.583-.8l.281-1.631a.645.645,0,0,1,.817-.554l18.7,3.236a.643.643,0,0,1,.583.8l-.281,1.631a.645.645,0,0,1-.817.554Z" transform="translate(-19.562 -171.53)" fill="#1d1d1d"/>
      <path id="패스_42" data-name="패스 42" d="M44.424,199l5.353,2.192a.642.642,0,0,1,.4.9l-.629,1.531a.641.641,0,0,1-.917.362l-17.076-7a1.1,1.1,0,0,1-.686-1.588l2.913-7.1c1.574-3.844,4.7-5.233,8.934-3.5s5.51,4.931,3.932,8.771l-2.224,5.424Zm-10.2-4.178,7.517,3.08,2.163-5.279c.938-2.288.114-4.018-2.32-5.012-2.458-1.009-4.259-.355-5.2,1.932l-2.163,5.279Z" transform="translate(-26.773 -124.125)" fill="#1d1d1d"/>
      <path id="패스_43" data-name="패스 43" d="M70.547,156.362c-.984,1.616-.771,3.037.554,3.844l8.377,5.094a.642.642,0,0,1,.252.952l-.86,1.414a.645.645,0,0,1-.963.217l-12.085-7.35a.645.645,0,0,1-.252-.952l.86-1.414a.646.646,0,0,1,.963-.217l.426.259a5.263,5.263,0,0,1,.735-4.043,6.281,6.281,0,0,1,1.471-1.659.651.651,0,0,1,.945.114l1.076,1.115a.562.562,0,0,1-.05.892,8.96,8.96,0,0,0-1.453,1.734Z" transform="translate(-49.151 -103.684)" fill="#1d1d1d"/>
      <path id="패스_44" data-name="패스 44" d="M90.666,125.621c2.831-3.421,6.7-3.8,10.792-.419s4.437,7.258,1.6,10.678-6.7,3.8-10.792.419S87.831,129.042,90.666,125.621Zm10.249,8.483c1.861-2.249,1.382-4.352-1.35-6.615s-4.888-2.341-6.75-.092-1.382,4.352,1.35,6.615S99.053,136.353,100.914,134.1Z" transform="translate(-64.215 -84.662)" fill="#1d1d1d"/>
      <path id="패스_45" data-name="패스 45" d="M118.661,91.045,115.354,87.2a.643.643,0,0,1,.057-.984l1.258-1.08a.644.644,0,0,1,.98.092l3.307,3.847,3.528-3.034a.573.573,0,0,1,.927.071l1.027,1.2a.573.573,0,0,1-.071.927l-3.528,3.034,4.8,5.581c.721.838,1.687.835,2.686-.021a15.273,15.273,0,0,0,1.488-1.417.508.508,0,0,1,.845-.067l1.027,1.2a.667.667,0,0,1,0,.934,12.937,12.937,0,0,1-1.876,1.89c-2.192,1.886-4.444,1.808-6.174-.206l-5.091-5.922L117.6,95.773a.573.573,0,0,1-.927-.071l-1.027-1.2a.573.573,0,0,1,.071-.927l2.952-2.536Z" transform="translate(-81.195 -60.225)" fill="#1d1d1d"/>
      <path id="패스_46" data-name="패스 46" d="M167.681,80.213c-4.156,2.526-7.744,1.478-10.49-3.037S155.11,69,159.11,66.565c3.819-2.32,7.46-1.243,10.025,2.98a1.578,1.578,0,0,1-.508,2.4l-8.018,4.874c1.684,2.114,3.4,2.362,5.762.927,1.439-.874,2.274-2.028,2.153-3.339-.039-.316.089-.515.423-.718l1.414-.86c.384-.231.671-.163.81.217C172.1,75.648,170.783,78.33,167.681,80.213Zm-1.588-9.8c-1.556-2.409-3.279-2.867-5.5-1.513-2.2,1.339-2.668,3.1-1.368,5.691l6.874-4.178Z" transform="translate(-107.228 -47.599)" fill="#1d1d1d"/>
      <path id="패스_47" data-name="패스 47" d="M209.767,59.852c-4.419,1.687-7.773-.014-9.648-4.927-1.869-4.888-.572-8.423,3.677-10.043,3.439-1.314,6.028-.643,7.812,2.11a.518.518,0,0,1-.2.806l-1.46.9c-.366.224-.6.2-.853-.1a3.323,3.323,0,0,0-4.188-1.016c-2.7,1.03-3.3,2.863-2,6.252,1.332,3.488,2.945,4.391,5.915,3.258a3.413,3.413,0,0,0,2.444-3.915c-.025-.359.124-.554.572-.639l1.666-.355c.387-.092.586.057.661.48.568,3.329-1.034,5.911-4.4,7.2Z" transform="translate(-135.441 -33.973)" fill="#1d1d1d"/>
      <path id="패스_48" data-name="패스 48" d="M243.849,25.68l-1-4.973a.644.644,0,0,1,.529-.831L245,19.548a.645.645,0,0,1,.81.561l1,4.973,4.561-.917a.576.576,0,0,1,.774.515l.309,1.545a.576.576,0,0,1-.515.774l-4.561.917,1.449,7.215c.217,1.083,1.062,1.556,2.352,1.3a15.429,15.429,0,0,0,1.989-.508c.4-.16.7-.007.767.355l.309,1.545a.661.661,0,0,1-.455.813,13.1,13.1,0,0,1-2.561.728c-2.835.568-4.757-.6-5.279-3.2L244.417,28.5l-3.815.767a.576.576,0,0,1-.774-.515l-.309-1.545a.576.576,0,0,1,.515-.774l3.815-.767Z" transform="translate(-161.366 -18.046)" fill="#1d1d1d"/>
      <path id="패스_49" data-name="패스 49" d="M285.034,16.253a.644.644,0,0,1,.622-.764l1.652-.135a.641.641,0,0,1,.739.65l.2,2.359a.644.644,0,0,1-.622.764l-1.652.135a.641.641,0,0,1-.739-.65Zm.419,5.083a.644.644,0,0,1,.622-.764l1.648-.135a.641.641,0,0,1,.739.65l1.144,13.833a.644.644,0,0,1-.622.764l-1.652.135a.641.641,0,0,1-.739-.65l-1.144-13.833Z" transform="translate(-190.726 -15.35)" fill="#1d1d1d"/>
      <path id="패스_50" data-name="패스 50" d="M313.671,27.708c4.437.213,7.062,3.076,6.81,8.38s-3.144,7.9-7.581,7.687-7.062-3.076-6.81-8.38S309.234,27.495,313.671,27.708Zm-.639,13.286c2.913.139,4.309-1.5,4.48-5.048s-1.062-5.314-3.975-5.453-4.309,1.5-4.48,5.048S310.118,40.855,313.031,40.994Z" transform="translate(-204.293 -23.31)" fill="#1d1d1d"/>
      <path id="패스_51" data-name="패스 51" d="M359.747,35.624c-2.153-.5-3.808.359-4.234,2.2l-2.057,8.888a.641.641,0,0,1-.828.536l-1.613-.373a.642.642,0,0,1-.5-.845l3.19-13.78a.641.641,0,0,1,.828-.536l1.613.373a.641.641,0,0,1,.5.845l-.206.9A6.432,6.432,0,0,1,361.222,33c3.432.8,5.02,3.375,4.185,6.984L363.321,49a.641.641,0,0,1-.828.536l-1.613-.373a.641.641,0,0,1-.5-.845l1.975-8.529c.529-2.281-.32-3.634-2.6-4.163Z" transform="translate(-232.928 -25.887)" fill="#1d1d1d"/>
      <path id="패스_52" data-name="패스 52" d="M420.643,66.636c-5.183-2.8-6.124-7.307-2.814-13.439,3.3-6.107,7.574-7.833,12.661-5.087,3.819,2.06,4.913,5.46,4.057,8.7-.107.362-.32.483-.764.366l-1.705-.44a.554.554,0,0,1-.473-.732c.458-2.561-.259-4.114-2.458-5.3-3.471-1.872-6.2-.629-8.661,3.929-2.472,4.579-1.975,7.538,1.609,9.471,2.153,1.162,4.174.789,6.263-1.25.266-.274.526-.256.87.05l1.3,1.183c.32.291.359.551.078.849C427.737,68.043,424.32,68.618,420.643,66.636Z" transform="translate(-275.103 -35.656)" fill="#1d1d1d"/>
      <path id="패스_53" data-name="패스 53" d="M460.361,101.1c-3.762-3.08-3.968-6.813-.622-10.9s7.023-4.682,10.643-1.716c3.456,2.831,3.652,6.622.522,10.444a1.579,1.579,0,0,1-2.433.32l-7.261-5.943c-1.432,2.291-1.094,3.993,1.041,5.744,1.3,1.066,2.668,1.471,3.865.92a.681.681,0,0,1,.821.16l1.282,1.048c.345.284.377.579.064.835-2.142,1.744-5.108,1.389-7.918-.909Zm8.714-4.757c1.751-2.266,1.613-4.046-.4-5.694-1.993-1.631-3.808-1.488-5.822.6l6.224,5.094Z" transform="translate(-301.848 -61.308)" fill="#1d1d1d"/>
      <path id="패스_54" data-name="패스 54" d="M499.163,121.182c-1.435-1.677-3.279-1.968-4.718-.739l-6.931,5.932a.642.642,0,0,1-.984-.057l-1.076-1.258a.642.642,0,0,1,.1-.98l10.746-9.2a.642.642,0,0,1,.984.057l1.076,1.258a.642.642,0,0,1-.1.98l-.7.6a6.444,6.444,0,0,1,4.345,2.163c2.291,2.675,2.039,5.7-.778,8.107l-7.03,6.018a.642.642,0,0,1-.984-.057l-1.076-1.258a.642.642,0,0,1,.1-.98l6.65-5.694C500.559,124.553,500.684,122.958,499.163,121.182Z" transform="translate(-319.832 -79.395)" fill="#1d1d1d"/>
      <path id="패스_55" data-name="패스 55" d="M531.78,154.724l4.344-2.622a.646.646,0,0,1,.963.217l.856,1.417a.643.643,0,0,1-.256.952l-4.345,2.622,2.405,3.982a.574.574,0,0,1-.224.9l-1.35.814a.574.574,0,0,1-.9-.224l-2.4-3.986-6.3,3.8c-.945.572-1.1,1.528-.426,2.654a15.041,15.041,0,0,0,1.151,1.7.5.5,0,0,1-.075.842l-1.35.813a.664.664,0,0,1-.92-.153,13.149,13.149,0,0,1-1.552-2.163c-1.5-2.476-1.044-4.682,1.229-6.053l6.686-4.036-2.011-3.332a.574.574,0,0,1,.224-.9l1.35-.814a.574.574,0,0,1,.9.224l2.011,3.332Z" transform="translate(-342.563 -102.831)" fill="#1d1d1d"/>
      <path id="패스_56" data-name="패스 56" d="M535.156,204.907c-1.794-4.519-.163-7.883,4.75-9.833s8.412-.682,10.138,3.666c1.648,4.153-.021,7.559-4.615,9.385a1.582,1.582,0,0,1-2.284-.9l-3.464-8.721c-2.366,1.307-2.9,2.959-1.879,5.527.622,1.563,1.62,2.583,2.931,2.682.316.014.494.171.639.54l.611,1.538c.163.416.046.689-.348.76-2.721.487-5.14-1.268-6.48-4.639Zm9.929.075c2.632-1.13,3.375-2.753,2.412-5.172-.952-2.394-2.607-3.151-5.385-2.3l2.97,7.474Z" transform="translate(-351.541 -130.655)" fill="#1d1d1d"/>
      <path id="패스_57" data-name="패스 57" d="M559.481,244.081c-.426-1.844-1.57-2.714-3.08-2.366l-9.556,2.2a.643.643,0,0,1-.846-.508l-.373-1.613a.641.641,0,0,1,.536-.824l13.783-3.179a.643.643,0,0,1,.846.508l.373,1.613a.641.641,0,0,1-.54.824l-.487.114a5.261,5.261,0,0,1,2.3,3.41,6.245,6.245,0,0,1,.107,2.213.654.654,0,0,1-.757.579l-1.549-.046c-.409-.014-.6-.242-.586-.675a8.978,8.978,0,0,0-.17-2.256Z" transform="translate(-358.733 -158.757)" fill="#1d1d1d"/>
    </g>
    <g id="그룹_7" data-name="그룹 7" transform="translate(57.073 187.698)">
      <path id="패스_58" data-name="패스 58" d="M155.849,553.548c.089-.174.174-.345.249-.522a4.177,4.177,0,0,0,.306-1.151,3.825,3.825,0,0,0-.121-1.591,2.767,2.767,0,0,0-.345-.742c-.067-.1-.142-.192-.217-.284a1.929,1.929,0,0,1-.153-.323,2.01,2.01,0,0,0-.789-.782,1.862,1.862,0,0,0-1.226-.188,2.229,2.229,0,0,0-.7.266,4.6,4.6,0,0,0-1.357,1.179,4.418,4.418,0,0,0-.536.853.187.187,0,0,0-.014.064.575.575,0,0,0-.121.242h0a.555.555,0,0,0-.067.117c-.075.188-.156.377-.22.572a2.69,2.69,0,0,0-.149.558c-.018.032-.039.06-.025.1h0a.288.288,0,0,0-.043.128c-.036.174-.071.348-.107.519a2.594,2.594,0,0,0-.067.661,3.34,3.34,0,0,0,.018.377,2.776,2.776,0,0,0,.135.636,2.537,2.537,0,0,0,.458.757.789.789,0,0,0,.227.206h0a.117.117,0,0,0,.05.068,3.654,3.654,0,0,0,.664.416,2.547,2.547,0,0,0,1.066.206,2.818,2.818,0,0,0,.806-.131,1.65,1.65,0,0,0,.533-.259,2.862,2.862,0,0,0,.65-.476.808.808,0,0,0,.185-.2c.082-.032.11-.114.16-.174h0c.05-.014.071-.053.1-.092a8.483,8.483,0,0,0,.65-1Zm-3.933-1.123h0l0,0Zm1.247-.114a.044.044,0,0,0,.018.007.084.084,0,0,0-.028.007c0-.007.007-.011.011-.018Zm-1,.728a.018.018,0,0,1-.011,0A.013.013,0,0,1,152.166,553.039Z" transform="translate(-141.269 -531.086)" fill="#00cdae"/>
      <path id="패스_59" data-name="패스 59" d="M150.822,503.5c-.114.494-.21.991-.284,1.5-.082.547-.149,1.094-.2,1.648-.036.416-.064.831-.078,1.247-.021.632-.021,1.265.018,1.9a3.093,3.093,0,0,0,.05.544.432.432,0,0,0-.007.067c.032.27.064.544.1.814a.591.591,0,0,0,.028.114.565.565,0,0,0,.039.231h0c.032.174.057.345.092.519a.832.832,0,0,0,.064.245h0s.007.032.011.046h0a.122.122,0,0,0,.039.117h0a.068.068,0,0,0,.011.046.051.051,0,0,0,.011.05h0s-.007-.028-.011-.046h0a.11.11,0,0,1,.011.046.206.206,0,0,1,.011.05.234.234,0,0,0,.011.085c.082.259.163.522.266.774a5.575,5.575,0,0,0,.838,1.478,1.359,1.359,0,0,0,.3.323h0c0,.011,0,.025.011.032a3.084,3.084,0,0,0,.277.249.91.91,0,0,1,.146.117.747.747,0,0,0,.192.142c.174.082.327.2.508.27a1.967,1.967,0,0,0,.462.156.056.056,0,0,0,.025.014.081.081,0,0,0,.078.018h0a.032.032,0,0,0,.025.011h0a.831.831,0,0,0,.227.064,4.841,4.841,0,0,0,1.087.082,1.555,1.555,0,0,0,.4-.043.7.7,0,0,0,.082.007c.185-.025.373-.046.554-.082.245-.046.487-.1.732-.163.1-.025.2-.06.291-.089a.07.07,0,0,0,.039-.007.036.036,0,0,0,.025-.014h0a1.012,1.012,0,0,0,.149-.032c.494-.156.98-.334,1.457-.536.551-.231,1.091-.49,1.623-.76.462-.234.913-.487,1.364-.742a.7.7,0,0,0,.082-.06,2.163,2.163,0,0,0,.419-.245h0c.039-.021.082-.036.121-.06l.412-.245a8.5,8.5,0,0,0,.76-.522,6.845,6.845,0,0,0,.707-.615,5.335,5.335,0,0,0,.607-.689c.053-.075.107-.149.156-.224a4.472,4.472,0,0,0,.249-.387c.089-.17.163-.348.242-.526a.389.389,0,0,0,.046-.178.454.454,0,0,0,.071-.234h0c.007-.021.018-.043.025-.064a3.047,3.047,0,0,0,.082-.966,1.2,1.2,0,0,0-.053-.387h0a.218.218,0,0,0-.011-.046h0a.708.708,0,0,0-.075-.309h0a.33.33,0,0,0-.064-.206h0a1.555,1.555,0,0,0-.149-.394,2.434,2.434,0,0,0-.263-.469h0a1.67,1.67,0,0,0-.366-.494c-.011-.053-.053-.078-.092-.107h0a.155.155,0,0,0-.046-.071c-.121-.114-.234-.231-.359-.338a7.141,7.141,0,0,0-.657-.519c-.352-.234-.7-.469-1.059-.693-.558-.352-1.1-.735-1.648-1.1a.87.87,0,0,0-.227-.121h0c-.018-.014-.039-.025-.057-.039h0l-.227-.153h0c-.057-.039-.114-.075-.171-.114h0l-.21-.149c-.59-.4-1.183-.8-1.783-1.176-.153-.1-.306-.2-.458-.3a.17.17,0,0,0-.11-.043c-.036-.025-.075-.046-.11-.071h0a2.273,2.273,0,0,0-.38-.224c-.128-.071-.256-.146-.387-.21-.224-.107-.451-.21-.682-.306a1.239,1.239,0,0,0-.334-.114h0c-.011,0-.021-.011-.032-.014a.079.079,0,0,0-.078-.018h0l-.011-.007h-.014a.117.117,0,0,0-.1-.036h0a.857.857,0,0,0-.313-.089.761.761,0,0,0-.33-.064h0a.084.084,0,0,0-.082-.014h0a.022.022,0,0,0-.025-.007h0a2.61,2.61,0,0,0-.44-.05,3.049,3.049,0,0,0-1.03.124,3.142,3.142,0,0,0-1.609,1.158,4.3,4.3,0,0,1-.3.373,3.415,3.415,0,0,0-.391.511,2.69,2.69,0,0,0-.33.821Zm8.384.06s0,.025-.007.039A.052.052,0,0,1,159.205,503.563Zm.7,2.217Zm-2.9,7.037h0Zm-.654-6.075a.121.121,0,0,1-.053.05.089.089,0,0,1-.139-.039c0-.007-.007-.018-.011-.025.068.007.142.011.2.011Zm-2.867,4.011Zm2.49-5.858a.125.125,0,0,1-.071-.018A.53.53,0,0,1,155.976,504.895Zm6.067,2.76a.06.06,0,0,1,.018.007A.027.027,0,0,1,162.044,507.655Zm-8.963,2.92Zm3.407-7.247Zm-2.7,2.1h-.007c-.014,0-.025,0-.028-.014a.158.158,0,0,1,.039.011Zm.959-3.076a.1.1,0,0,1-.028-.014C154.726,502.344,154.733,502.351,154.744,502.355Zm-3.091,3.037-.011-.011h.032Zm9.154,1.744Zm-5.705-4.544a.011.011,0,0,0,.007,0h.025a.013.013,0,0,0,0,.011C155.127,502.6,155.113,502.593,155.1,502.593Zm-3.19,8.4a.018.018,0,0,1,.011,0,.1.1,0,0,1-.028.014C151.9,511,151.905,511,151.912,510.991Zm3.371,3.723v0l-.021-.021C155.269,514.7,155.277,514.7,155.284,514.714Zm.135.128a.28.28,0,0,1-.028-.021C155.4,514.82,155.412,514.827,155.419,514.841Zm-2.06-12.522Zm-2.036,2.018a.19.19,0,0,1,.043-.025c.025-.007.05,0,.053.025a.8.8,0,0,1,.014.082c-.036-.021-.085-.046-.128-.067,0-.007.011-.011.014-.014Zm6.039-1.062a.126.126,0,0,1,.021,0A.045.045,0,0,0,157.362,503.275Zm-4.668-.909Zm1.25,13.506a.058.058,0,0,1,.011.021C153.955,515.886,153.948,515.879,153.944,515.872Zm4.384-12.849s.028.018.043.025A.043.043,0,0,1,158.328,503.023Zm-.739-1.091.007-.007h0a.017.017,0,0,0-.011,0Z" transform="translate(-141.335 -500.512)" fill="#00cdae"/>
      <path id="패스_60" data-name="패스 60" d="M141.724,537.8h0Z" transform="translate(-135.835 -524.554)" fill="#00cdae"/>
      <path id="패스_61" data-name="패스 61" d="M134.359,541.576a3.209,3.209,0,0,0,.323-1.243,1.968,1.968,0,0,0-.089-.689.132.132,0,0,0-.025-.1h0a1.56,1.56,0,0,0-.274-.561,1.844,1.844,0,0,0-.426-.728,1.82,1.82,0,0,0-1.037-.579,1.185,1.185,0,0,0-.558.011h0a.071.071,0,0,1-.046.007.109.109,0,0,1-.046.011h0a.357.357,0,0,0-.188.043h0a.366.366,0,0,0-.163.036,6.656,6.656,0,0,0-1.552.618,6.429,6.429,0,0,0-1.254.881,7.286,7.286,0,0,0-.654.671,7.136,7.136,0,0,0-.583.757c-.071.11-.128.227-.2.338a3.434,3.434,0,0,0-.2.394c-.025.057-.075.107-.064.174h0a1.043,1.043,0,0,0-.146.391h0a.04.04,0,0,0-.011.028.125.125,0,0,0-.032.1,2.578,2.578,0,0,0-.139,1,.962.962,0,0,0,.05.348.907.907,0,0,0,.082.306.082.082,0,0,0,.032.067.054.054,0,0,0,.011.046,2.091,2.091,0,0,0,.668.948,2.339,2.339,0,0,0,1.062.515,1.565,1.565,0,0,0,.575.028.188.188,0,0,0,.124-.007h0a.217.217,0,0,0,.142-.021c.05-.007.1-.007.149-.018a4.067,4.067,0,0,0,.991-.33.422.422,0,0,0,.082-.057c.014-.007.028-.011.046-.018a.037.037,0,0,0,.021-.018.124.124,0,0,1,.046-.018.043.043,0,0,0,.018-.018.239.239,0,0,1,.046-.018h0s.014-.011.021-.018h0a.711.711,0,0,0,.078-.032,7.257,7.257,0,0,0,1.318-.924,1.235,1.235,0,0,0,.21-.2c.014-.018.032-.032.046-.05h0c.043-.007.06-.039.078-.071h0a.481.481,0,0,0,.163-.174.132.132,0,0,0,.078-.06c.082-.107.174-.206.263-.305a4.523,4.523,0,0,0,.4-.544h0a5.279,5.279,0,0,0,.558-.934Zm-3.623-.9v-.007h0l-.007.007Zm-1.286,1.417a.152.152,0,0,1,.025.007A.03.03,0,0,1,129.449,542.1Zm-.735,1.332h.032v0a.13.13,0,0,0-.039.018.147.147,0,0,0-.025-.039.351.351,0,0,0,.036.014Zm-1.467-.078a.274.274,0,0,0-.021.018C127.233,543.363,127.24,543.36,127.247,543.352Zm6.334-4.973v0h0Zm-6.426,5.492h0a.1.1,0,0,1,.011.046h0C127.162,543.9,127.158,543.885,127.154,543.871Z" transform="translate(-126.339 -524.458)" fill="#00cdae"/>
      <path id="패스_62" data-name="패스 62" d="M189.16,550.73v0Z" transform="translate(-166.423 -532.891)" fill="#00cdae"/>
      <path id="패스_63" data-name="패스 63" d="M189.18,550.87Z" transform="translate(-166.436 -532.981)" fill="#00cdae"/>
      <path id="패스_64" data-name="패스 64" d="M176.056,544.011a1.282,1.282,0,0,0-.43-.1,2.177,2.177,0,0,0-.661.064,1.483,1.483,0,0,0-.707.391c-.107.11-.227.21-.323.327a2.494,2.494,0,0,0-.313.384h0c-.021.028-.039.057-.06.085h0c-.014.018-.025.036-.039.053h0a.186.186,0,0,0-.11.121,4.112,4.112,0,0,1-.259.433.125.125,0,0,0-.028.092h0a1.476,1.476,0,0,0-.181.327,3.254,3.254,0,0,0-.252.7c-.021.107-.046.21-.068.316a3.277,3.277,0,0,0,.011,1.439,3.362,3.362,0,0,0,.213.611.408.408,0,0,0,.089.163h0a.086.086,0,0,0,.036.068h0a1.186,1.186,0,0,0,.27.391h0a.293.293,0,0,0,.032.057,2.406,2.406,0,0,0,.938.668,2.552,2.552,0,0,0,1.741.075,3.083,3.083,0,0,0,.97-.49,1.5,1.5,0,0,0,.4-.391h0a.063.063,0,0,0,.018-.025c.007,0,.011-.007.018-.011.071-.039.1-.114.146-.174a.608.608,0,0,1,.039-.05h0a.118.118,0,0,0,.067-.05,4.242,4.242,0,0,0,.544-.945c.025-.057.071-.107.057-.174.025-.043.06-.078.05-.135h0a.071.071,0,0,0,.014-.028h0a3.087,3.087,0,0,0,.178-.735,1.166,1.166,0,0,0,.018-.334.08.08,0,0,0,.007-.075h0a.2.2,0,0,1,0-.046h0a.2.2,0,0,0,0,.046.043.043,0,0,0,0-.046.129.129,0,0,0,0-.124h0v-.053h0a.034.034,0,0,0,.007-.025.174.174,0,0,0,0-.043.044.044,0,0,0-.007-.046.2.2,0,0,0-.007-.171.064.064,0,0,0,0-.075h0a.113.113,0,0,0-.007-.05h0a.315.315,0,0,1-.007-.05,195.179,195.179,0,0,1-.014-.1h0a.248.248,0,0,0,.011.05.05.05,0,0,0-.007-.05h0a1.757,1.757,0,0,0-.178-.657h0a.077.077,0,0,0-.036-.067.047.047,0,0,0-.014-.046.086.086,0,0,0-.036-.068.039.039,0,0,0-.014-.043.2.2,0,0,0,.014.043h0s-.011-.028-.014-.043-.011-.014-.018-.021a.124.124,0,0,1-.018-.046,1.278,1.278,0,0,0-.263-.394h0a1.772,1.772,0,0,0-.462-.473,1.829,1.829,0,0,0-.352-.206,1.859,1.859,0,0,0-.753-.2.682.682,0,0,1-.249-.053Zm-1.712,5.126h0a.1.1,0,0,1,.043.011A.188.188,0,0,1,174.344,549.137Zm2.078.174V549.3h0v.014h0Zm-1.861-2.483a.125.125,0,0,1-.018-.011Zm3.08-.654a.035.035,0,0,1,.021.007h0A.051.051,0,0,1,177.64,546.174Zm-2.426-1.442a.206.206,0,0,0-.028.028C175.186,544.742,175.2,544.735,175.214,544.732Zm3.265,2.043a.314.314,0,0,1-.007-.05h0a.207.207,0,0,0,.007.046Zm-.249-1.211h0a.11.11,0,0,1-.011-.046h0C178.223,545.531,178.227,545.549,178.23,545.563Z" transform="translate(-155.713 -528.494)" fill="#00cdae"/>
      <path id="패스_65" data-name="패스 65" d="M125.768,521.472a3.254,3.254,0,0,0-.441.743c-.021.05-.067.1-.053.156h0a1.033,1.033,0,0,0-.1.515.478.478,0,0,0,0,.245h0a.389.389,0,0,0,.018.22,1.906,1.906,0,0,0,.295.813,2.447,2.447,0,0,0,.522.561.337.337,0,0,0,.1.064,4.252,4.252,0,0,1,.38.2,2.025,2.025,0,0,0,.654.185,5.11,5.11,0,0,0,1.4-.064,5.286,5.286,0,0,0,1.108-.348.9.9,0,0,0,.3-.16h0a.656.656,0,0,0,.078-.032c.124-.078.249-.16.373-.242a3.871,3.871,0,0,0,.6-.5,1.982,1.982,0,0,1,.334-.288,1.494,1.494,0,0,0,.5-.572.565.565,0,0,0,.1-.249h0a1.232,1.232,0,0,0,.135-.572h0a.545.545,0,0,0,.011-.153,1.631,1.631,0,0,0-.124-.565,1.129,1.129,0,0,0-.185-.362.266.266,0,0,0-.064-.121,1.486,1.486,0,0,0-.625-.511c-.043-.028-.082-.06-.128-.085a1.1,1.1,0,0,0-.306-.131h0l-.014-.011-.014-.007h0a.338.338,0,0,0-.06-.036,4.15,4.15,0,0,0-1.623-.266,5.37,5.37,0,0,0-.629.06,4.7,4.7,0,0,0-1.147.387.961.961,0,0,0-.277.167.076.076,0,0,0-.068.039c-.043,0-.064.032-.092.06h0a.557.557,0,0,0-.234.17.123.123,0,0,0-.089.068c-.043,0-.064.036-.085.068h0a.134.134,0,0,0-.018.021.131.131,0,0,0-.085.071h0l-.039.05c-.011,0-.025,0-.032.014a2.335,2.335,0,0,0-.3.348h0a.117.117,0,0,0-.068.05Zm2.544,1.265s-.007,0-.007-.007a.032.032,0,0,0,.018,0Zm-2.014-.956Zm4.7.76h0v0h0Zm.277-1.648-.032-.021A.031.031,0,0,1,131.277,520.893Zm-.625-.654a.258.258,0,0,0-.018-.021h0A.094.094,0,0,1,130.652,520.24Z" transform="translate(-125.155 -513.008)" fill="#00cdae"/>
      <path id="패스_66" data-name="패스 66" d="M151.365,533.8s-.007-.032-.011-.046A.045.045,0,0,0,151.365,533.8Z" transform="translate(-142.046 -521.943)" fill="#00cdae"/>
      <path id="패스_67" data-name="패스 67" d="M189.2,551s0,.032.007.046A.044.044,0,0,0,189.2,551Z" transform="translate(-166.449 -533.065)" fill="#00cdae"/>
      <path id="패스_68" data-name="패스 68" d="M194.1,523.08s.007.032.011.046A.045.045,0,0,0,194.1,523.08Z" transform="translate(-169.608 -515.063)" fill="#00cdae"/>
    </g>
    <g id="그룹_8" data-name="그룹 8" transform="translate(209.458 120.587)">
      <path id="패스_69" data-name="패스 69" d="M601.328,327.681c-.192.007-.387.018-.579.036a4.063,4.063,0,0,0-1.155.295,3.813,3.813,0,0,0-1.329.881,2.831,2.831,0,0,0-.48.661,3.433,3.433,0,0,0-.142.33c-.043.114-.146.188-.206.291a1.985,1.985,0,0,0-.3,1.069,1.873,1.873,0,0,0,.43,1.162,2.324,2.324,0,0,0,.572.483,4.589,4.589,0,0,0,1.691.611,4.321,4.321,0,0,0,1.005.053.226.226,0,0,0,.064-.021.577.577,0,0,0,.27-.014h0a.569.569,0,0,0,.135,0c.2-.025.4-.046.6-.089a2.518,2.518,0,0,0,.558-.142.125.125,0,0,0,.1-.025h0a.363.363,0,0,0,.135-.025c.167-.053.337-.11.5-.16a2.737,2.737,0,0,0,.611-.263c.107-.064.217-.128.32-.2a2.542,2.542,0,0,0,.487-.43,2.513,2.513,0,0,0,.437-.771.854.854,0,0,0,.071-.3h0a.123.123,0,0,0,.036-.075,3.845,3.845,0,0,0,.039-.785,2.592,2.592,0,0,0-.338-1.03,2.777,2.777,0,0,0-.508-.639,1.672,1.672,0,0,0-.487-.341,2.939,2.939,0,0,0-.735-.337.752.752,0,0,0-.263-.064.434.434,0,0,0-.231-.053h0a.183.183,0,0,0-.128-.039,8.38,8.38,0,0,0-1.194-.078Zm.941,3.979v0l.007.007h-.007Zm-.71-1.03v-.018l.021.021h-.018Zm1.122.515v0Z" transform="translate(-581.857 -321.959)" fill="#00cdae"/>
      <path id="패스_70" data-name="패스 70" d="M559.079,337.245c.487-.139.97-.3,1.442-.483q.778-.293,1.535-.632c.38-.171.753-.352,1.126-.54.561-.288,1.115-.6,1.648-.938a3.511,3.511,0,0,0,.451-.309.343.343,0,0,0,.064-.025c.22-.16.441-.32.661-.483a.922.922,0,0,0,.085-.082.621.621,0,0,0,.185-.149h0c.135-.11.274-.22.409-.334a.952.952,0,0,0,.185-.174h0s.025-.021.036-.032h0a.127.127,0,0,0,.082-.092h0a.045.045,0,0,0,.039-.032.042.042,0,0,0,.036-.032h0s-.025.021-.036.032h0a.1.1,0,0,1,.036-.032.171.171,0,0,1,.039-.032.474.474,0,0,0,.068-.05c.188-.2.377-.4.547-.611a5.577,5.577,0,0,0,.881-1.453,1.32,1.32,0,0,0,.135-.419h0a.131.131,0,0,0,.021-.025,2.551,2.551,0,0,0,.082-.362,1.114,1.114,0,0,1,.032-.185.669.669,0,0,0,.032-.234c-.011-.192.018-.384-.011-.576a1.847,1.847,0,0,0-.092-.48v-.028a.082.082,0,0,0-.025-.078h0v-.028h0a.849.849,0,0,0-.057-.231,5,5,0,0,0-.458-.988,1.453,1.453,0,0,0-.234-.334.288.288,0,0,0-.036-.075c-.114-.149-.22-.3-.341-.444-.16-.192-.33-.377-.5-.558-.068-.075-.146-.142-.22-.21a.116.116,0,0,0-.028-.032.089.089,0,0,0-.025-.014h0c-.032-.039-.064-.082-.1-.117q-.565-.533-1.179-1.012c-.472-.369-.959-.714-1.456-1.048-.43-.291-.87-.561-1.314-.828a.736.736,0,0,0-.092-.043,1.906,1.906,0,0,0-.419-.245h0c-.036-.025-.071-.053-.11-.078-.138-.082-.277-.16-.416-.238a8.525,8.525,0,0,0-.828-.409,7.022,7.022,0,0,0-.881-.316,5.55,5.55,0,0,0-.9-.2c-.092-.011-.181-.021-.274-.025-.153-.011-.305-.032-.462-.028-.192,0-.384.028-.576.046a.415.415,0,0,0-.181.046.46.46,0,0,0-.238.053h0a.15.15,0,0,0-.068.011,3.1,3.1,0,0,0-.885.4,1.058,1.058,0,0,0-.309.238h0c-.011.011-.025.021-.036.032h0a.674.674,0,0,0-.231.217h0a.352.352,0,0,0-.149.156h0a1.65,1.65,0,0,0-.27.32,2.441,2.441,0,0,0-.281.458h0a1.634,1.634,0,0,0-.252.561c-.043.036-.039.085-.046.135h0a.118.118,0,0,0-.039.075c-.039.16-.089.316-.121.48a7.229,7.229,0,0,0-.131.824c-.032.419-.068.842-.089,1.261-.036.661-.1,1.318-.16,1.979a.883.883,0,0,0,.007.256h0a.437.437,0,0,1-.007.068h0c-.007.092-.014.181-.025.273h0c0,.068-.011.139-.014.206h0c-.007.085-.018.171-.025.256-.064.711-.117,1.421-.156,2.131-.011.181-.025.362-.039.547,0,.039-.011.078.018.114,0,.043,0,.089-.007.131h0a2.285,2.285,0,0,0-.007.441c0,.146,0,.295.007.44.018.249.039.5.067.742a1.286,1.286,0,0,0,.064.348h0v.036a.08.08,0,0,0,.021.078h0v.028a.117.117,0,0,0,.025.107h0a.9.9,0,0,0,.075.316.727.727,0,0,0,.107.32h0a.084.084,0,0,0,.028.078h0a.054.054,0,0,0,0,.025h0a2.442,2.442,0,0,0,.174.409,3.1,3.1,0,0,0,.611.842,3.165,3.165,0,0,0,1.794.842,4.362,4.362,0,0,1,.473.078,3.475,3.475,0,0,0,.636.092,2.71,2.71,0,0,0,.877-.114Zm-4.036-7.346a.173.173,0,0,0,.036-.014A.046.046,0,0,1,555.043,329.9Zm1.591-1.7Zm7.559-.9v0Zm-4.988,3.535a.128.128,0,0,1,.071.021c.053.036.075.089.036.139a.075.075,0,0,0-.014.021c-.025-.06-.06-.128-.089-.181Zm4.9.547Zm-6.33.686a.132.132,0,0,1,.018.071A.519.519,0,0,1,557.779,332.069Zm-.551-6.646v0Zm6.924,6.4Zm-7.989.558Zm3.155,1.336.007.007c.011.011.007.021,0,.032a.158.158,0,0,0-.011-.039Zm-3.155.664a.091.091,0,0,1,0,.032Zm4.16,1.215s0,.011,0,.014a.069.069,0,0,0-.014-.028c.007,0,.014.011.021.014Zm-2.941-8.842Zm-1.183,7.2h-.007a.171.171,0,0,1-.011-.025l.007-.007a.136.136,0,0,0,.011.036Zm8.885-1.311v-.011a.064.064,0,0,1,.025.018A.091.091,0,0,1,565.082,332.641Zm1.606-4.76v0c0,.011-.007.021-.007.028a.059.059,0,0,1,0-.025Zm.046-.181a.158.158,0,0,1,0,.036A.061.061,0,0,1,566.734,327.7Zm-9.925,7.908Zm2.757.792a.2.2,0,0,1-.043-.025c-.018-.018-.028-.043-.007-.06s.043-.035.067-.053v.142a.026.026,0,0,1-.021-.007Zm-3.876-4.753a.1.1,0,0,1-.014-.018C555.679,331.636,555.686,331.64,555.69,331.647Zm1.481,4.519h0v0Zm11.183-7.68s.007-.018.014-.021S568.358,328.478,568.354,328.485ZM555,330.926v-.046C555,330.9,555.008,330.911,555,330.926Zm-.59,1.176H554.4v0s.007,0,.007.007Z" transform="translate(-554.12 -317.58)" fill="#00cdae"/>
      <path id="패스_71" data-name="패스 71" d="M598.22,361.72h0Z" transform="translate(-582.554 -343.913)" fill="#00cdae"/>
      <path id="패스_72" data-name="패스 72" d="M599.812,351.123a3.224,3.224,0,0,0-1.243.323,1.989,1.989,0,0,0-.558.416.132.132,0,0,0-.071.068h0a1.459,1.459,0,0,0-.355.512,1.845,1.845,0,0,0-.426.728,1.811,1.811,0,0,0,0,1.186,1.19,1.19,0,0,0,.281.48h0a.151.151,0,0,1,.032.036.1.1,0,0,1,.032.036h0a.389.389,0,0,0,.128.146h0c.018.057.075.085.114.124a6.612,6.612,0,0,0,1.3,1.055,6.509,6.509,0,0,0,1.382.664,7.1,7.1,0,0,0,.906.245,7.684,7.684,0,0,0,.945.142c.131.007.263,0,.391.007a2.657,2.657,0,0,0,.444-.018c.06-.007.128.014.181-.028h0a1.015,1.015,0,0,0,.412-.064h0a.1.1,0,0,0,.032,0,.117.117,0,0,0,.107-.025,2.611,2.611,0,0,0,.938-.366.866.866,0,0,0,.281-.213.84.84,0,0,0,.227-.22.065.065,0,0,0,.043-.06.046.046,0,0,0,.036-.032,2.1,2.1,0,0,0,.5-1.044,2.373,2.373,0,0,0-.068-1.179,1.626,1.626,0,0,0-.256-.515.2.2,0,0,0-.064-.1h0a.2.2,0,0,0-.089-.114c-.028-.043-.057-.085-.089-.124a4.025,4.025,0,0,0-.771-.7.42.42,0,0,0-.089-.046.153.153,0,0,1-.036-.032.04.04,0,0,0-.028-.011.17.17,0,0,1-.039-.032.03.03,0,0,0-.025-.007l-.039-.032h0a.085.085,0,0,0-.025-.011h0c-.021-.018-.043-.036-.068-.053a7.169,7.169,0,0,0-1.449-.7,1.061,1.061,0,0,0-.273-.085c-.021,0-.043-.011-.064-.014h0a.128.128,0,0,0-.1-.036h0a.445.445,0,0,0-.231-.057.127.127,0,0,0-.089-.039c-.135-.021-.266-.053-.4-.082a5.269,5.269,0,0,0-.668-.085h0a5.3,5.3,0,0,0-1.087-.032Zm.984,3.6h-.007v0S600.8,354.722,600.8,354.726Zm1.869.433a.145.145,0,0,0-.007-.025A.034.034,0,0,1,602.665,355.159Zm1.52-.007a.1.1,0,0,0-.014-.028h0a.214.214,0,0,0,.036.025.236.236,0,0,0-.025.039v-.039Zm.646,1.314a.062.062,0,0,1,.025.011A.076.076,0,0,1,604.832,356.466Zm-7.432-3.1h0v0h0Zm7.929,2.931h0a.1.1,0,0,1,.036-.032h0A.318.318,0,0,1,605.329,356.3Z" transform="translate(-581.805 -337.071)" fill="#00cdae"/>
      <path id="패스_73" data-name="패스 73" d="M586.38,314Z" transform="translate(-574.92 -313.145)" fill="#00cdae"/>
      <path id="패스_74" data-name="패스 74" d="M586.49,313.91v0h0Z" transform="translate(-574.991 -313.087)" fill="#00cdae"/>
      <path id="패스_75" data-name="패스 75" d="M583.448,315.669a1.265,1.265,0,0,0,.128.423,2.155,2.155,0,0,0,.377.544,1.471,1.471,0,0,0,.689.426c.149.039.291.1.444.124a2.54,2.54,0,0,0,.487.085h0a1.015,1.015,0,0,1,.1.011h0a.487.487,0,0,1,.068.007h0a.19.19,0,0,0,.16.039,3.971,3.971,0,0,1,.5.014.148.148,0,0,0,.1-.021h0a1.639,1.639,0,0,0,.373,0,3.218,3.218,0,0,0,.735-.124l.309-.1a3.136,3.136,0,0,0,1.677-1.2.452.452,0,0,0,.1-.156h0a.074.074,0,0,0,.043-.064h0a1.194,1.194,0,0,0,.21-.426h0a.311.311,0,0,0,.036-.057,2.412,2.412,0,0,0,.124-1.144,2.556,2.556,0,0,0-.785-1.556,3.1,3.1,0,0,0-.9-.607,1.489,1.489,0,0,0-.536-.16h0a.04.04,0,0,0-.028,0,.078.078,0,0,0-.018-.011.535.535,0,0,0-.224-.043c-.021,0-.043-.007-.064-.007h0a.146.146,0,0,0-.075-.036,4.31,4.31,0,0,0-1.091-.014c-.06.007-.128-.011-.181.032-.05,0-.1-.014-.142.021h-.032a3.213,3.213,0,0,0-.728.2,1.088,1.088,0,0,0-.3.149.07.07,0,0,0-.068.032h0a.266.266,0,0,1-.039.028h0l.039-.028a.042.042,0,0,0-.039.028.131.131,0,0,0-.11.06h0a.527.527,0,0,1-.046.028h0a.03.03,0,0,0-.025.007l-.035.025a.042.042,0,0,0-.039.028.21.21,0,0,0-.146.089.074.074,0,0,0-.068.032h0l-.039.028h0a.282.282,0,0,1-.039.028,40.959,40.959,0,0,1-.078.064h0l.039-.032a.045.045,0,0,0-.039.032h0a1.775,1.775,0,0,0-.487.476h0a.07.07,0,0,0-.043.064.053.053,0,0,0-.035.032.074.074,0,0,0-.043.064.038.038,0,0,0-.032.032l.032-.032h0l-.032.032a.024.024,0,0,0-.007.025.086.086,0,0,1-.032.039,1.345,1.345,0,0,0-.217.419h0a1.644,1.644,0,0,0-.185.632,1.746,1.746,0,0,0-.011.409,1.916,1.916,0,0,0,.188.757.661.661,0,0,1,.075.242Zm5.311-1.005h0a.219.219,0,0,1-.011-.039.127.127,0,0,0,.014.039Zm-.863-1.9a.053.053,0,0,0-.011.007h0s.007-.007.011-.007Zm-1.258,2.838v0Zm-2.071-2.373a.126.126,0,0,1,0-.021h0v.021Zm-.078,2.821.039.011A.029.029,0,0,1,584.489,316.053Zm.188-3.847a.28.28,0,0,1-.039.028h0Zm-.934.81h0a.079.079,0,0,1-.036.032h0A.313.313,0,0,1,583.743,313.016Z" transform="translate(-572.851 -311.592)" fill="#00cdae"/>
      <path id="패스_76" data-name="패스 76" d="M587.358,370.328a3.345,3.345,0,0,0,.863.021c.053-.007.114.011.163-.028h0a1.082,1.082,0,0,0,.5-.16.453.453,0,0,0,.213-.117h0a.41.41,0,0,0,.185-.121,1.854,1.854,0,0,0,.565-.654,2.4,2.4,0,0,0,.234-.728.346.346,0,0,0,.007-.121c-.025-.142,0-.284-.014-.426a2.089,2.089,0,0,0-.156-.661,5.172,5.172,0,0,0-.735-1.186,4.989,4.989,0,0,0-.845-.8.972.972,0,0,0-.288-.185h0c-.021-.018-.043-.039-.064-.053-.131-.071-.259-.142-.391-.206a3.645,3.645,0,0,0-.728-.284,1.935,1.935,0,0,1-.416-.149,1.5,1.5,0,0,0-.742-.156.62.62,0,0,0-.266.032h0a1.158,1.158,0,0,0-.561.163h0a.542.542,0,0,0-.138.064,1.642,1.642,0,0,0-.43.384,1.088,1.088,0,0,0-.227.337.245.245,0,0,0-.075.114,1.5,1.5,0,0,0-.142.8,1.108,1.108,0,0,0-.011.153,1.191,1.191,0,0,0,.036.334h0v.035h0a.216.216,0,0,0,0,.067,4.171,4.171,0,0,0,.561,1.549,5.191,5.191,0,0,0,.359.519,4.743,4.743,0,0,0,.9.813.914.914,0,0,0,.281.16.076.076,0,0,0,.067.039c.021.039.06.043.1.05h0a.557.557,0,0,0,.263.121.125.125,0,0,0,.1.043.107.107,0,0,0,.1.039h0a.1.1,0,0,0,.028.007.113.113,0,0,0,.1.039h0a.305.305,0,0,1,.06.011.132.132,0,0,0,.025.021,2.173,2.173,0,0,0,.448.089h0a.147.147,0,0,0,.075.036Zm-.135-2.835v.011a.048.048,0,0,1-.011-.014.027.027,0,0,1,.014,0Zm.149,2.224Zm-1.634-4.48h0v0Zm-1.574.565a.208.208,0,0,1,0,.039A.028.028,0,0,1,584.164,365.8Zm-.263.863s-.007.018-.011.028h0A.066.066,0,0,1,583.9,366.666Z" transform="translate(-573.294 -345.586)" fill="#00cdae"/>
      <path id="패스_77" data-name="패스 77" d="M590.026,355.18s-.025.021-.036.032C590.008,355.212,590.019,355.2,590.026,355.18Z" transform="translate(-577.247 -339.696)" fill="#00cdae"/>
      <path id="패스_78" data-name="패스 78" d="M586.6,313.778l.039-.028A.042.042,0,0,0,586.6,313.778Z" transform="translate(-575.062 -312.983)" fill="#00cdae"/>
      <path id="패스_79" data-name="패스 79" d="M559.83,323.112s.025-.021.036-.032A.038.038,0,0,0,559.83,323.112Z" transform="translate(-557.801 -318.999)" fill="#00cdae"/>
    </g>
  </g>
</svg>
